PublicSans-ThinItalic.ufo
<glyph name="exclam" format="2">
  <advance width="432"/>
  <unicode hex="0021"/>
  <outline>
    <contour>
      <point x="155" y="288" type="line"/>
      <point x="213" y="288" type="line"/>
      <point x="395" y="1446" type="line"/>
      <point x="301" y="1446" type="line"/>
    </contour>
    <contour>
      <point x="89" y="0" type="line"/>
      <point x="199" y="0" type="line"/>
      <point x="221" y="154" type="line"/>
      <point x="109" y="154" type="line"/>
    </contour>
  </outline>
</glyph>
<glyph name="dollar" format="2">
  <advance width="1191"/>
  <unicode hex="0024"/>
  <outline>
    <contour>
      <point x="530" y="-20" type="curve" smooth="yes"/>
      <point x="790" y="-20"/>
      <point x="998" y="142"/>
      <point x="1028" y="354" type="curve" smooth="yes"/>
      <point x="1050" y="512"/>
      <point x="994" y="654"/>
      <point x="796" y="728" type="curve" smooth="yes"/>
      <point x="580" y="808" type="line" smooth="yes"/>
      <point x="382" y="882"/>
      <point x="320" y="942"/>
      <point x="338" y="1066" type="curve" smooth="yes"/>
      <point x="368" y="1286"/>
      <point x="578" y="1382"/>
      <point x="736" y="1382" type="curve" smooth="yes"/>
      <point x="918" y="1382"/>
      <point x="1022" y="1280"/>
      <point x="1030" y="1064" type="curve"/>
      <point x="1104" y="1080" type="line"/>
      <point x="1114" y="1280"/>
      <point x="998" y="1464"/>
      <point x="752" y="1464" type="curve" smooth="yes"/>
      <point x="484" y="1464"/>
      <point x="290" y="1292"/>
      <point x="258" y="1064" type="curve" smooth="yes"/>
      <point x="234" y="892"/>
      <point x="336" y="796"/>
      <point x="518" y="732" type="curve" smooth="yes"/>
      <point x="748" y="652" type="line" smooth="yes"/>
      <point x="910" y="596"/>
      <point x="970" y="498"/>
      <point x="948" y="350" type="curve" smooth="yes"/>
      <point x="924" y="172"/>
      <point x="720" y="64"/>
      <point x="542" y="64" type="curve" smooth="yes"/>
      <point x="348" y="64"/>
      <point x="214" y="156"/>
      <point x="192" y="352" type="curve"/>
      <point x="114" y="334" type="line"/>
      <point x="122" y="110"/>
      <point x="288" y="-20"/>
    </contour>
    <contour>
      <point x="458" y="-228" type="line"/>
      <point x="540" y="-228" type="line"/>
      <point x="576" y="30" type="line"/>
      <point x="494" y="30" type="line"/>
    </contour>
    <contour>
      <point x="704" y="1414" type="line"/>
      <point x="788" y="1414" type="line"/>
      <point x="824" y="1672" type="line"/>
      <point x="740" y="1672" type="line"/>
    </contour>
  </outline>
</glyph>
<glyph name="ampersand" format="2">
  <advance width="1179"/>
  <unicode hex="0026"/>
  <outline>
    <contour>
      <point x="380" y="-10" type="curve" smooth="yes"/>
      <point x="524" y="-10"/>
      <point x="664" y="52"/>
      <point x="808" y="180" type="curve"/>
      <point x="928" y="0" type="line"/>
      <point x="1016" y="0" type="line"/>
      <point x="864" y="238" type="line"/>
      <point x="976" y="366"/>
      <point x="1056" y="502"/>
      <point x="1096" y="736" type="curve"/>
      <point x="1034" y="736" type="line"/>
      <point x="996" y="496"/>
      <point x="880" y="340"/>
      <point x="828" y="292" type="curve"/>
      <point x="520" y="768" type="line"/>
      <point x="852" y="936"/>
      <point x="900" y="1092"/>
      <point x="910" y="1166" type="curve" smooth="yes"/>
      <point x="938" y="1354"/>
      <point x="796" y="1468"/>
      <point x="632" y="1468" type="curve" smooth="yes"/>
      <point x="458" y="1468"/>
      <point x="320" y="1336"/>
      <point x="296" y="1170" type="curve" smooth="yes"/>
      <point x="278" y="1042"/>
      <point x="320" y="922"/>
      <point x="416" y="796" type="curve"/>
      <point x="198" y="680"/>
      <point x="84" y="544"/>
      <point x="58" y="364" type="curve" smooth="yes"/>
      <point x="28" y="140"/>
      <point x="152" y="-10"/>
    </contour>
    <contour>
      <point x="398" y="64" type="curve" smooth="yes"/>
      <point x="224" y="64"/>
      <point x="108" y="182"/>
      <point x="132" y="356" type="curve" smooth="yes"/>
      <point x="156" y="516"/>
      <point x="278" y="644"/>
      <point x="450" y="738" type="curve"/>
      <point x="774" y="236" type="line"/>
      <point x="666" y="136"/>
      <point x="532" y="64"/>
    </contour>
    <contour>
      <point x="488" y="828" type="curve"/>
      <point x="466" y="862" type="line" smooth="yes"/>
      <point x="434" y="906"/>
      <point x="353" y="1040"/>
      <point x="372" y="1172" type="curve" smooth="yes"/>
      <point x="388" y="1286"/>
      <point x="478" y="1392"/>
      <point x="620" y="1392" type="curve" smooth="yes"/>
      <point x="738" y="1392"/>
      <point x="860" y="1336"/>
      <point x="836" y="1170" type="curve" smooth="yes"/>
      <point x="822" y="1072"/>
      <point x="760" y="980"/>
    </contour>
  </outline>
</glyph>
<glyph name="quotesingle" format="2">
  <advance width="458"/>
  <unicode hex="0027"/>
  <outline>
    <contour>
      <point x="275" y="1072" type="line"/>
      <point x="337" y="1072" type="line"/>
      <point x="429" y="1446" type="line"/>
      <point x="291" y="1446" type="line"/>
    </contour>
  </outline>
</glyph>
<glyph name="parenleft" format="2">
  <advance width="517"/>
  <unicode hex="0028"/>
  <outline>
    <contour>
      <point x="300" y="-208" type="curve"/>
      <point x="344" y="-208" type="line"/>
      <point x="258" y="88"/>
      <point x="228" y="370"/>
      <point x="270" y="668" type="curve" smooth="yes"/>
      <point x="314" y="982"/>
      <point x="456" y="1302"/>
      <point x="614" y="1560" type="curve"/>
      <point x="570" y="1560" type="line"/>
      <point x="384" y="1314"/>
      <point x="228" y="998"/>
      <point x="182" y="670" type="curve" smooth="yes"/>
      <point x="136" y="332"/>
      <point x="190" y="72"/>
    </contour>
  </outline>
</glyph>
<glyph name="parenright" format="2">
  <advance width="537"/>
  <unicode hex="0029"/>
  <outline>
    <contour>
      <point x="-48" y="-212" type="curve"/>
      <point x="-4" y="-212" type="line"/>
      <point x="182" y="34"/>
      <point x="338" y="350"/>
      <point x="384" y="678" type="curve" smooth="yes"/>
      <point x="430" y="1016"/>
      <point x="376" y="1276"/>
      <point x="266" y="1556" type="curve"/>
      <point x="222" y="1556" type="line"/>
      <point x="308" y="1260"/>
      <point x="338" y="978"/>
      <point x="296" y="680" type="curve" smooth="yes"/>
      <point x="252" y="366"/>
      <point x="110" y="46"/>
    </contour>
  </outline>
</glyph>
<glyph name="asterisk" format="2">
  <advance width="628"/>
  <unicode hex="002A"/>
  <outline>
    <contour>
      <point x="272" y="880" type="line"/>
      <point x="426" y="1120" type="line"/>
      <point x="572" y="888" type="line"/>
      <point x="636" y="936" type="line"/>
      <point x="470" y="1146" type="line"/>
      <point x="698" y="1226" type="line"/>
      <point x="678" y="1288" type="line"/>
      <point x="452" y="1194" type="line"/>
      <point x="462" y="1446" type="line"/>
      <point x="380" y="1446" type="line"/>
      <point x="394" y="1194" type="line"/>
      <point x="170" y="1276" type="line"/>
      <point x="148" y="1212" type="line"/>
      <point x="380" y="1144" type="line"/>
      <point x="208" y="922" type="line"/>
    </contour>
  </outline>
</glyph>
<glyph name="plus" format="2">
  <advance width="980"/>
  <unicode hex="002B"/>
  <outline>
    <contour>
      <point x="432" y="336" type="line"/>
      <point x="500" y="336" type="line"/>
      <point x="608" y="1118" type="line"/>
      <point x="540" y="1118" type="line"/>
    </contour>
    <contour>
      <point x="154" y="688" type="line"/>
      <point x="874" y="690" type="line"/>
      <point x="884" y="764" type="line"/>
      <point x="164" y="762" type="line"/>
    </contour>
  </outline>
</glyph>
<glyph name="comma" format="2">
  <advance width="395"/>
  <unicode hex="002C"/>
  <outline>
    <contour>
      <point x="-24" y="-222" type="line"/>
      <point x="34" y="-222" type="line"/>
      <point x="196" y="24" type="line"/>
      <point x="214" y="160" type="line"/>
      <point x="62" y="160" type="line"/>
      <point x="40" y="0" type="line"/>
      <point x="106" y="0" type="line"/>
    </contour>
  </outline>
</glyph>
<glyph name="hyphen" format="2">
  <advance width="686"/>
  <unicode hex="002D"/>
  <outline>
    <contour>
      <point x="122" y="478" type="line"/>
      <point x="554" y="480" type="line"/>
      <point x="564" y="558" type="line"/>
      <point x="132" y="556" type="line"/>
    </contour>
  </outline>
</glyph>
<glyph name="period" format="2">
  <advance width="352"/>
  <unicode hex="002E"/>
  <outline>
    <contour>
      <point x="47" y="0" type="line"/>
      <point x="159" y="0" type="line"/>
      <point x="181" y="154" type="line"/>
      <point x="69" y="154" type="line"/>
    </contour>
  </outline>
</glyph>
<glyph name="slash" format="2">
  <advance width="592"/>
  <unicode hex="002F"/>
  <outline>
    <contour>
      <point x="-59" y="-118" type="line"/>
      <point x="17" y="-118" type="line"/>
      <point x="693" y="1446" type="line"/>
      <point x="617" y="1446" type="line"/>
    </contour>
  </outline>
</glyph>
<glyph name="zero" format="2">
  <advance width="1088"/>
  <unicode hex="0030"/>
  <outline>
    <contour>
      <point x="467" y="-22" type="curve" smooth="yes"/>
      <point x="730" y="-22"/>
      <point x="941" y="218"/>
      <point x="1012" y="720" type="curve" smooth="yes"/>
      <point x="1082" y="1224"/>
      <point x="939" y="1466"/>
      <point x="678" y="1466" type="curve" smooth="yes"/>
      <point x="416" y="1466"/>
      <point x="204" y="1222"/>
      <point x="133" y="716" type="curve" smooth="yes"/>
      <point x="63" y="216"/>
      <point x="204" y="-22"/>
    </contour>
    <contour>
      <point x="482" y="60" type="curve" smooth="yes"/>
      <point x="260" y="60"/>
      <point x="153" y="260"/>
      <point x="217" y="720" type="curve" smooth="yes"/>
      <point x="282" y="1184"/>
      <point x="446" y="1384"/>
      <point x="666" y="1384" type="curve" smooth="yes"/>
      <point x="886" y="1384"/>
      <point x="990" y="1186"/>
      <point x="925" y="720" type="curve" smooth="yes"/>
      <point x="860" y="258"/>
      <point x="704" y="60"/>
    </contour>
  </outline>
</glyph>
<glyph name="one" format="2">
  <advance width="739"/>
  <unicode hex="0031"/>
  <outline>
    <contour>
      <point x="303" y="0" type="line"/>
      <point x="381" y="0" type="line"/>
      <point x="585" y="1446" type="line"/>
      <point x="522" y="1446" type="line"/>
      <point x="505" y="1336"/>
      <point x="457" y="1296"/>
      <point x="209" y="1296" type="curve"/>
      <point x="199" y="1218" type="line"/>
      <point x="475" y="1218" type="line"/>
    </contour>
  </outline>
</glyph>
<glyph name="two" format="2">
  <advance width="1048"/>
  <unicode hex="0032"/>
  <outline>
    <contour>
      <point x="61" y="0" type="line"/>
      <point x="870" y="0" type="line"/>
      <point x="882" y="82" type="line"/>
      <point x="152" y="82" type="line"/>
      <point x="158" y="126" type="line" smooth="yes"/>
      <point x="224" y="596"/>
      <point x="932" y="554"/>
      <point x="1006" y="1080" type="curve" smooth="yes"/>
      <point x="1039" y="1312"/>
      <point x="903" y="1466"/>
      <point x="666" y="1466" type="curve" smooth="yes"/>
      <point x="393" y="1466"/>
      <point x="213" y="1272"/>
      <point x="175" y="1048" type="curve"/>
      <point x="256" y="1048" type="line"/>
      <point x="289" y="1236"/>
      <point x="432" y="1382"/>
      <point x="648" y="1382" type="curve" smooth="yes"/>
      <point x="844" y="1382"/>
      <point x="954" y="1262"/>
      <point x="929" y="1082" type="curve" smooth="yes"/>
      <point x="863" y="616"/>
      <point x="152" y="650"/>
      <point x="79" y="126" type="curve" smooth="yes"/>
      <point x="73" y="82" type="line"/>
    </contour>
  </outline>
</glyph>
<glyph name="three" format="2">
  <advance width="1118"/>
  <unicode hex="0033"/>
  <outline>
    <contour>
      <point x="463" y="-22" type="curve" smooth="yes"/>
      <point x="750" y="-26"/>
      <point x="960" y="144"/>
      <point x="995" y="388" type="curve" smooth="yes"/>
      <point x="1020" y="568"/>
      <point x="936" y="708"/>
      <point x="741" y="768" type="curve"/>
      <point x="923" y="834"/>
      <point x="1035" y="964"/>
      <point x="1055" y="1108" type="curve" smooth="yes"/>
      <point x="1085" y="1322"/>
      <point x="936" y="1466"/>
      <point x="680" y="1466" type="curve" smooth="yes"/>
      <point x="457" y="1466"/>
      <point x="241" y="1298"/>
      <point x="206" y="1048" type="curve"/>
      <point x="287" y="1048" type="line"/>
      <point x="319" y="1272"/>
      <point x="512" y="1384"/>
      <point x="672" y="1384" type="curve" smooth="yes"/>
      <point x="901" y="1384"/>
      <point x="993" y="1244"/>
      <point x="974" y="1108" type="curve" smooth="yes"/>
      <point x="951" y="950"/>
      <point x="763" y="802"/>
      <point x="555" y="802" type="curve" smooth="yes"/>
      <point x="442" y="802" type="line"/>
      <point x="430" y="720" type="line"/>
      <point x="543" y="720" type="line" smooth="yes"/>
      <point x="771" y="720"/>
      <point x="944" y="608"/>
      <point x="912" y="382" type="curve" smooth="yes"/>
      <point x="885" y="190"/>
      <point x="713" y="60"/>
      <point x="484" y="60" type="curve" smooth="yes"/>
      <point x="282" y="60"/>
      <point x="165" y="190"/>
      <point x="168" y="384" type="curve"/>
      <point x="86" y="384" type="line"/>
      <point x="64" y="142"/>
      <point x="232" y="-18"/>
    </contour>
  </outline>
</glyph>
<glyph name="four" format="2">
  <advance width="1119"/>
  <unicode hex="0034"/>
  <outline>
    <contour>
      <point x="668" y="0" type="line"/>
      <point x="744" y="0" type="line"/>
      <point x="802" y="418" type="line"/>
      <point x="1038" y="418" type="line"/>
      <point x="1050" y="500" type="line"/>
      <point x="815" y="500" type="line"/>
      <point x="946" y="1446" type="line"/>
      <point x="864" y="1446" type="line"/>
      <point x="100" y="516" type="line"/>
      <point x="86" y="418" type="line"/>
      <point x="726" y="418" type="line"/>
    </contour>
    <contour>
      <point x="176" y="500" type="line"/>
      <point x="846" y="1312" type="line"/>
      <point x="731" y="500" type="line"/>
    </contour>
  </outline>
</glyph>
<glyph name="five" format="2">
  <advance width="1138"/>
  <unicode hex="0035"/>
  <outline>
    <contour>
      <point x="506" y="-22" type="curve" smooth="yes"/>
      <point x="776" y="-22"/>
      <point x="986" y="178"/>
      <point x="1027" y="474" type="curve" smooth="yes"/>
      <point x="1071" y="786"/>
      <point x="878" y="942"/>
      <point x="663" y="942" type="curve" smooth="yes"/>
      <point x="523" y="942"/>
      <point x="389" y="898"/>
      <point x="294" y="780" type="curve"/>
      <point x="418" y="1366" type="line"/>
      <point x="1079" y="1366" type="line"/>
      <point x="1090" y="1446" type="line"/>
      <point x="351" y="1446" type="line"/>
      <point x="184" y="676" type="line"/>
      <point x="275" y="676" type="line" smooth="yes"/>
      <point x="275" y="676"/>
      <point x="275" y="676"/>
      <point x="275" y="676" type="curve" smooth="yes"/>
      <point x="409" y="840"/>
      <point x="516" y="864"/>
      <point x="652" y="864" type="curve" smooth="yes"/>
      <point x="832" y="864"/>
      <point x="980" y="718"/>
      <point x="946" y="472" type="curve" smooth="yes"/>
      <point x="909" y="208"/>
      <point x="741" y="56"/>
      <point x="521" y="56" type="curve" smooth="yes"/>
      <point x="328" y="56"/>
      <point x="201" y="186"/>
      <point x="172" y="380" type="curve"/>
      <point x="86" y="380" type="line"/>
      <point x="106" y="140"/>
      <point x="274" y="-22"/>
    </contour>
  </outline>
</glyph>
<glyph name="six" format="2">
  <advance width="1099"/>
  <unicode hex="0036"/>
  <outline>
    <contour>
      <point x="497" y="-22" type="curve" smooth="yes"/>
      <point x="765" y="-22"/>
      <point x="947" y="176"/>
      <point x="988" y="472" type="curve" smooth="yes"/>
      <point x="1030" y="772"/>
      <point x="882" y="944"/>
      <point x="626" y="944" type="curve" smooth="yes"/>
      <point x="436" y="944"/>
      <point x="261" y="804"/>
      <point x="194" y="606" type="curve"/>
      <point x="250" y="1136"/>
      <point x="432" y="1388"/>
      <point x="713" y="1388" type="curve" smooth="yes"/>
      <point x="878" y="1388"/>
      <point x="981" y="1282"/>
      <point x="998" y="1130" type="curve"/>
      <point x="1073" y="1130" type="line"/>
      <point x="1059" y="1342"/>
      <point x="917" y="1466"/>
      <point x="724" y="1466" type="curve" smooth="yes"/>
      <point x="398" y="1466"/>
      <point x="196" y="1160"/>
      <point x="132" y="706" type="curve" smooth="yes"/>
      <point x="67" y="240"/>
      <point x="217" y="-22"/>
    </contour>
    <contour>
      <point x="514" y="60" type="curve" smooth="yes"/>
      <point x="297" y="60"/>
      <point x="182" y="256"/>
      <point x="221" y="506" type="curve"/>
      <point x="250" y="710"/>
      <point x="441" y="862"/>
      <point x="623" y="862" type="curve" smooth="yes"/>
      <point x="856" y="862"/>
      <point x="939" y="704"/>
      <point x="905" y="468" type="curve" smooth="yes"/>
      <point x="871" y="224"/>
      <point x="714" y="60"/>
    </contour>
  </outline>
</glyph>
<glyph name="seven" format="2">
  <advance width="1075"/>
  <unicode hex="0037"/>
  <outline>
    <contour>
      <point x="265" y="0" type="curve"/>
      <point x="345" y="0" type="line"/>
      <point x="435" y="274"/>
      <point x="772" y="946"/>
      <point x="1093" y="1366" type="curve"/>
      <point x="1106" y="1446" type="line"/>
      <point x="231" y="1446" type="line"/>
      <point x="219" y="1366" type="line"/>
      <point x="999" y="1366" type="line"/>
      <point x="639" y="872"/>
      <point x="367" y="294"/>
    </contour>
  </outline>
</glyph>
<glyph name="eight" format="2">
  <advance width="1172"/>
  <unicode hex="0038"/>
  <outline>
    <contour>
      <point x="509" y="-22" type="curve" smooth="yes"/>
      <point x="803" y="-22"/>
      <point x="1014" y="140"/>
      <point x="1048" y="382" type="curve" smooth="yes"/>
      <point x="1072" y="552"/>
      <point x="956" y="726"/>
      <point x="814" y="754" type="curve"/>
      <point x="959" y="810"/>
      <point x="1061" y="918"/>
      <point x="1084" y="1084" type="curve" smooth="yes"/>
      <point x="1118" y="1326"/>
      <point x="957" y="1466"/>
      <point x="718" y="1466" type="curve" smooth="yes"/>
      <point x="481" y="1466"/>
      <point x="278" y="1326"/>
      <point x="244" y="1084" type="curve" smooth="yes"/>
      <point x="220" y="918"/>
      <point x="295" y="810"/>
      <point x="423" y="754" type="curve"/>
      <point x="273" y="726"/>
      <point x="110" y="552"/>
      <point x="86" y="382" type="curve" smooth="yes"/>
      <point x="52" y="140"/>
      <point x="217" y="-22"/>
    </contour>
    <contour>
      <point x="520" y="56" type="curve" smooth="yes"/>
      <point x="281" y="56"/>
      <point x="139" y="182"/>
      <point x="166" y="376" type="curve" smooth="yes"/>
      <point x="193" y="568"/>
      <point x="372" y="708"/>
      <point x="611" y="708" type="curve" smooth="yes"/>
      <point x="853" y="708"/>
      <point x="992" y="568"/>
      <point x="965" y="376" type="curve" smooth="yes"/>
      <point x="938" y="182"/>
      <point x="761" y="56"/>
    </contour>
    <contour>
      <point x="624" y="798" type="curve" smooth="yes"/>
      <point x="422" y="798"/>
      <point x="301" y="904"/>
      <point x="327" y="1088" type="curve" smooth="yes"/>
      <point x="352" y="1270"/>
      <point x="505" y="1386"/>
      <point x="706" y="1386" type="curve" smooth="yes"/>
      <point x="909" y="1386"/>
      <point x="1029" y="1272"/>
      <point x="1003" y="1088" type="curve" smooth="yes"/>
      <point x="978" y="904"/>
      <point x="828" y="798"/>
    </contour>
  </outline>
</glyph>
<glyph name="nine" format="2">
  <advance width="1108"/>
  <unicode hex="0039"/>
  <outline>
    <contour>
      <point x="435" y="-22" type="curve" smooth="yes"/>
      <point x="761" y="-22"/>
      <point x="970" y="282"/>
      <point x="1034" y="736" type="curve" smooth="yes"/>
      <point x="1100" y="1202"/>
      <point x="951" y="1466"/>
      <point x="672" y="1466" type="curve" smooth="yes"/>
      <point x="403" y="1466"/>
      <point x="223" y="1266"/>
      <point x="182" y="970" type="curve" smooth="yes"/>
      <point x="140" y="670"/>
      <point x="286" y="498"/>
      <point x="543" y="498" type="curve" smooth="yes"/>
      <point x="732" y="498"/>
      <point x="907" y="638"/>
      <point x="974" y="836" type="curve"/>
      <point x="918" y="306"/>
      <point x="727" y="56"/>
      <point x="446" y="56" type="curve" smooth="yes"/>
      <point x="281" y="56"/>
      <point x="169" y="158"/>
      <point x="152" y="310" type="curve"/>
      <point x="76" y="310" type="line"/>
      <point x="91" y="98"/>
      <point x="242" y="-22"/>
    </contour>
    <contour>
      <point x="545" y="580" type="curve" smooth="yes"/>
      <point x="312" y="580"/>
      <point x="231" y="738"/>
      <point x="264" y="974" type="curve" smooth="yes"/>
      <point x="298" y="1218"/>
      <point x="456" y="1384"/>
      <point x="655" y="1384" type="curve" smooth="yes"/>
      <point x="871" y="1384"/>
      <point x="986" y="1186"/>
      <point x="947" y="936" type="curve"/>
      <point x="919" y="732"/>
      <point x="728" y="580"/>
    </contour>
  </outline>
</glyph>
<glyph name="colon" format="2">
  <advance width="353"/>
  <unicode hex="003A"/>
  <outline>
    <contour>
      <point x="164" y="820" type="line"/>
      <point x="276" y="820" type="line"/>
      <point x="298" y="976" type="line"/>
      <point x="186" y="976" type="line"/>
    </contour>
    <contour>
      <point x="48" y="6" type="line"/>
      <point x="160" y="6" type="line"/>
      <point x="182" y="160" type="line"/>
      <point x="70" y="160" type="line"/>
    </contour>
  </outline>
</glyph>
<glyph name="semicolon" format="2">
  <advance width="391"/>
  <unicode hex="003B"/>
  <outline>
    <contour>
      <point x="11" y="-262" type="line"/>
      <point x="49" y="-262" type="line"/>
      <point x="201" y="18" type="line"/>
      <point x="219" y="154" type="line"/>
      <point x="107" y="154" type="line"/>
      <point x="87" y="0" type="line"/>
      <point x="137" y="0" type="line"/>
    </contour>
    <contour>
      <point x="193" y="820" type="line"/>
      <point x="305" y="820" type="line"/>
      <point x="327" y="976" type="line"/>
      <point x="213" y="976" type="line"/>
    </contour>
  </outline>
</glyph>
<glyph name="less" format="2">
  <advance width="968"/>
  <unicode hex="003C"/>
  <outline>
    <contour>
      <point x="812" y="348" type="line"/>
      <point x="824" y="438" type="line"/>
      <point x="266" y="698" type="line"/>
      <point x="900" y="956" type="line"/>
      <point x="912" y="1054" type="line"/>
      <point x="162" y="744" type="line"/>
      <point x="150" y="650" type="line"/>
    </contour>
  </outline>
</glyph>
<glyph name="equal" format="2">
  <advance width="981"/>
  <unicode hex="003D"/>
  <outline>
    <contour>
      <point x="182" y="884" type="line"/>
      <point x="902" y="886" type="line"/>
      <point x="912" y="960" type="line"/>
      <point x="192" y="958" type="line"/>
    </contour>
    <contour>
      <point x="122" y="454" type="line"/>
      <point x="842" y="456" type="line"/>
      <point x="852" y="530" type="line"/>
      <point x="132" y="528" type="line"/>
    </contour>
  </outline>
</glyph>
<glyph name="greater" format="2">
  <advance width="966"/>
  <unicode hex="003E"/>
  <outline>
    <contour>
      <point x="108" y="348" type="line"/>
      <point x="854" y="650" type="line"/>
      <point x="868" y="744" type="line"/>
      <point x="206" y="1054" type="line"/>
      <point x="192" y="956" type="line"/>
      <point x="752" y="698" type="line"/>
      <point x="122" y="438" type="line"/>
    </contour>
  </outline>
</glyph>
<glyph name="question" format="2">
  <advance width="946"/>
  <unicode hex="003F"/>
  <outline>
    <contour>
      <point x="370" y="292" type="curve"/>
      <point x="444" y="292" type="line"/>
      <point x="496" y="656"/>
      <point x="890" y="760"/>
      <point x="940" y="1112" type="curve" smooth="yes"/>
      <point x="970" y="1328"/>
      <point x="842" y="1466"/>
      <point x="610" y="1466" type="curve" smooth="yes"/>
      <point x="438" y="1466"/>
      <point x="266" y="1368"/>
      <point x="168" y="1216" type="curve"/>
      <point x="238" y="1178" type="line"/>
      <point x="294" y="1288"/>
      <point x="458" y="1384"/>
      <point x="598" y="1384" type="curve" smooth="yes"/>
      <point x="778" y="1384"/>
      <point x="880" y="1280"/>
      <point x="856" y="1112" type="curve" smooth="yes"/>
      <point x="810" y="788"/>
      <point x="424" y="682"/>
    </contour>
    <contour>
      <point x="312" y="0" type="line"/>
      <point x="422" y="0" type="line"/>
      <point x="444" y="154" type="line"/>
      <point x="334" y="154" type="line"/>
    </contour>
  </outline>
</glyph>
<glyph name="at" format="2">
  <advance width="1555"/>
  <unicode hex="0040"/>
  <outline>
    <contour>
      <point x="695" y="-220" type="curve" smooth="yes"/>
      <point x="847" y="-220"/>
      <point x="991" y="-166"/>
      <point x="1125" y="-70" type="curve"/>
      <point x="1088" y="-2" type="line"/>
      <point x="981" y="-74"/>
      <point x="893" y="-134"/>
      <point x="729" y="-134" type="curve" smooth="yes"/>
      <point x="311" y="-134"/>
      <point x="149" y="168"/>
      <point x="195" y="504" type="curve" smooth="yes"/>
      <point x="249" y="886"/>
      <point x="535" y="1206"/>
      <point x="915" y="1206" type="curve" smooth="yes"/>
      <point x="1165" y="1206"/>
      <point x="1430" y="1046"/>
      <point x="1373" y="652" type="curve" smooth="yes"/>
      <point x="1340" y="406"/>
      <point x="1203" y="242"/>
      <point x="1065" y="242" type="curve" smooth="yes"/>
      <point x="991" y="242"/>
      <point x="970" y="286"/>
      <point x="1008" y="418" type="curve" smooth="yes"/>
      <point x="1141" y="876" type="line"/>
      <point x="1067" y="876" type="line"/>
      <point x="1035" y="792" type="line" smooth="yes"/>
      <point x="1031" y="782"/>
      <point x="1023" y="782"/>
      <point x="1023" y="786" type="curve" smooth="yes"/>
      <point x="995" y="872"/>
      <point x="926" y="926"/>
      <point x="827" y="926" type="curve" smooth="yes"/>
      <point x="634" y="926"/>
      <point x="464" y="728"/>
      <point x="428" y="474" type="curve" smooth="yes"/>
      <point x="397" y="266"/>
      <point x="495" y="130"/>
      <point x="619" y="130" type="curve" smooth="yes"/>
      <point x="745" y="130"/>
      <point x="831" y="192"/>
      <point x="895" y="274" type="curve" smooth="yes"/>
      <point x="909" y="288"/>
      <point x="913" y="288"/>
      <point x="915" y="270" type="curve" smooth="yes"/>
      <point x="920" y="184"/>
      <point x="966" y="158"/>
      <point x="1052" y="158" type="curve" smooth="yes"/>
      <point x="1243" y="158"/>
      <point x="1424" y="364"/>
      <point x="1466" y="664" type="curve" smooth="yes"/>
      <point x="1527" y="1100"/>
      <point x="1231" y="1288"/>
      <point x="930" y="1288" type="curve" smooth="yes"/>
      <point x="510" y="1288"/>
      <point x="170" y="930"/>
      <point x="109" y="508" type="curve" smooth="yes"/>
      <point x="54" y="108"/>
      <point x="264" y="-220"/>
    </contour>
    <contour>
      <point x="641" y="216" type="curve" smooth="yes"/>
      <point x="541" y="216"/>
      <point x="493" y="312"/>
      <point x="517" y="476" type="curve" smooth="yes"/>
      <point x="546" y="676"/>
      <point x="665" y="840"/>
      <point x="819" y="840" type="curve" smooth="yes"/>
      <point x="922" y="840"/>
      <point x="1015" y="742"/>
      <point x="951" y="518" type="curve" smooth="yes"/>
      <point x="903" y="352"/>
      <point x="769" y="216"/>
    </contour>
  </outline>
</glyph>
<glyph name="A" format="2">
  <advance width="1304"/>
  <unicode hex="0041"/>
  <guideline x="-341" y="110" angle="69.4967"/>
  <guideline x="18" y="110" angle="110.0797"/>
  <anchor x="579" y="0" name="bottom"/>
  <anchor x="1117" y="24" name="ogonek"/>
  <anchor x="783" y="1446" name="top"/>
  <outline>
    <contour>
      <point x="42" y="0" type="line"/>
      <point x="119" y="0" type="line"/>
      <point x="339" y="456" type="line"/>
      <point x="949" y="456" type="line"/>
      <point x="1037" y="0" type="line"/>
      <point x="1116" y="0" type="line"/>
      <point x="834" y="1446" type="line"/>
      <point x="732" y="1446" type="line"/>
    </contour>
    <contour>
      <point x="377" y="542" type="line"/>
      <point x="774" y="1362" type="line"/>
      <point x="934" y="542" type="line"/>
    </contour>
  </outline>
</glyph>
<glyph name="B" format="2">
  <advance width="1235"/>
  <unicode hex="0042"/>
  <outline>
    <contour>
      <point x="147" y="0" type="line"/>
      <point x="529" y="0" type="line"/>
      <point x="843" y="0"/>
      <point x="1042" y="126"/>
      <point x="1078" y="382" type="curve"/>
      <point x="1106" y="576"/>
      <point x="1020" y="698"/>
      <point x="832" y="733" type="curve"/>
      <point x="1033" y="793"/>
      <point x="1118" y="906"/>
      <point x="1142" y="1068" type="curve" smooth="yes"/>
      <point x="1176" y="1312"/>
      <point x="1020" y="1446"/>
      <point x="722" y="1446" type="curve" smooth="yes"/>
      <point x="351" y="1446" type="line"/>
    </contour>
    <contour>
      <point x="231" y="82" type="line"/>
      <point x="317" y="690" type="line"/>
      <point x="643" y="690" type="line" smooth="yes"/>
      <point x="867" y="690"/>
      <point x="1039" y="610"/>
      <point x="1007" y="378" type="curve" smooth="yes"/>
      <point x="977" y="164"/>
      <point x="810" y="82"/>
      <point x="526" y="82" type="curve"/>
    </contour>
    <contour>
      <point x="327" y="772" type="line"/>
      <point x="411" y="1366" type="line"/>
      <point x="707" y="1366" type="line" smooth="yes"/>
      <point x="951" y="1366"/>
      <point x="1099" y="1276"/>
      <point x="1069" y="1066" type="curve" smooth="yes"/>
      <point x="1037" y="826"/>
      <point x="814" y="772"/>
      <point x="648" y="772" type="curve" smooth="yes"/>
    </contour>
  </outline>
</glyph>
<glyph name="C" format="2">
  <advance width="1252"/>
  <unicode hex="0043"/>
  <anchor x="590" y="0" name="bottom"/>
  <anchor x="779" y="1446" name="top"/>
  <outline>
    <contour>
      <point x="589" y="-20" type="curve" smooth="yes"/>
      <point x="853" y="-20"/>
      <point x="1060" y="191"/>
      <point x="1112" y="411" type="curve"/>
      <point x="1030" y="411" type="line"/>
      <point x="970" y="223"/>
      <point x="822" y="62"/>
      <point x="599" y="62" type="curve" smooth="yes"/>
      <point x="299" y="62"/>
      <point x="177" y="276"/>
      <point x="235" y="720" type="curve" smooth="yes"/>
      <point x="293" y="1164"/>
      <point x="471" y="1384"/>
      <point x="771" y="1384" type="curve" smooth="yes"/>
      <point x="994" y="1384"/>
      <point x="1100" y="1222"/>
      <point x="1111" y="1034" type="curve"/>
      <point x="1193" y="1034" type="line"/>
      <point x="1199" y="1256"/>
      <point x="1046" y="1466"/>
      <point x="782" y="1466" type="curve" smooth="yes"/>
      <point x="435" y="1466"/>
      <point x="217" y="1208"/>
      <point x="154" y="720" type="curve" smooth="yes"/>
      <point x="90" y="232"/>
      <point x="242" y="-20"/>
    </contour>
  </outline>
</glyph>
<glyph name="D" format="2">
  <advance width="1266"/>
  <unicode hex="0044"/>
  <anchor x="502" y="0" name="bottom"/>
  <anchor x="658" y="724" name="center"/>
  <anchor x="849" y="1446" name="top"/>
  <outline>
    <contour>
      <point x="150" y="0" type="line"/>
      <point x="348" y="0" type="line" smooth="yes"/>
      <point x="979" y="0"/>
      <point x="1181" y="416"/>
      <point x="1181" y="916" type="curve" smooth="yes"/>
      <point x="1181" y="1273"/>
      <point x="995" y="1442"/>
      <point x="569" y="1444" type="curve" smooth="yes"/>
      <point x="461" y="1444"/>
      <point x="354" y="1446"/>
      <point x="351" y="1446" type="curve"/>
    </contour>
    <contour>
      <point x="240" y="82" type="line"/>
      <point x="420" y="1364" type="line"/>
      <point x="544" y="1364" type="line" smooth="yes"/>
      <point x="900" y="1364"/>
      <point x="1103" y="1259"/>
      <point x="1103" y="904" type="curve" smooth="yes"/>
      <point x="1103" y="423"/>
      <point x="912" y="82"/>
      <point x="349" y="82" type="curve" smooth="yes"/>
    </contour>
  </outline>
</glyph>
<glyph name="E" format="2">
  <advance width="1150"/>
  <unicode hex="0045"/>
  <anchor x="551" y="0" name="bottom"/>
  <anchor x="931" y="20" name="ogonek"/>
  <anchor x="715" y="1446" name="top"/>
  <outline>
    <contour>
      <point x="147" y="0" type="line"/>
      <point x="937" y="0" type="line"/>
      <point x="949" y="82" type="line"/>
      <point x="231" y="84" type="line"/>
      <point x="317" y="690" type="line"/>
      <point x="961" y="690" type="line"/>
      <point x="971" y="772" type="line"/>
      <point x="327" y="772" type="line"/>
      <point x="411" y="1366" type="line"/>
      <point x="1103" y="1366" type="line"/>
      <point x="1115" y="1446" type="line"/>
      <point x="351" y="1446" type="line"/>
    </contour>
  </outline>
</glyph>
<glyph name="G" format="2">
  <advance width="1339"/>
  <unicode hex="0047"/>
  <anchor x="570" y="0" name="bottom"/>
  <anchor x="776" y="1446" name="top"/>
  <outline>
    <contour>
      <point x="585" y="-20" type="curve" smooth="yes"/>
      <point x="791" y="-20"/>
      <point x="945" y="100"/>
      <point x="1039" y="252" type="curve"/>
      <point x="1003" y="0" type="line"/>
      <point x="1076" y="0" type="line"/>
      <point x="1179" y="736" type="line"/>
      <point x="733" y="736" type="line"/>
      <point x="723" y="666" type="line"/>
      <point x="1097" y="666" type="line"/>
      <point x="1073" y="498" type="line" smooth="yes"/>
      <point x="1047" y="314"/>
      <point x="882" y="58"/>
      <point x="596" y="58" type="curve" smooth="yes"/>
      <point x="313" y="58"/>
      <point x="168" y="276"/>
      <point x="230" y="720" type="curve" smooth="yes"/>
      <point x="293" y="1164"/>
      <point x="500" y="1384"/>
      <point x="782" y="1384" type="curve" smooth="yes"/>
      <point x="976" y="1384"/>
      <point x="1109" y="1216"/>
      <point x="1112" y="1034" type="curve"/>
      <point x="1193" y="1034" type="line"/>
      <point x="1205" y="1262"/>
      <point x="1017" y="1466"/>
      <point x="794" y="1466" type="curve" smooth="yes"/>
      <point x="456" y="1466"/>
      <point x="222" y="1202"/>
      <point x="154" y="720" type="curve" smooth="yes"/>
      <point x="86" y="234"/>
      <point x="247" y="-20"/>
    </contour>
  </outline>
</glyph>
<glyph name="H" format="2">
  <advance width="1444"/>
  <unicode hex="0048"/>
  <anchor x="656" y="0" name="bottom"/>
  <anchor x="860" y="1446" name="top"/>
  <outline>
    <contour>
      <point x="148" y="0" type="line"/>
      <point x="220" y="0" type="line"/>
      <point x="320" y="712" type="line"/>
      <point x="1179" y="712" type="line"/>
      <point x="1079" y="0" type="line"/>
      <point x="1151" y="0" type="line"/>
      <point x="1354" y="1446" type="line"/>
      <point x="1282" y="1446" type="line"/>
      <point x="1191" y="794" type="line"/>
      <point x="331" y="794" type="line"/>
      <point x="423" y="1446" type="line"/>
      <point x="351" y="1446" type="line"/>
    </contour>
  </outline>
</glyph>
<glyph name="I" format="2">
  <advance width="514"/>
  <unicode hex="0049"/>
  <anchor x="187" y="0" name="bottom"/>
  <anchor x="213" y="20" name="ogonek"/>
  <anchor x="389" y="1446" name="top"/>
  <outline>
    <contour>
      <point x="149" y="0" type="line"/>
      <point x="221" y="0" type="line"/>
      <point x="423" y="1446" type="line"/>
      <point x="351" y="1446" type="line"/>
    </contour>
  </outline>
</glyph>
<glyph name="J" format="2">
  <advance width="717"/>
  <unicode hex="004A"/>
  <anchor x="636" y="1446" name="top"/>
  <outline>
    <contour>
      <point x="242" y="-20" type="curve" smooth="yes"/>
      <point x="414" y="-20"/>
      <point x="482" y="96"/>
      <point x="508" y="280" type="curve" smooth="yes"/>
      <point x="672" y="1446" type="line"/>
      <point x="601" y="1446" type="line"/>
      <point x="440" y="308" type="line" smooth="yes"/>
      <point x="416" y="126"/>
      <point x="366" y="62"/>
      <point x="250" y="62" type="curve" smooth="yes"/>
      <point x="156" y="62"/>
      <point x="116" y="104"/>
      <point x="78" y="124" type="curve"/>
      <point x="48" y="38" type="line"/>
      <point x="59" y="26"/>
      <point x="138" y="-20"/>
    </contour>
  </outline>
</glyph>
<glyph name="K" format="2">
  <advance width="1224"/>
  <unicode hex="004B"/>
  <anchor x="555" y="0" name="bottom"/>
  <anchor x="791" y="1446" name="top"/>
  <outline>
    <contour>
      <point x="147" y="0" type="line"/>
      <point x="223" y="0" type="line"/>
      <point x="293" y="496" type="line"/>
      <point x="601" y="814" type="line"/>
      <point x="965" y="0" type="line"/>
      <point x="1059" y="0" type="line"/>
      <point x="671" y="876" type="line"/>
      <point x="1231" y="1446" type="line"/>
      <point x="1133" y="1446" type="line"/>
      <point x="309" y="612" type="line"/>
      <point x="425" y="1446" type="line"/>
      <point x="351" y="1446" type="line"/>
    </contour>
  </outline>
</glyph>
<glyph name="L" format="2">
  <advance width="1093"/>
  <unicode hex="004C"/>
  <anchor x="515" y="0" name="bottom"/>
  <anchor x="856" y="1446" name="caron"/>
  <anchor x="391" y="1446" name="top"/>
  <outline>
    <contour>
      <point x="147" y="0" type="line"/>
      <point x="905" y="0" type="line"/>
      <point x="917" y="86" type="line"/>
      <point x="237" y="86" type="line"/>
      <point x="429" y="1446" type="line"/>
      <point x="351" y="1446" type="line"/>
    </contour>
  </outline>
</glyph>
<glyph name="M" format="2">
  <advance width="1606"/>
  <unicode hex="004D"/>
  <outline>
    <contour>
      <point x="149" y="0" type="line"/>
      <point x="227" y="0" type="line"/>
      <point x="399" y="1216" type="line"/>
      <point x="675" y="0" type="line"/>
      <point x="781" y="0" type="line"/>
      <point x="1407" y="1232" type="line"/>
      <point x="1233" y="0" type="line"/>
      <point x="1313" y="0" type="line"/>
      <point x="1515" y="1446" type="line"/>
      <point x="1437" y="1446" type="line"/>
      <point x="739" y="88" type="line"/>
      <point x="433" y="1446" type="line"/>
      <point x="351" y="1446" type="line"/>
    </contour>
  </outline>
</glyph>
<glyph name="N" format="2">
  <advance width="1372"/>
  <unicode hex="004E"/>
  <anchor x="569" y="0" name="bottom"/>
  <anchor x="817" y="1446" name="top"/>
  <outline>
    <contour>
      <point x="147" y="0" type="line"/>
      <point x="219" y="0" type="line"/>
      <point x="401" y="1286" type="line"/>
      <point x="1017" y="0" type="line"/>
      <point x="1079" y="0" type="line"/>
      <point x="1283" y="1446" type="line"/>
      <point x="1211" y="1446" type="line"/>
      <point x="1029" y="156" type="line"/>
      <point x="409" y="1446" type="line"/>
      <point x="351" y="1446" type="line"/>
    </contour>
  </outline>
</glyph>
<glyph name="O" format="2">
  <advance width="1329"/>
  <unicode hex="004F"/>
  <anchor x="597" y="0" name="bottom"/>
  <anchor x="1113" y="1212" name="horn"/>
  <anchor x="726" y="18" name="ogonek"/>
  <anchor x="801" y="1446" name="top"/>
  <outline>
    <contour>
      <point x="591" y="-20" type="curve" smooth="yes"/>
      <point x="927" y="-20"/>
      <point x="1165" y="238"/>
      <point x="1233" y="720" type="curve" smooth="yes"/>
      <point x="1301" y="1206"/>
      <point x="1137" y="1466"/>
      <point x="801" y="1466" type="curve" smooth="yes"/>
      <point x="463" y="1466"/>
      <point x="221" y="1204"/>
      <point x="153" y="716" type="curve" smooth="yes"/>
      <point x="85" y="236"/>
      <point x="251" y="-20"/>
    </contour>
    <contour>
      <point x="605" y="62" type="curve" smooth="yes"/>
      <point x="307" y="62"/>
      <point x="173" y="278"/>
      <point x="235" y="720" type="curve" smooth="yes"/>
      <point x="297" y="1164"/>
      <point x="493" y="1384"/>
      <point x="789" y="1384" type="curve" smooth="yes"/>
      <point x="1085" y="1384"/>
      <point x="1215" y="1166"/>
      <point x="1153" y="720" type="curve" smooth="yes"/>
      <point x="1091" y="276"/>
      <point x="901" y="62"/>
    </contour>
  </outline>
</glyph>
<glyph name="P" format="2">
  <advance width="1168"/>
  <unicode hex="0050"/>
  <outline>
    <contour>
      <point x="149" y="0" type="line"/>
      <point x="227" y="0" type="line"/>
      <point x="305" y="554" type="line"/>
      <point x="646" y="554" type="line" smooth="yes"/>
      <point x="919" y="554"/>
      <point x="1137" y="716"/>
      <point x="1179" y="1006" type="curve" smooth="yes"/>
      <point x="1219" y="1296"/>
      <point x="1041" y="1446"/>
      <point x="761" y="1446" type="curve" smooth="yes"/>
      <point x="351" y="1446" type="line"/>
    </contour>
    <contour>
      <point x="317" y="640" type="line"/>
      <point x="419" y="1362" type="line"/>
      <point x="747" y="1362" type="line" smooth="yes"/>
      <point x="991" y="1362"/>
      <point x="1131" y="1252"/>
      <point x="1099" y="1012" type="curve" smooth="yes"/>
      <point x="1065" y="772"/>
      <point x="889" y="640"/>
      <point x="659" y="640" type="curve" smooth="yes"/>
    </contour>
  </outline>
</glyph>
<glyph name="Q" format="2">
  <advance width="1361"/>
  <unicode hex="0051"/>
  <outline>
    <contour>
      <point x="1082" y="-238" type="curve"/>
      <point x="1094" y="-158" type="line"/>
      <point x="978" y="-152"/>
      <point x="882" y="-100"/>
      <point x="840" y="36" type="curve"/>
      <point x="1072" y="158"/>
      <point x="1188" y="388"/>
      <point x="1234" y="720" type="curve" smooth="yes"/>
      <point x="1302" y="1210"/>
      <point x="1136" y="1466"/>
      <point x="800" y="1466" type="curve" smooth="yes"/>
      <point x="462" y="1466"/>
      <point x="222" y="1210"/>
      <point x="154" y="720" type="curve" smooth="yes"/>
      <point x="84" y="226"/>
      <point x="262" y="-20"/>
      <point x="590" y="-20" type="curve" smooth="yes"/>
      <point x="642" y="-20"/>
      <point x="694" y="-12"/>
      <point x="756" y="2" type="curve"/>
      <point x="822" y="-196"/>
      <point x="994" y="-238"/>
    </contour>
    <contour>
      <point x="603" y="62" type="curve" smooth="yes"/>
      <point x="308" y="62"/>
      <point x="172" y="274"/>
      <point x="234" y="716" type="curve" smooth="yes"/>
      <point x="296" y="1154"/>
      <point x="488" y="1384"/>
      <point x="788" y="1384" type="curve" smooth="yes"/>
      <point x="1088" y="1384"/>
      <point x="1216" y="1154"/>
      <point x="1154" y="720" type="curve" smooth="yes"/>
      <point x="1092" y="274"/>
      <point x="896" y="62"/>
    </contour>
  </outline>
</glyph>
<glyph name="R" format="2">
  <advance width="1244"/>
  <unicode hex="0052"/>
  <anchor x="545" y="0" name="bottom"/>
  <anchor x="735" y="1446" name="top"/>
  <outline>
    <contour>
      <point x="147" y="0" type="line"/>
      <point x="219" y="0" type="line"/>
      <point x="317" y="688" type="line"/>
      <point x="763" y="688" type="line"/>
      <point x="935" y="0" type="line"/>
      <point x="1017" y="0" type="line"/>
      <point x="841" y="706" type="line"/>
      <point x="975" y="742"/>
      <point x="1145" y="846"/>
      <point x="1179" y="1088" type="curve" smooth="yes"/>
      <point x="1211" y="1326"/>
      <point x="1077" y="1446"/>
      <point x="819" y="1446" type="curve" smooth="yes"/>
      <point x="351" y="1446" type="line"/>
    </contour>
    <contour>
      <point x="327" y="770" type="line"/>
      <point x="411" y="1366" type="line"/>
      <point x="807" y="1366" type="line" smooth="yes"/>
      <point x="1025" y="1366"/>
      <point x="1127" y="1280"/>
      <point x="1099" y="1074" type="curve" smooth="yes"/>
      <point x="1069" y="856"/>
      <point x="919" y="770"/>
      <point x="663" y="770" type="curve" smooth="yes"/>
    </contour>
  </outline>
</glyph>
<glyph name="S" format="2">
  <advance width="1241"/>
  <unicode hex="0053"/>
  <anchor x="526" y="0" name="bottom"/>
  <anchor x="741" y="1446" name="top"/>
  <outline>
    <contour>
      <point x="554" y="-20" type="curve" smooth="yes"/>
      <point x="865" y="-20"/>
      <point x="1042" y="150"/>
      <point x="1068" y="354" type="curve" smooth="yes"/>
      <point x="1090" y="518"/>
      <point x="1036" y="672"/>
      <point x="837" y="731" type="curve" smooth="yes"/>
      <point x="567" y="811" type="line" smooth="yes"/>
      <point x="369" y="870"/>
      <point x="310" y="942"/>
      <point x="326" y="1066" type="curve" smooth="yes"/>
      <point x="355" y="1286"/>
      <point x="569" y="1382"/>
      <point x="726" y="1382" type="curve" smooth="yes"/>
      <point x="903" y="1382"/>
      <point x="1064" y="1304"/>
      <point x="1054" y="1064" type="curve"/>
      <point x="1136" y="1064" type="line"/>
      <point x="1162" y="1258"/>
      <point x="1037" y="1464"/>
      <point x="740" y="1464" type="curve" smooth="yes"/>
      <point x="475" y="1464"/>
      <point x="278" y="1292"/>
      <point x="249" y="1064" type="curve" smooth="yes"/>
      <point x="226" y="892"/>
      <point x="322" y="787"/>
      <point x="509" y="734" type="curve" smooth="yes"/>
      <point x="791" y="654" type="line" smooth="yes"/>
      <point x="952" y="608"/>
      <point x="1010" y="504"/>
      <point x="990" y="350" type="curve" smooth="yes"/>
      <point x="968" y="180"/>
      <point x="793" y="58"/>
      <point x="564" y="58" type="curve" smooth="yes"/>
      <point x="372" y="58"/>
      <point x="211" y="158"/>
      <point x="196" y="354" type="curve"/>
      <point x="115" y="354" type="line"/>
      <point x="123" y="112"/>
      <point x="313" y="-20"/>
    </contour>
  </outline>
</glyph>
<glyph name="U" format="2">
  <advance width="1277"/>
  <unicode hex="0055"/>
  <anchor x="585" y="4" name="bottom"/>
  <anchor x="1171" y="1212" name="horn"/>
  <anchor x="719" y="18" name="ogonek"/>
  <anchor x="793" y="1446" name="top"/>
  <outline>
    <contour>
      <point x="585" y="-20" type="curve" smooth="yes"/>
      <point x="881" y="-20"/>
      <point x="1047" y="134"/>
      <point x="1091" y="448" type="curve" smooth="yes"/>
      <point x="1230" y="1446" type="line"/>
      <point x="1159" y="1446" type="line"/>
      <point x="1019" y="444" type="line" smooth="yes"/>
      <point x="983" y="188"/>
      <point x="841" y="56"/>
      <point x="595" y="56" type="curve" smooth="yes"/>
      <point x="351" y="56"/>
      <point x="253" y="192"/>
      <point x="289" y="444" type="curve" smooth="yes"/>
      <point x="429" y="1446" type="line"/>
      <point x="351" y="1446" type="line"/>
      <point x="215" y="478" type="line" smooth="yes"/>
      <point x="167" y="138"/>
      <point x="283" y="-20"/>
    </contour>
  </outline>
</glyph>
<glyph name="V" format="2">
  <advance width="1175"/>
  <unicode hex="0056"/>
  <outline>
    <contour>
      <point x="456" y="0" type="line"/>
      <point x="562" y="0" type="line"/>
      <point x="1248" y="1446" type="line"/>
      <point x="1171" y="1446" type="line"/>
      <point x="520" y="82" type="line"/>
      <point x="266" y="1446" type="line"/>
      <point x="188" y="1446" type="line"/>
    </contour>
  </outline>
</glyph>
<glyph name="W" format="2">
  <advance width="1742"/>
  <unicode hex="0057"/>
  <anchor x="1002" y="1446" name="top"/>
  <outline>
    <contour>
      <point x="359" y="0" type="line"/>
      <point x="455" y="0" type="line"/>
      <point x="978" y="1296" type="line"/>
      <point x="1130" y="0" type="line"/>
      <point x="1229" y="0" type="line"/>
      <point x="1815" y="1446" type="line"/>
      <point x="1737" y="1446" type="line"/>
      <point x="1195" y="98" type="line"/>
      <point x="1035" y="1446" type="line"/>
      <point x="964" y="1446" type="line"/>
      <point x="422" y="98" type="line"/>
      <point x="271" y="1446" type="line"/>
      <point x="189" y="1446" type="line"/>
    </contour>
  </outline>
</glyph>
<glyph name="X" format="2">
  <advance width="1247"/>
  <unicode hex="0058"/>
  <guideline x="163" y="405" angle="90"/>
  <guideline x="613" y="345" angle="90"/>
  <guideline x="133" y="664" angle="0"/>
  <guideline x="128" y="29" angle="0"/>
  <guideline x="189" y="421" angle="0"/>
  <guideline x="187" y="269" angle="0"/>
  <guideline x="377" y="347" angle="236.602"/>
  <guideline x="426" y="347" angle="123.344"/>
  <guideline x="417" y="343" angle="56.5817"/>
  <guideline x="385" y="343" angle="123.4"/>
  <outline>
    <contour>
      <point x="42" y="0" type="line"/>
      <point x="134" y="0" type="line"/>
      <point x="644" y="664" type="line"/>
      <point x="966" y="0" type="line"/>
      <point x="1059" y="0" type="line"/>
      <point x="700" y="742" type="line"/>
      <point x="1238" y="1446" type="line"/>
      <point x="1146" y="1446" type="line"/>
      <point x="664" y="816" type="line"/>
      <point x="362" y="1446" type="line"/>
      <point x="267" y="1446" type="line"/>
      <point x="606" y="742" type="line"/>
    </contour>
  </outline>
</glyph>
<glyph name="Y" format="2">
  <advance width="1012"/>
  <unicode hex="0059"/>
  <anchor x="438" y="0" name="bottom"/>
  <anchor x="638" y="1450" name="top"/>
  <outline>
    <contour>
      <point x="402" y="0" type="line"/>
      <point x="473" y="0" type="line"/>
      <point x="561" y="622" type="line"/>
      <point x="1114" y="1446" type="line"/>
      <point x="1034" y="1446" type="line"/>
      <point x="536" y="702" type="line"/>
      <point x="240" y="1446" type="line"/>
      <point x="160" y="1446" type="line"/>
      <point x="488" y="624" type="line"/>
    </contour>
  </outline>
</glyph>
<glyph name="Z" format="2">
  <advance width="1134"/>
  <unicode hex="005A"/>
  <guideline x="495" y="659" angle="237.1304"/>
  <anchor x="534" y="0" name="bottom"/>
  <anchor x="724" y="1446" name="top"/>
  <outline>
    <contour>
      <point x="74" y="0" type="line"/>
      <point x="950" y="0" type="line"/>
      <point x="962" y="78" type="line"/>
      <point x="176" y="78" type="line"/>
      <point x="1146" y="1386" type="line"/>
      <point x="1154" y="1446" type="line"/>
      <point x="294" y="1446" type="line"/>
      <point x="284" y="1368" type="line"/>
      <point x="1048" y="1368" type="line"/>
      <point x="84" y="62" type="line"/>
    </contour>
  </outline>
</glyph>
<glyph name="bracketleft" format="2">
  <advance width="515"/>
  <unicode hex="005B"/>
  <outline>
    <contour>
      <point x="95" y="-322" type="line"/>
      <point x="355" y="-322" type="line"/>
      <point x="365" y="-250" type="line"/>
      <point x="179" y="-250" type="line"/>
      <point x="409" y="1374" type="line"/>
      <point x="595" y="1374" type="line"/>
      <point x="605" y="1446" type="line"/>
      <point x="341" y="1446" type="line"/>
    </contour>
  </outline>
</glyph>
<glyph name="backslash" format="2">
  <advance width="592"/>
  <unicode hex="005C"/>
  <outline>
    <contour>
      <point x="395" y="-118" type="line"/>
      <point x="473" y="-118" type="line"/>
      <point x="237" y="1446" type="line"/>
      <point x="161" y="1446" type="line"/>
    </contour>
  </outline>
</glyph>
<glyph name="bracketright" format="2">
  <advance width="514"/>
  <unicode hex="005D"/>
  <outline>
    <contour>
      <point x="-78" y="-322" type="line"/>
      <point x="186" y="-322" type="line"/>
      <point x="432" y="1446" type="line"/>
      <point x="172" y="1446" type="line"/>
      <point x="162" y="1374" type="line"/>
      <point x="348" y="1374" type="line"/>
      <point x="118" y="-250" type="line"/>
      <point x="-68" y="-250" type="line"/>
    </contour>
  </outline>
</glyph>
<glyph name="asciicircum" format="2">
  <advance width="867"/>
  <unicode hex="005E"/>
  <outline>
    <contour>
      <point x="76" y="272" type="line"/>
      <point x="158" y="272" type="line"/>
      <point x="490" y="926" type="line"/>
      <point x="634" y="268" type="line"/>
      <point x="722" y="268" type="line"/>
      <point x="558" y="982" type="line" smooth="yes"/>
      <point x="536" y="1080"/>
      <point x="480" y="1072"/>
      <point x="436" y="982" type="curve" smooth="yes"/>
    </contour>
  </outline>
</glyph>
<glyph name="underscore" format="2">
  <advance width="909"/>
  <unicode hex="005F"/>
  <outline>
    <contour>
      <point x="30" y="-198" type="line"/>
      <point x="678" y="-196" type="line"/>
      <point x="690" y="-118" type="line"/>
      <point x="42" y="-120" type="line"/>
    </contour>
  </outline>
</glyph>
<glyph name="a" format="2">
  <advance width="1016"/>
  <unicode hex="0061"/>
  <anchor x="442" y="0" name="bottom"/>
  <anchor x="776" y="28" name="ogonek"/>
  <anchor x="585" y="1034" name="top"/>
  <outline>
    <contour>
      <point x="352" y="-20" type="curve" smooth="yes"/>
      <point x="491" y="-20"/>
      <point x="633" y="28"/>
      <point x="741" y="200" type="curve"/>
      <point x="717" y="0" type="line"/>
      <point x="783" y="0" type="line"/>
      <point x="883" y="716" type="line" smooth="yes"/>
      <point x="913" y="926"/>
      <point x="789" y="1054"/>
      <point x="587" y="1054" type="curve" smooth="yes"/>
      <point x="365" y="1054"/>
      <point x="224" y="904"/>
      <point x="194" y="758" type="curve"/>
      <point x="272" y="758" type="line"/>
      <point x="312" y="900"/>
      <point x="436" y="978"/>
      <point x="573" y="978" type="curve" smooth="yes"/>
      <point x="736" y="978"/>
      <point x="835" y="880"/>
      <point x="812" y="714" type="curve" smooth="yes"/>
      <point x="797" y="614" type="line"/>
      <point x="577" y="606" type="line" smooth="yes"/>
      <point x="259" y="594"/>
      <point x="117" y="496"/>
      <point x="85" y="264" type="curve" smooth="yes"/>
      <point x="62" y="88"/>
      <point x="163" y="-20"/>
    </contour>
    <contour>
      <point x="373" y="54" type="curve" smooth="yes"/>
      <point x="228" y="54"/>
      <point x="144" y="134"/>
      <point x="161" y="270" type="curve" smooth="yes"/>
      <point x="188" y="450"/>
      <point x="297" y="526"/>
      <point x="602" y="532" type="curve" smooth="yes"/>
      <point x="785" y="536" type="line"/>
      <point x="757" y="334" type="line" smooth="yes"/>
      <point x="737" y="194"/>
      <point x="531" y="54"/>
    </contour>
  </outline>
</glyph>
<glyph name="b" format="2">
  <advance width="1115"/>
  <unicode hex="0062"/>
  <outline>
    <contour>
      <point x="534" y="-20" type="curve" smooth="yes"/>
      <point x="806" y="-20"/>
      <point x="963" y="196"/>
      <point x="1005" y="520" type="curve" smooth="yes"/>
      <point x="1052" y="883"/>
      <point x="914" y="1054"/>
      <point x="674" y="1054" type="curve" smooth="yes"/>
      <point x="445" y="1054"/>
      <point x="330" y="893"/>
      <point x="307" y="846" type="curve"/>
      <point x="390" y="1486" type="line"/>
      <point x="316" y="1486" type="line"/>
      <point x="123" y="0" type="line"/>
      <point x="189" y="0" type="line"/>
      <point x="222" y="212" type="line"/>
      <point x="230" y="164"/>
      <point x="274" y="-20"/>
    </contour>
    <contour>
      <point x="542" y="54" type="curve" smooth="yes"/>
      <point x="291" y="54"/>
      <point x="223" y="200"/>
      <point x="266" y="533" type="curve" smooth="yes"/>
      <point x="305" y="805"/>
      <point x="411" y="978"/>
      <point x="656" y="978" type="curve" smooth="yes"/>
      <point x="880" y="978"/>
      <point x="962" y="800"/>
      <point x="927" y="533" type="curve" smooth="yes"/>
      <point x="885" y="207"/>
      <point x="735" y="54"/>
    </contour>
  </outline>
</glyph>
<glyph name="c" format="2">
  <advance width="1017"/>
  <unicode hex="0063"/>
  <anchor x="464" y="0" name="bottom"/>
  <anchor x="599" y="1034" name="top"/>
  <outline>
    <contour>
      <point x="453" y="-20" type="curve" smooth="yes"/>
      <point x="626" y="-20"/>
      <point x="796" y="75"/>
      <point x="862" y="276" type="curve"/>
      <point x="783" y="276" type="line"/>
      <point x="742" y="140"/>
      <point x="616" y="54"/>
      <point x="464" y="54" type="curve" smooth="yes"/>
      <point x="233" y="54"/>
      <point x="148" y="239"/>
      <point x="187" y="514" type="curve" smooth="yes"/>
      <point x="231" y="830"/>
      <point x="393" y="978"/>
      <point x="594" y="978" type="curve" smooth="yes"/>
      <point x="746" y="978"/>
      <point x="847" y="892"/>
      <point x="850" y="756" type="curve"/>
      <point x="929" y="756" type="line"/>
      <point x="919" y="957"/>
      <point x="777" y="1054"/>
      <point x="604" y="1054" type="curve" smooth="yes"/>
      <point x="320" y="1054"/>
      <point x="155" y="837"/>
      <point x="110" y="514" type="curve" smooth="yes"/>
      <point x="59" y="150"/>
      <point x="203" y="-20"/>
    </contour>
  </outline>
</glyph>
<glyph name="d" format="2">
  <advance width="1110"/>
  <unicode hex="0064"/>
  <anchor x="449" y="0" name="bottom"/>
  <anchor x="1027" y="1486" name="caron"/>
  <anchor x="544" y="516" name="center"/>
  <outline>
    <contour>
      <point x="441" y="-20" type="curve" smooth="yes"/>
      <point x="701" y="-20"/>
      <point x="793" y="164"/>
      <point x="813" y="212" type="curve"/>
      <point x="791" y="0" type="line"/>
      <point x="857" y="0" type="line"/>
      <point x="1051" y="1486" type="line"/>
      <point x="977" y="1486" type="line"/>
      <point x="893" y="846" type="line"/>
      <point x="883" y="893"/>
      <point x="809" y="1054"/>
      <point x="581" y="1054" type="curve" smooth="yes"/>
      <point x="309" y="1054"/>
      <point x="152" y="840"/>
      <point x="110" y="520" type="curve" smooth="yes"/>
      <point x="63" y="153"/>
      <point x="200" y="-20"/>
    </contour>
    <contour>
      <point x="452" y="54" type="curve" smooth="yes"/>
      <point x="233" y="54"/>
      <point x="154" y="246"/>
      <point x="192" y="533" type="curve" smooth="yes"/>
      <point x="231" y="836"/>
      <point x="381" y="978"/>
      <point x="578" y="978" type="curve" smooth="yes"/>
      <point x="824" y="978"/>
      <point x="884" y="805"/>
      <point x="853" y="533" type="curve" smooth="yes"/>
      <point x="809" y="200"/>
      <point x="703" y="54"/>
    </contour>
  </outline>
</glyph>
<glyph name="e" format="2">
  <advance width="1050"/>
  <unicode hex="0065"/>
  <anchor x="471" y="0" name="bottom"/>
  <anchor x="643" y="36" name="ogonek"/>
  <anchor x="609" y="1034" name="top"/>
  <outline>
    <contour>
      <point x="471" y="-20" type="curve" smooth="yes"/>
      <point x="643" y="-20"/>
      <point x="817" y="75"/>
      <point x="883" y="276" type="curve"/>
      <point x="805" y="276" type="line"/>
      <point x="763" y="140"/>
      <point x="634" y="56"/>
      <point x="482" y="56" type="curve" smooth="yes"/>
      <point x="239" y="56"/>
      <point x="164" y="264"/>
      <point x="197" y="498" type="curve"/>
      <point x="926" y="498" type="line"/>
      <point x="933" y="554" type="line"/>
      <point x="978" y="872"/>
      <point x="858" y="1054"/>
      <point x="611" y="1054" type="curve" smooth="yes"/>
      <point x="347" y="1054"/>
      <point x="168" y="850"/>
      <point x="120" y="508" type="curve" smooth="yes"/>
      <point x="72" y="170"/>
      <point x="219" y="-20"/>
    </contour>
    <contour>
      <point x="209" y="574" type="line"/>
      <point x="235" y="768"/>
      <point x="363" y="978"/>
      <point x="599" y="978" type="curve" smooth="yes"/>
      <point x="815" y="978"/>
      <point x="892" y="804"/>
      <point x="859" y="574" type="curve"/>
    </contour>
  </outline>
</glyph>
<glyph name="f" format="2">
  <advance width="743"/>
  <unicode hex="0066"/>
  <outline>
    <contour>
      <point x="250" y="0" type="line"/>
      <point x="321" y="0" type="line"/>
      <point x="456" y="966" type="line"/>
      <point x="717" y="966" type="line"/>
      <point x="727" y="1034" type="line"/>
      <point x="465" y="1034" type="line"/>
      <point x="491" y="1222" type="line" smooth="yes"/>
      <point x="505" y="1322"/>
      <point x="538" y="1378"/>
      <point x="628" y="1378" type="curve" smooth="yes"/>
      <point x="785" y="1378" type="line"/>
      <point x="794" y="1446" type="line"/>
      <point x="655" y="1446" type="line" smooth="yes"/>
      <point x="511" y="1446"/>
      <point x="441" y="1366"/>
      <point x="418" y="1206" type="curve" smooth="yes"/>
      <point x="393" y="1034" type="line"/>
      <point x="168" y="1034" type="line"/>
      <point x="157" y="966" type="line"/>
      <point x="385" y="966" type="line"/>
    </contour>
  </outline>
</glyph>
<glyph name="g" format="2">
  <advance width="1148"/>
  <unicode hex="0067"/>
  <anchor x="583" y="1034" name="top"/>
  <outline>
    <contour>
      <point x="423" y="-342" type="curve" smooth="yes"/>
      <point x="717" y="-342"/>
      <point x="870" y="-220"/>
      <point x="894" y="-38" type="curve" smooth="yes"/>
      <point x="916" y="130"/>
      <point x="816" y="216"/>
      <point x="651" y="226" type="curve" smooth="yes"/>
      <point x="561" y="232"/>
      <point x="491" y="236"/>
      <point x="436" y="240" type="curve" smooth="yes"/>
      <point x="284" y="252"/>
      <point x="241" y="268"/>
      <point x="247" y="312" type="curve" smooth="yes"/>
      <point x="253" y="356"/>
      <point x="316" y="404"/>
      <point x="508" y="408" type="curve" smooth="yes"/>
      <point x="515" y="408"/>
      <point x="521" y="408"/>
      <point x="528" y="408" type="curve" smooth="yes"/>
      <point x="776" y="408"/>
      <point x="909" y="533"/>
      <point x="934" y="720" type="curve" smooth="yes"/>
      <point x="941" y="780"/>
      <point x="933" y="842"/>
      <point x="913" y="892" type="curve"/>
      <point x="1089" y="932" type="line"/>
      <point x="1104" y="1048" type="line"/>
      <point x="1079" y="1038"/>
      <point x="910" y="964"/>
      <point x="884" y="952" type="curve"/>
      <point x="819" y="1018"/>
      <point x="743" y="1050"/>
      <point x="625" y="1050" type="curve" smooth="yes"/>
      <point x="366" y="1050"/>
      <point x="228" y="918"/>
      <point x="202" y="720" type="curve" smooth="yes"/>
      <point x="186" y="597"/>
      <point x="239" y="502"/>
      <point x="331" y="444" type="curve"/>
      <point x="234" y="414"/>
      <point x="178" y="366"/>
      <point x="171" y="310" type="curve" smooth="yes"/>
      <point x="163" y="248"/>
      <point x="204" y="226"/>
      <point x="236" y="202" type="curve"/>
      <point x="205" y="176"/>
      <point x="48" y="104"/>
      <point x="28" y="-52" type="curve" smooth="yes"/>
      <point x="2" y="-249"/>
      <point x="163" y="-342"/>
    </contour>
    <contour>
      <point x="449" y="-268" type="curve" smooth="yes"/>
      <point x="195" y="-268"/>
      <point x="87" y="-178"/>
      <point x="104" y="-44" type="curve" smooth="yes"/>
      <point x="121" y="84"/>
      <point x="266" y="172"/>
      <point x="323" y="168" type="curve" smooth="yes"/>
      <point x="638" y="146" type="line" smooth="yes"/>
      <point x="776" y="137"/>
      <point x="831" y="64"/>
      <point x="818" y="-38" type="curve" smooth="yes"/>
      <point x="798" y="-194"/>
      <point x="653" y="-268"/>
    </contour>
    <contour>
      <point x="540" y="482" type="curve" smooth="yes"/>
      <point x="349" y="482"/>
      <point x="254" y="566"/>
      <point x="275" y="724" type="curve" smooth="yes"/>
      <point x="297" y="895"/>
      <point x="426" y="976"/>
      <point x="604" y="976" type="curve" smooth="yes"/>
      <point x="778" y="976"/>
      <point x="884" y="896"/>
      <point x="862" y="724" type="curve" smooth="yes"/>
      <point x="840" y="559"/>
      <point x="714" y="482"/>
    </contour>
  </outline>
</glyph>
<glyph name="h" format="2">
  <advance width="1080"/>
  <unicode hex="0068"/>
  <anchor x="501" y="0" name="bottom"/>
  <anchor x="364" y="1446" name="top"/>
  <outline>
    <contour>
      <point x="123" y="0" type="line"/>
      <point x="195" y="0" type="line"/>
      <point x="289" y="720" type="line"/>
      <point x="311" y="896"/>
      <point x="468" y="978"/>
      <point x="638" y="978" type="curve" smooth="yes"/>
      <point x="801" y="978"/>
      <point x="890" y="888"/>
      <point x="870" y="736" type="curve" smooth="yes"/>
      <point x="774" y="0" type="line"/>
      <point x="847" y="0" type="line"/>
      <point x="946" y="766" type="line" smooth="yes"/>
      <point x="969" y="936"/>
      <point x="840" y="1054"/>
      <point x="650" y="1054" type="curve" smooth="yes"/>
      <point x="494" y="1054"/>
      <point x="367" y="978"/>
      <point x="304" y="880" type="curve"/>
      <point x="383" y="1486" type="line"/>
      <point x="316" y="1486" type="line"/>
    </contour>
  </outline>
</glyph>
<glyph name="i" format="2">
  <advance width="449"/>
  <unicode hex="0069"/>
  <anchor x="153" y="0" name="bottom"/>
  <anchor x="169" y="26" name="ogonek"/>
  <outline>
    <contour>
      <point x="115" y="0" type="line"/>
      <point x="189" y="0" type="line"/>
      <point x="334" y="1034" type="line"/>
      <point x="261" y="1034" type="line"/>
    </contour>
    <contour>
      <point x="295" y="1326" type="line"/>
      <point x="383" y="1326" type="line"/>
      <point x="399" y="1446" type="line"/>
      <point x="311" y="1446" type="line"/>
    </contour>
  </outline>
</glyph>
<glyph name="j" format="2">
  <advance width="448"/>
  <unicode hex="006A"/>
  <outline>
    <contour>
      <point x="-63" y="-332" type="curve" smooth="yes"/>
      <point x="101" y="-332"/>
      <point x="148" y="-260"/>
      <point x="171" y="-100" type="curve" smooth="yes"/>
      <point x="331" y="1034" type="line"/>
      <point x="259" y="1034" type="line"/>
      <point x="101" y="-90" type="line" smooth="yes"/>
      <point x="84" y="-214"/>
      <point x="41" y="-258"/>
      <point x="-54" y="-260" type="curve" smooth="yes"/>
      <point x="-169" y="-262" type="line"/>
      <point x="-177" y="-314" type="line" smooth="yes"/>
      <point x="-177" y="-314"/>
      <point x="-171" y="-332"/>
    </contour>
    <contour>
      <point x="294" y="1325" type="line"/>
      <point x="382" y="1325" type="line"/>
      <point x="398" y="1445" type="line"/>
      <point x="310" y="1445" type="line"/>
    </contour>
  </outline>
</glyph>
<glyph name="k" format="2">
  <advance width="1022"/>
  <unicode hex="006B"/>
  <anchor x="433" y="0" name="bottom"/>
  <outline>
    <contour>
      <point x="107" y="0" type="line"/>
      <point x="180" y="0" type="line"/>
      <point x="223" y="316" type="line"/>
      <point x="514" y="592" type="line"/>
      <point x="767" y="0" type="line"/>
      <point x="859" y="0" type="line"/>
      <point x="578" y="658" type="line"/>
      <point x="972" y="1034" type="line"/>
      <point x="870" y="1034" type="line"/>
      <point x="240" y="428" type="line"/>
      <point x="388" y="1486" type="line"/>
      <point x="317" y="1486" type="line"/>
    </contour>
  </outline>
</glyph>
<glyph name="l" format="2">
  <advance width="536"/>
  <unicode hex="006C"/>
  <anchor x="182" y="2" name="bottom"/>
  <anchor x="390" y="1486" name="caron"/>
  <anchor x="351" y="1524" name="top"/>
  <outline>
    <contour>
      <point x="283" y="-8" type="curve" smooth="yes"/>
      <point x="295" y="-8"/>
      <point x="321" y="-6"/>
      <point x="346" y="0" type="curve"/>
      <point x="353" y="58" type="line"/>
      <point x="295" y="58" type="line"/>
      <point x="243" y="58"/>
      <point x="195" y="108"/>
      <point x="213" y="242" type="curve"/>
      <point x="390" y="1486" type="line"/>
      <point x="317" y="1486" type="line"/>
      <point x="141" y="242" type="line"/>
      <point x="121" y="100"/>
      <point x="157" y="-8"/>
    </contour>
  </outline>
</glyph>
<glyph name="m" format="2">
  <advance width="1562"/>
  <unicode hex="006D"/>
  <outline>
    <contour>
      <point x="108" y="0" type="line"/>
      <point x="179" y="0" type="line"/>
      <point x="281" y="720" type="line" smooth="yes"/>
      <point x="307" y="906"/>
      <point x="465" y="978"/>
      <point x="585" y="978" type="curve" smooth="yes"/>
      <point x="690" y="978"/>
      <point x="808" y="904"/>
      <point x="787" y="752" type="curve" smooth="yes"/>
      <point x="683" y="0" type="line"/>
      <point x="753" y="0" type="line"/>
      <point x="854" y="720" type="line" smooth="yes"/>
      <point x="883" y="924"/>
      <point x="1049" y="978"/>
      <point x="1159" y="978" type="curve" smooth="yes"/>
      <point x="1283" y="978"/>
      <point x="1387" y="920"/>
      <point x="1352" y="670" type="curve" smooth="yes"/>
      <point x="1259" y="0" type="line"/>
      <point x="1329" y="0" type="line"/>
      <point x="1423" y="670" type="line" smooth="yes"/>
      <point x="1471" y="1002"/>
      <point x="1297" y="1054"/>
      <point x="1169" y="1054" type="curve" smooth="yes"/>
      <point x="1041" y="1054"/>
      <point x="927" y="990"/>
      <point x="852" y="882" type="curve"/>
      <point x="827" y="994"/>
      <point x="707" y="1054"/>
      <point x="597" y="1054" type="curve" smooth="yes"/>
      <point x="449" y="1054"/>
      <point x="356" y="972"/>
      <point x="297" y="880" type="curve"/>
      <point x="318" y="1034" type="line"/>
      <point x="253" y="1034" type="line"/>
    </contour>
  </outline>
</glyph>
<glyph name="n" format="2">
  <advance width="1060"/>
  <unicode hex="006E"/>
  <anchor x="471" y="0" name="bottom"/>
  <anchor x="633" y="1034" name="top"/>
  <outline>
    <contour>
      <point x="108" y="0" type="line"/>
      <point x="179" y="0" type="line"/>
      <point x="281" y="720" type="line" smooth="yes"/>
      <point x="305" y="896"/>
      <point x="463" y="978"/>
      <point x="633" y="978" type="curve" smooth="yes"/>
      <point x="793" y="978"/>
      <point x="879" y="870"/>
      <point x="850" y="670" type="curve" smooth="yes"/>
      <point x="755" y="0" type="line"/>
      <point x="827" y="0" type="line"/>
      <point x="921" y="670" type="line" smooth="yes"/>
      <point x="959" y="934"/>
      <point x="833" y="1054"/>
      <point x="642" y="1054" type="curve" smooth="yes"/>
      <point x="488" y="1054"/>
      <point x="360" y="978"/>
      <point x="299" y="880" type="curve"/>
      <point x="318" y="1034" type="line"/>
      <point x="253" y="1034" type="line"/>
    </contour>
  </outline>
</glyph>
<glyph name="o" format="2">
  <advance width="1044"/>
  <unicode hex="006F"/>
  <anchor x="426" y="0" name="bottom"/>
  <anchor x="842" y="714" name="horn"/>
  <anchor x="531" y="20" name="ogonek"/>
  <anchor x="561" y="1034" name="top"/>
  <outline>
    <contour>
      <point x="455" y="-20" type="curve" smooth="yes"/>
      <point x="734" y="-20"/>
      <point x="892" y="194"/>
      <point x="934" y="514" type="curve" smooth="yes"/>
      <point x="981" y="881"/>
      <point x="840" y="1054"/>
      <point x="595" y="1054" type="curve" smooth="yes"/>
      <point x="312" y="1054"/>
      <point x="152" y="838"/>
      <point x="110" y="514" type="curve" smooth="yes"/>
      <point x="62" y="151"/>
      <point x="206" y="-20"/>
    </contour>
    <contour>
      <point x="465" y="54" type="curve" smooth="yes"/>
      <point x="234" y="54"/>
      <point x="150" y="238"/>
      <point x="186" y="514" type="curve" smooth="yes"/>
      <point x="227" y="830"/>
      <point x="381" y="978"/>
      <point x="585" y="978" type="curve" smooth="yes"/>
      <point x="812" y="978"/>
      <point x="895" y="792"/>
      <point x="859" y="514" type="curve" smooth="yes"/>
      <point x="818" y="201"/>
      <point x="665" y="54"/>
    </contour>
  </outline>
</glyph>
<glyph name="p" format="2">
  <advance width="1108"/>
  <unicode hex="0070"/>
  <outline>
    <contour>
      <point x="77" y="-322" type="line"/>
      <point x="151" y="-322" type="line"/>
      <point x="221" y="219" type="line"/>
      <point x="240" y="140"/>
      <point x="301" y="-20"/>
      <point x="521" y="-20" type="curve" smooth="yes"/>
      <point x="798" y="-20"/>
      <point x="958" y="202"/>
      <point x="1001" y="536" type="curve" smooth="yes"/>
      <point x="1047" y="888"/>
      <point x="906" y="1054"/>
      <point x="661" y="1054" type="curve" smooth="yes"/>
      <point x="441" y="1054"/>
      <point x="337" y="896"/>
      <point x="300" y="822" type="curve"/>
      <point x="323" y="1034" type="line"/>
      <point x="253" y="1034" type="line"/>
    </contour>
    <contour>
      <point x="531" y="54" type="curve" smooth="yes"/>
      <point x="314" y="54"/>
      <point x="223" y="254"/>
      <point x="259" y="528" type="curve" smooth="yes"/>
      <point x="294" y="802"/>
      <point x="435" y="978"/>
      <point x="651" y="978" type="curve" smooth="yes"/>
      <point x="875" y="978"/>
      <point x="958" y="798"/>
      <point x="922" y="528" type="curve" smooth="yes"/>
      <point x="881" y="206"/>
      <point x="729" y="54"/>
    </contour>
  </outline>
</glyph>
<glyph name="q" format="2">
  <advance width="1112"/>
  <unicode hex="0071"/>
  <outline>
    <contour>
      <point x="740" y="-322" type="line"/>
      <point x="814" y="-322" type="line"/>
      <point x="990" y="1034" type="line"/>
      <point x="920" y="1034" type="line"/>
      <point x="889" y="822" type="line"/>
      <point x="871" y="896"/>
      <point x="808" y="1054"/>
      <point x="587" y="1054" type="curve" smooth="yes"/>
      <point x="311" y="1054"/>
      <point x="153" y="847"/>
      <point x="113" y="536" type="curve" smooth="yes"/>
      <point x="63" y="158"/>
      <point x="203" y="-20"/>
      <point x="448" y="-20" type="curve" smooth="yes"/>
      <point x="668" y="-20"/>
      <point x="771" y="140"/>
      <point x="810" y="219" type="curve"/>
    </contour>
    <contour>
      <point x="457" y="54" type="curve" smooth="yes"/>
      <point x="233" y="54"/>
      <point x="152" y="244"/>
      <point x="189" y="528" type="curve" smooth="yes"/>
      <point x="229" y="834"/>
      <point x="379" y="978"/>
      <point x="578" y="978" type="curve" smooth="yes"/>
      <point x="794" y="978"/>
      <point x="889" y="802"/>
      <point x="853" y="528" type="curve" smooth="yes"/>
      <point x="818" y="254"/>
      <point x="674" y="54"/>
    </contour>
  </outline>
</glyph>
<glyph name="r" format="2">
  <advance width="705"/>
  <unicode hex="0072"/>
  <anchor x="133" y="0" name="bottom"/>
  <anchor x="399" y="1034" name="top"/>
  <outline>
    <contour>
      <point x="107" y="0" type="line"/>
      <point x="180" y="0" type="line"/>
      <point x="281" y="720" type="line" smooth="yes"/>
      <point x="310" y="926"/>
      <point x="483" y="972"/>
      <point x="574" y="972" type="curve"/>
      <point x="601" y="972"/>
      <point x="652" y="967"/>
      <point x="676" y="954" type="curve"/>
      <point x="687" y="1034" type="line"/>
      <point x="665" y="1048"/>
      <point x="624" y="1054"/>
      <point x="586" y="1054" type="curve"/>
      <point x="494" y="1054"/>
      <point x="367" y="1020"/>
      <point x="298" y="880" type="curve"/>
      <point x="319" y="1034" type="line"/>
      <point x="253" y="1034" type="line"/>
    </contour>
  </outline>
</glyph>
<glyph name="s" format="2">
  <advance width="917"/>
  <unicode hex="0073"/>
  <anchor x="409" y="0" name="bottom"/>
  <anchor x="548" y="1034" name="top"/>
  <outline>
    <contour>
      <point x="404" y="-20" type="curve" smooth="yes"/>
      <point x="631" y="-20"/>
      <point x="754" y="96"/>
      <point x="778" y="270" type="curve" smooth="yes"/>
      <point x="794" y="380"/>
      <point x="757" y="481"/>
      <point x="623" y="523" type="curve" smooth="yes"/>
      <point x="405" y="591" type="line" smooth="yes"/>
      <point x="302" y="623"/>
      <point x="246" y="670"/>
      <point x="259" y="764" type="curve" smooth="yes"/>
      <point x="279" y="910"/>
      <point x="390" y="978"/>
      <point x="541" y="978" type="curve" smooth="yes"/>
      <point x="686" y="978"/>
      <point x="753" y="899"/>
      <point x="749" y="780" type="curve"/>
      <point x="826" y="780" type="line"/>
      <point x="843" y="966"/>
      <point x="731" y="1054"/>
      <point x="551" y="1054" type="curve" smooth="yes"/>
      <point x="328" y="1054"/>
      <point x="207" y="938"/>
      <point x="183" y="764" type="curve" smooth="yes"/>
      <point x="164" y="626"/>
      <point x="241" y="555"/>
      <point x="374" y="513" type="curve" smooth="yes"/>
      <point x="593" y="445" type="line" smooth="yes"/>
      <point x="677" y="418"/>
      <point x="715" y="362"/>
      <point x="702" y="266" type="curve" smooth="yes"/>
      <point x="682" y="123"/>
      <point x="570" y="56"/>
      <point x="415" y="56" type="curve" smooth="yes"/>
      <point x="245" y="56"/>
      <point x="162" y="144"/>
      <point x="156" y="276" type="curve"/>
      <point x="79" y="276" type="line"/>
      <point x="72" y="75"/>
      <point x="203" y="-20"/>
    </contour>
  </outline>
</glyph>
<glyph name="t" format="2">
  <advance width="689"/>
  <unicode hex="0074"/>
  <anchor x="350" y="0" name="bottom"/>
  <anchor x="500" y="1486" name="caron"/>
  <anchor x="382" y="620" name="center"/>
  <outline>
    <contour>
      <point x="396" y="0" type="curve" smooth="yes"/>
      <point x="442" y="0"/>
      <point x="489" y="2"/>
      <point x="512" y="10" type="curve"/>
      <point x="522" y="78" type="line"/>
      <point x="442" y="78" type="line" smooth="yes"/>
      <point x="331" y="78"/>
      <point x="296" y="98"/>
      <point x="316" y="242" type="curve" smooth="yes"/>
      <point x="418" y="966" type="line"/>
      <point x="638" y="966" type="line"/>
      <point x="648" y="1034" type="line"/>
      <point x="428" y="1034" type="line"/>
      <point x="468" y="1324" type="line"/>
      <point x="413" y="1324" type="line"/>
      <point x="352" y="1034" type="line"/>
      <point x="199" y="1034" type="line"/>
      <point x="188" y="966" type="line"/>
      <point x="344" y="966" type="line"/>
      <point x="241" y="232" type="line" smooth="yes"/>
      <point x="218" y="66"/>
      <point x="252" y="0"/>
    </contour>
  </outline>
</glyph>
<glyph name="u" format="2">
  <advance width="1074"/>
  <unicode hex="0075"/>
  <anchor x="456" y="0" name="bottom"/>
  <anchor x="874" y="856" name="horn"/>
  <anchor x="815" y="22" name="ogonek"/>
  <anchor x="601" y="1034" name="top"/>
  <outline>
    <contour>
      <point x="456" y="-20" type="curve" smooth="yes"/>
      <point x="614" y="-22"/>
      <point x="724" y="62"/>
      <point x="776" y="190" type="curve"/>
      <point x="755" y="0" type="line"/>
      <point x="821" y="0" type="line"/>
      <point x="967" y="1034" type="line"/>
      <point x="895" y="1034" type="line"/>
      <point x="800" y="362" type="line"/>
      <point x="771" y="154"/>
      <point x="639" y="56"/>
      <point x="462" y="56" type="curve" smooth="yes"/>
      <point x="262" y="56"/>
      <point x="184" y="172"/>
      <point x="209" y="346" type="curve" smooth="yes"/>
      <point x="306" y="1034" type="line"/>
      <point x="233" y="1034" type="line"/>
      <point x="137" y="346" type="line" smooth="yes"/>
      <point x="103" y="100"/>
      <point x="234" y="-17"/>
    </contour>
  </outline>
</glyph>
<glyph name="v" format="2">
  <advance width="911"/>
  <unicode hex="0076"/>
  <outline>
    <contour>
      <point x="326" y="0" type="line"/>
      <point x="441" y="0" type="line"/>
      <point x="916" y="1034" type="line"/>
      <point x="843" y="1034" type="line"/>
      <point x="405" y="88" type="line"/>
      <point x="381" y="88" type="line"/>
      <point x="219" y="1034" type="line"/>
      <point x="141" y="1034" type="line"/>
    </contour>
  </outline>
</glyph>
<glyph name="w" format="2">
  <advance width="1450"/>
  <unicode hex="0077"/>
  <anchor x="806" y="1034" name="top"/>
  <outline>
    <contour>
      <point x="292" y="0" type="line"/>
      <point x="418" y="0" type="line"/>
      <point x="780" y="900" type="line"/>
      <point x="910" y="0" type="line"/>
      <point x="1030" y="0" type="line"/>
      <point x="1438" y="1034" type="line"/>
      <point x="1364" y="1034" type="line"/>
      <point x="990" y="90" type="line"/>
      <point x="968" y="90" type="line"/>
      <point x="832" y="1034" type="line"/>
      <point x="766" y="1034" type="line"/>
      <point x="378" y="86" type="line"/>
      <point x="356" y="86" type="line"/>
      <point x="236" y="1034" type="line"/>
      <point x="158" y="1034" type="line"/>
    </contour>
  </outline>
</glyph>
<glyph name="x" format="2">
  <advance width="1010"/>
  <unicode hex="0078"/>
  <outline>
    <contour>
      <point x="17" y="0" type="line"/>
      <point x="106" y="0" type="line"/>
      <point x="496" y="474" type="line"/>
      <point x="756" y="0" type="line"/>
      <point x="847" y="0" type="line"/>
      <point x="553" y="536" type="line"/>
      <point x="962" y="1034" type="line"/>
      <point x="872" y="1034" type="line"/>
      <point x="515" y="598" type="line"/>
      <point x="278" y="1034" type="line"/>
      <point x="189" y="1034" type="line"/>
      <point x="458" y="536" type="line"/>
    </contour>
  </outline>
</glyph>
<glyph name="y" format="2">
  <advance width="944"/>
  <unicode hex="0079"/>
  <anchor x="551" y="1034" name="top"/>
  <outline>
    <contour>
      <point x="93" y="-330" type="curve" smooth="yes"/>
      <point x="207" y="-330"/>
      <point x="301" y="-280"/>
      <point x="367" y="-150" type="curve" smooth="yes"/>
      <point x="949" y="1034" type="line"/>
      <point x="879" y="1034" type="line"/>
      <point x="423" y="112" type="line"/>
      <point x="219" y="1034" type="line"/>
      <point x="141" y="1034" type="line"/>
      <point x="369" y="6" type="line"/>
      <point x="301" y="-132" type="line"/>
      <point x="265" y="-204"/>
      <point x="209" y="-260"/>
      <point x="91" y="-260" type="curve" smooth="yes"/>
      <point x="-11" y="-260" type="line"/>
      <point x="-19" y="-314" type="line" smooth="yes"/>
      <point x="-19" y="-314"/>
      <point x="1" y="-330"/>
    </contour>
  </outline>
</glyph>
<glyph name="z" format="2">
  <advance width="876"/>
  <unicode hex="007A"/>
  <anchor x="357" y="0" name="bottom"/>
  <anchor x="539" y="1034" name="top"/>
  <outline>
    <contour>
      <point x="19" y="0" type="line"/>
      <point x="713" y="0" type="line"/>
      <point x="723" y="68" type="line"/>
      <point x="110" y="68" type="line"/>
      <point x="843" y="966" type="line"/>
      <point x="852" y="1034" type="line"/>
      <point x="207" y="1034" type="line"/>
      <point x="197" y="966" type="line"/>
      <point x="762" y="966" type="line"/>
      <point x="27" y="68" type="line"/>
    </contour>
  </outline>
</glyph>
<glyph name="braceleft" format="2">
  <advance width="503"/>
  <unicode hex="007B"/>
  <outline>
    <contour>
      <point x="295" y="-322" type="curve" smooth="yes"/>
      <point x="345" y="-322" type="line"/>
      <point x="355" y="-250" type="line"/>
      <point x="305" y="-250" type="line" smooth="yes"/>
      <point x="215" y="-250"/>
      <point x="195" y="-216"/>
      <point x="205" y="-142" type="curve" smooth="yes"/>
      <point x="269" y="316" type="line" smooth="yes"/>
      <point x="291" y="478"/>
      <point x="225" y="548"/>
      <point x="133" y="556" type="curve" smooth="yes"/>
      <point x="117" y="558"/>
      <point x="121" y="568"/>
      <point x="135" y="570" type="curve" smooth="yes"/>
      <point x="231" y="580"/>
      <point x="317" y="660"/>
      <point x="339" y="818" type="curve" smooth="yes"/>
      <point x="403" y="1272" type="line" smooth="yes"/>
      <point x="413" y="1344"/>
      <point x="449" y="1374"/>
      <point x="531" y="1374" type="curve" smooth="yes"/>
      <point x="583" y="1374" type="line"/>
      <point x="593" y="1446" type="line"/>
      <point x="543" y="1446" type="line" smooth="yes"/>
      <point x="409" y="1446"/>
      <point x="339" y="1372"/>
      <point x="325" y="1272" type="curve" smooth="yes"/>
      <point x="261" y="818" type="line" smooth="yes"/>
      <point x="243" y="700"/>
      <point x="163" y="602"/>
      <point x="23" y="600" type="curve"/>
      <point x="11" y="524" type="line"/>
      <point x="149" y="524"/>
      <point x="203" y="410"/>
      <point x="191" y="316" type="curve" smooth="yes"/>
      <point x="125" y="-142" type="line" smooth="yes"/>
      <point x="111" y="-242"/>
      <point x="153" y="-322"/>
    </contour>
  </outline>
</glyph>
<glyph name="bar" format="2">
  <advance width="510"/>
  <unicode hex="007C"/>
  <outline>
    <contour>
      <point x="104" y="-322" type="line"/>
      <point x="172" y="-322" type="line"/>
      <point x="450" y="1652" type="line"/>
      <point x="380" y="1652" type="line"/>
    </contour>
  </outline>
</glyph>
<glyph name="braceright" format="2">
  <advance width="521"/>
  <unicode hex="007D"/>
  <outline>
    <contour>
      <point x="-69" y="-322" type="line"/>
      <point x="-19" y="-322" type="line" smooth="yes"/>
      <point x="115" y="-322"/>
      <point x="185" y="-248"/>
      <point x="199" y="-148" type="curve" smooth="yes"/>
      <point x="263" y="306" type="line" smooth="yes"/>
      <point x="281" y="424"/>
      <point x="361" y="522"/>
      <point x="501" y="524" type="curve"/>
      <point x="513" y="600" type="line"/>
      <point x="375" y="600"/>
      <point x="321" y="714"/>
      <point x="333" y="808" type="curve" smooth="yes"/>
      <point x="399" y="1266" type="line" smooth="yes"/>
      <point x="413" y="1366"/>
      <point x="371" y="1446"/>
      <point x="229" y="1446" type="curve" smooth="yes"/>
      <point x="179" y="1446" type="line"/>
      <point x="169" y="1374" type="line"/>
      <point x="219" y="1374" type="line" smooth="yes"/>
      <point x="309" y="1374"/>
      <point x="329" y="1340"/>
      <point x="319" y="1266" type="curve" smooth="yes"/>
      <point x="255" y="808" type="line" smooth="yes"/>
      <point x="233" y="646"/>
      <point x="299" y="576"/>
      <point x="391" y="568" type="curve" smooth="yes"/>
      <point x="407" y="566"/>
      <point x="403" y="556"/>
      <point x="389" y="554" type="curve" smooth="yes"/>
      <point x="293" y="544"/>
      <point x="207" y="464"/>
      <point x="185" y="306" type="curve" smooth="yes"/>
      <point x="121" y="-148" type="line" smooth="yes"/>
      <point x="111" y="-220"/>
      <point x="75" y="-250"/>
      <point x="-7" y="-250" type="curve" smooth="yes"/>
      <point x="-59" y="-250" type="line"/>
    </contour>
  </outline>
</glyph>
<glyph name="asciitilde" format="2">
  <advance width="983"/>
  <unicode hex="007E"/>
  <outline>
    <contour>
      <point x="162" y="654" type="line"/>
      <point x="206" y="696"/>
      <point x="270" y="740"/>
      <point x="362" y="740" type="curve" smooth="yes"/>
      <point x="490" y="740"/>
      <point x="540" y="654"/>
      <point x="684" y="654" type="curve" smooth="yes"/>
      <point x="794" y="654"/>
      <point x="864" y="702"/>
      <point x="894" y="738" type="curve"/>
      <point x="880" y="806" type="line"/>
      <point x="842" y="768"/>
      <point x="792" y="724"/>
      <point x="696" y="724" type="curve" smooth="yes"/>
      <point x="568" y="724"/>
      <point x="496" y="812"/>
      <point x="368" y="812" type="curve" smooth="yes"/>
      <point x="266" y="812"/>
      <point x="202" y="764"/>
      <point x="148" y="718" type="curve"/>
    </contour>
  </outline>
</glyph>
<glyph name="exclamdown" format="2">
  <advance width="437"/>
  <unicode hex="00A1"/>
  <outline>
    <contour>
      <point x="65" y="-322" type="line"/>
      <point x="159" y="-322" type="line"/>
      <point x="279" y="744" type="line"/>
      <point x="221" y="744" type="line"/>
    </contour>
    <contour>
      <point x="213" y="880" type="line"/>
      <point x="323" y="880" type="line"/>
      <point x="343" y="1034" type="line"/>
      <point x="233" y="1034" type="line"/>
    </contour>
  </outline>
</glyph>
<glyph name="cent" format="2">
  <advance width="986"/>
  <unicode hex="00A2"/>
  <anchor x="490" y="222" name="bottom"/>
  <anchor x="625" y="1256" name="top"/>
  <outline>
    <contour>
      <point x="479" y="202" type="curve" smooth="yes"/>
      <point x="652" y="202"/>
      <point x="822" y="297"/>
      <point x="888" y="498" type="curve"/>
      <point x="809" y="498" type="line"/>
      <point x="768" y="362"/>
      <point x="642" y="276"/>
      <point x="490" y="276" type="curve" smooth="yes"/>
      <point x="259" y="276"/>
      <point x="174" y="461"/>
      <point x="213" y="736" type="curve" smooth="yes"/>
      <point x="257" y="1052"/>
      <point x="419" y="1200"/>
      <point x="620" y="1200" type="curve" smooth="yes"/>
      <point x="772" y="1200"/>
      <point x="873" y="1114"/>
      <point x="876" y="978" type="curve"/>
      <point x="955" y="978" type="line"/>
      <point x="945" y="1179"/>
      <point x="803" y="1276"/>
      <point x="630" y="1276" type="curve" smooth="yes"/>
      <point x="346" y="1276"/>
      <point x="181" y="1059"/>
      <point x="136" y="736" type="curve" smooth="yes"/>
      <point x="85" y="372"/>
      <point x="229" y="202"/>
    </contour>
    <contour>
      <point x="402" y="0" type="line"/>
      <point x="475" y="0" type="line"/>
      <point x="508" y="236" type="line"/>
      <point x="436" y="236" type="line"/>
    </contour>
    <contour>
      <point x="589" y="1210" type="line"/>
      <point x="661" y="1210" type="line"/>
      <point x="694" y="1446" type="line"/>
      <point x="622" y="1446" type="line"/>
    </contour>
  </outline>
</glyph>
<glyph name="sterling" format="2">
  <advance width="1075"/>
  <unicode hex="00A3"/>
  <outline>
    <contour>
      <point x="-52" y="0" type="line"/>
      <point x="560" y="0" type="line" smooth="yes"/>
      <point x="720" y="0"/>
      <point x="846" y="70"/>
      <point x="922" y="214" type="curve"/>
      <point x="860" y="244" type="line"/>
      <point x="798" y="120"/>
      <point x="704" y="78"/>
      <point x="572" y="78" type="curve" smooth="yes"/>
      <point x="180" y="78" type="line"/>
      <point x="214" y="114"/>
      <point x="308" y="224"/>
      <point x="340" y="452" type="curve" smooth="yes"/>
      <point x="350" y="530"/>
      <point x="352" y="602"/>
      <point x="348" y="700" type="curve"/>
      <point x="662" y="700" type="line"/>
      <point x="674" y="774" type="line"/>
      <point x="350" y="774" type="line"/>
      <point x="330" y="876"/>
      <point x="328" y="1010"/>
      <point x="340" y="1106" type="curve" smooth="yes"/>
      <point x="366" y="1282"/>
      <point x="508" y="1382"/>
      <point x="664" y="1382" type="curve" smooth="yes"/>
      <point x="798" y="1382"/>
      <point x="864" y="1330"/>
      <point x="896" y="1240" type="curve"/>
      <point x="968" y="1278" type="line"/>
      <point x="946" y="1370"/>
      <point x="824" y="1466"/>
      <point x="672" y="1466" type="curve" smooth="yes"/>
      <point x="444" y="1466"/>
      <point x="226" y="1254"/>
      <point x="258" y="922" type="curve" smooth="yes"/>
      <point x="274" y="772" type="line"/>
      <point x="98" y="772" type="line"/>
      <point x="88" y="698" type="line"/>
      <point x="272" y="698" type="line"/>
      <point x="274" y="576"/>
      <point x="268" y="490"/>
      <point x="258" y="418" type="curve" smooth="yes"/>
      <point x="224" y="182"/>
      <point x="128" y="76"/>
      <point x="34" y="76" type="curve" smooth="yes"/>
      <point x="-42" y="76" type="line"/>
    </contour>
  </outline>
</glyph>
<glyph name="currency" format="2">
  <advance width="942"/>
  <unicode hex="00A4"/>
  <outline>
    <contour>
      <point x="158" y="356" type="line"/>
      <point x="262" y="456" type="line" smooth="yes"/>
      <point x="270" y="466"/>
      <point x="278" y="464"/>
      <point x="284" y="458" type="curve" smooth="yes"/>
      <point x="328" y="420"/>
      <point x="386" y="398"/>
      <point x="452" y="398" type="curve" smooth="yes"/>
      <point x="522" y="398"/>
      <point x="590" y="426"/>
      <point x="650" y="470" type="curve"/>
      <point x="738" y="358" type="line"/>
      <point x="798" y="416" type="line"/>
      <point x="716" y="514" type="line" smooth="yes"/>
      <point x="708" y="524"/>
      <point x="712" y="532"/>
      <point x="718" y="542" type="curve" smooth="yes"/>
      <point x="760" y="592"/>
      <point x="788" y="658"/>
      <point x="798" y="728" type="curve" smooth="yes"/>
      <point x="808" y="802"/>
      <point x="794" y="872"/>
      <point x="764" y="928" type="curve"/>
      <point x="884" y="1042" type="line"/>
      <point x="842" y="1100" type="line"/>
      <point x="730" y="996" type="line" smooth="yes"/>
      <point x="722" y="988"/>
      <point x="716" y="988"/>
      <point x="706" y="994" type="curve" smooth="yes"/>
      <point x="664" y="1034"/>
      <point x="606" y="1054"/>
      <point x="544" y="1054" type="curve" smooth="yes"/>
      <point x="476" y="1054"/>
      <point x="404" y="1030"/>
      <point x="348" y="986" type="curve"/>
      <point x="266" y="1096" type="line"/>
      <point x="206" y="1040" type="line"/>
      <point x="280" y="942" type="line" smooth="yes"/>
      <point x="284" y="936"/>
      <point x="286" y="928"/>
      <point x="278" y="918" type="curve" smooth="yes"/>
      <point x="236" y="866"/>
      <point x="206" y="800"/>
      <point x="196" y="728" type="curve" smooth="yes"/>
      <point x="186" y="652"/>
      <point x="196" y="582"/>
      <point x="228" y="522" type="curve"/>
      <point x="116" y="418" type="line"/>
    </contour>
    <contour>
      <point x="468" y="484" type="curve" smooth="yes"/>
      <point x="338" y="484"/>
      <point x="260" y="598"/>
      <point x="278" y="728" type="curve" smooth="yes"/>
      <point x="296" y="856"/>
      <point x="408" y="972"/>
      <point x="536" y="972" type="curve" smooth="yes"/>
      <point x="664" y="972"/>
      <point x="742" y="856"/>
      <point x="724" y="728" type="curve" smooth="yes"/>
      <point x="706" y="598"/>
      <point x="594" y="484"/>
    </contour>
  </outline>
</glyph>
<glyph name="yen" format="2">
  <advance width="1042"/>
  <unicode hex="00A5"/>
  <outline>
    <contour>
      <point x="413" y="0" type="line"/>
      <point x="495" y="0" type="line"/>
      <point x="585" y="638" type="line"/>
      <point x="1143" y="1446" type="line"/>
      <point x="1061" y="1446" type="line"/>
      <point x="551" y="702" type="line"/>
      <point x="255" y="1446" type="line"/>
      <point x="161" y="1446" type="line"/>
      <point x="497" y="606" type="line"/>
    </contour>
    <contour>
      <point x="169" y="308" type="line"/>
      <point x="825" y="310" type="line"/>
      <point x="837" y="384" type="line"/>
      <point x="179" y="382" type="line"/>
    </contour>
    <contour>
      <point x="207" y="582" type="line"/>
      <point x="865" y="584" type="line"/>
      <point x="875" y="658" type="line"/>
      <point x="217" y="656" type="line"/>
    </contour>
  </outline>
</glyph>
<glyph name="brokenbar" format="2">
  <advance width="510"/>
  <unicode hex="00A6"/>
  <outline>
    <contour>
      <point x="270" y="864" type="line"/>
      <point x="338" y="864" type="line"/>
      <point x="450" y="1652" type="line"/>
      <point x="380" y="1652" type="line"/>
    </contour>
    <contour>
      <point x="104" y="-322" type="line"/>
      <point x="172" y="-322" type="line"/>
      <point x="282" y="466" type="line"/>
      <point x="214" y="466" type="line"/>
    </contour>
  </outline>
</glyph>
<glyph name="section" format="2">
  <advance width="876"/>
  <unicode hex="00A7"/>
  <outline>
    <contour>
      <point x="369" y="-132" type="curve" smooth="yes"/>
      <point x="561" y="-132"/>
      <point x="709" y="-22"/>
      <point x="731" y="124" type="curve" smooth="yes"/>
      <point x="745" y="234"/>
      <point x="689" y="312"/>
      <point x="587" y="380" type="curve"/>
      <point x="685" y="426"/>
      <point x="783" y="494"/>
      <point x="801" y="632" type="curve" smooth="yes"/>
      <point x="819" y="756"/>
      <point x="765" y="860"/>
      <point x="597" y="942" type="curve" smooth="yes"/>
      <point x="445" y="1014" type="line" smooth="yes"/>
      <point x="305" y="1080"/>
      <point x="283" y="1150"/>
      <point x="291" y="1218" type="curve" smooth="yes"/>
      <point x="307" y="1320"/>
      <point x="407" y="1388"/>
      <point x="565" y="1388" type="curve" smooth="yes"/>
      <point x="675" y="1388"/>
      <point x="751" y="1324"/>
      <point x="801" y="1236" type="curve"/>
      <point x="867" y="1278" type="line"/>
      <point x="817" y="1378"/>
      <point x="713" y="1466"/>
      <point x="567" y="1466" type="curve" smooth="yes"/>
      <point x="379" y="1466"/>
      <point x="235" y="1358"/>
      <point x="213" y="1214" type="curve" smooth="yes"/>
      <point x="201" y="1122"/>
      <point x="221" y="1036"/>
      <point x="375" y="946" type="curve"/>
      <point x="257" y="902"/>
      <point x="157" y="812"/>
      <point x="139" y="688" type="curve" smooth="yes"/>
      <point x="125" y="578"/>
      <point x="169" y="484"/>
      <point x="307" y="422" type="curve" smooth="yes"/>
      <point x="471" y="348" type="line" smooth="yes"/>
      <point x="627" y="276"/>
      <point x="663" y="204"/>
      <point x="651" y="124" type="curve" smooth="yes"/>
      <point x="635" y="10"/>
      <point x="523" y="-54"/>
      <point x="385" y="-54" type="curve" smooth="yes"/>
      <point x="247" y="-54"/>
      <point x="141" y="24"/>
      <point x="95" y="138" type="curve"/>
      <point x="31" y="98" type="line"/>
      <point x="79" y="-44"/>
      <point x="219" y="-132"/>
    </contour>
    <contour>
      <point x="487" y="432" type="curve"/>
      <point x="369" y="492" type="line" smooth="yes"/>
      <point x="233" y="558"/>
      <point x="207" y="610"/>
      <point x="219" y="694" type="curve" smooth="yes"/>
      <point x="233" y="794"/>
      <point x="351" y="892"/>
      <point x="469" y="902" type="curve"/>
      <point x="579" y="852" type="line" smooth="yes"/>
      <point x="715" y="788"/>
      <point x="733" y="720"/>
      <point x="719" y="620" type="curve" smooth="yes"/>
      <point x="705" y="514"/>
      <point x="593" y="424"/>
    </contour>
  </outline>
</glyph>
<glyph name="copyright" format="2">
  <advance width="1486"/>
  <unicode hex="00A9"/>
  <outline>
    <contour>
      <point x="669" y="-20" type="curve" smooth="yes"/>
      <point x="1043" y="-20"/>
      <point x="1397" y="310"/>
      <point x="1455" y="724" type="curve" smooth="yes"/>
      <point x="1513" y="1132"/>
      <point x="1253" y="1466"/>
      <point x="877" y="1466" type="curve" smooth="yes"/>
      <point x="499" y="1466"/>
      <point x="145" y="1132"/>
      <point x="89" y="724" type="curve" smooth="yes"/>
      <point x="31" y="310"/>
      <point x="289" y="-20"/>
    </contour>
    <contour>
      <point x="719" y="310" type="curve" smooth="yes"/>
      <point x="839" y="310"/>
      <point x="953" y="388"/>
      <point x="1039" y="512" type="curve"/>
      <point x="987" y="550" type="line"/>
      <point x="927" y="452"/>
      <point x="833" y="386"/>
      <point x="733" y="386" type="curve" smooth="yes"/>
      <point x="581" y="386"/>
      <point x="489" y="526"/>
      <point x="519" y="732" type="curve" smooth="yes"/>
      <point x="547" y="934"/>
      <point x="677" y="1074"/>
      <point x="831" y="1074" type="curve" smooth="yes"/>
      <point x="915" y="1074"/>
      <point x="981" y="1024"/>
      <point x="1025" y="922" type="curve"/>
      <point x="1097" y="964" type="line"/>
      <point x="1043" y="1070"/>
      <point x="965" y="1150"/>
      <point x="837" y="1150" type="curve" smooth="yes"/>
      <point x="637" y="1150"/>
      <point x="473" y="976"/>
      <point x="439" y="728" type="curve" smooth="yes"/>
      <point x="403" y="478"/>
      <point x="517" y="310"/>
    </contour>
    <contour>
      <point x="681" y="66" type="curve" smooth="yes"/>
      <point x="355" y="66"/>
      <point x="113" y="324"/>
      <point x="169" y="724" type="curve" smooth="yes"/>
      <point x="225" y="1118"/>
      <point x="539" y="1382"/>
      <point x="865" y="1382" type="curve" smooth="yes"/>
      <point x="1183" y="1382"/>
      <point x="1431" y="1118"/>
      <point x="1375" y="724" type="curve" smooth="yes"/>
      <point x="1319" y="324"/>
      <point x="997" y="66"/>
    </contour>
  </outline>
</glyph>
<glyph name="ordfeminine" format="2">
  <advance width="778"/>
  <unicode hex="00AA"/>
  <outline>
    <contour>
      <point x="360" y="790" type="curve" smooth="yes"/>
      <point x="444" y="790"/>
      <point x="513" y="824"/>
      <point x="588" y="902" type="curve"/>
      <point x="590" y="802" type="line"/>
      <point x="658" y="802" type="line"/>
      <point x="660" y="886" type="line"/>
      <point x="662" y="936"/>
      <point x="664" y="976"/>
      <point x="670" y="1016" type="curve" smooth="yes"/>
      <point x="676" y="1054"/>
      <point x="686" y="1132"/>
      <point x="702" y="1236" type="curve" smooth="yes"/>
      <point x="720" y="1374"/>
      <point x="652" y="1460"/>
      <point x="510" y="1460" type="curve" smooth="yes"/>
      <point x="398" y="1460"/>
      <point x="302" y="1406"/>
      <point x="246" y="1314" type="curve"/>
      <point x="300" y="1288" type="line"/>
      <point x="362" y="1370"/>
      <point x="416" y="1394"/>
      <point x="494" y="1394" type="curve" smooth="yes"/>
      <point x="600" y="1394"/>
      <point x="652" y="1346"/>
      <point x="638" y="1244" type="curve" smooth="yes"/>
      <point x="632" y="1194" type="line"/>
      <point x="498" y="1180" type="line" smooth="yes"/>
      <point x="308" y="1160"/>
      <point x="202" y="1092"/>
      <point x="184" y="968" type="curve" smooth="yes"/>
      <point x="168" y="856"/>
      <point x="234" y="790"/>
    </contour>
    <contour>
      <point x="382" y="852" type="curve" smooth="yes"/>
      <point x="296" y="852"/>
      <point x="244" y="898"/>
      <point x="254" y="970" type="curve" smooth="yes"/>
      <point x="266" y="1054"/>
      <point x="346" y="1108"/>
      <point x="513" y="1122" type="curve" smooth="yes"/>
      <point x="622" y="1132" type="line"/>
      <point x="606" y="1016" type="line" smooth="yes"/>
      <point x="602" y="980"/>
      <point x="576" y="948"/>
      <point x="536" y="914" type="curve" smooth="yes"/>
      <point x="488" y="872"/>
      <point x="440" y="852"/>
    </contour>
  </outline>
</glyph>
<glyph name="guillemetleft" format="2">
  <advance width="767"/>
  <unicode hex="00AB"/>
  <outline>
    <contour>
      <point x="572" y="152" type="line"/>
      <point x="622" y="152" type="line"/>
      <point x="454" y="502" type="line"/>
      <point x="726" y="868" type="line"/>
      <point x="674" y="868" type="line"/>
      <point x="358" y="502" type="line"/>
    </contour>
    <contour>
      <point x="272" y="152" type="line"/>
      <point x="322" y="152" type="line"/>
      <point x="154" y="502" type="line"/>
      <point x="426" y="868" type="line"/>
      <point x="374" y="868" type="line"/>
      <point x="58" y="502" type="line"/>
    </contour>
  </outline>
</glyph>
<glyph name="logicalnot" format="2">
  <advance width="981"/>
  <unicode hex="00AC"/>
  <outline>
    <contour>
      <point x="154" y="688" type="line"/>
      <point x="874" y="690" type="line"/>
      <point x="886" y="764" type="line"/>
      <point x="166" y="762" type="line"/>
    </contour>
    <contour>
      <point x="770" y="418" type="line"/>
      <point x="836" y="418" type="line"/>
      <point x="884" y="750" type="line"/>
      <point x="814" y="750" type="line"/>
    </contour>
  </outline>
</glyph>
<glyph name="softhyphen" format="2">
  <advance width="686"/>
  <unicode hex="00AD"/>
  <outline>
    <contour>
      <point x="122" y="478" type="line"/>
      <point x="554" y="480" type="line"/>
      <point x="564" y="558" type="line"/>
      <point x="132" y="556" type="line"/>
    </contour>
  </outline>
</glyph>
<glyph name="registered" format="2">
  <advance width="974"/>
  <unicode hex="00AE"/>
  <outline>
    <contour>
      <point x="490" y="536" type="curve" smooth="yes"/>
      <point x="726" y="536"/>
      <point x="946" y="742"/>
      <point x="982" y="1000" type="curve" smooth="yes"/>
      <point x="1018" y="1258"/>
      <point x="856" y="1466"/>
      <point x="622" y="1466" type="curve" smooth="yes"/>
      <point x="382" y="1466"/>
      <point x="164" y="1258"/>
      <point x="128" y="1000" type="curve" smooth="yes"/>
      <point x="90" y="742"/>
      <point x="252" y="536"/>
    </contour>
    <contour>
      <point x="500" y="604" type="curve" smooth="yes"/>
      <point x="284" y="604"/>
      <point x="158" y="758"/>
      <point x="192" y="1000" type="curve" smooth="yes"/>
      <point x="226" y="1240"/>
      <point x="396" y="1398"/>
      <point x="612" y="1398" type="curve" smooth="yes"/>
      <point x="824" y="1398"/>
      <point x="952" y="1240"/>
      <point x="918" y="1000" type="curve" smooth="yes"/>
      <point x="884" y="758"/>
      <point x="712" y="604"/>
    </contour>
    <contour>
      <point x="366" y="766" type="line"/>
      <point x="420" y="766" type="line"/>
      <point x="452" y="988" type="line"/>
      <point x="568" y="988" type="line"/>
      <point x="614" y="766" type="line"/>
      <point x="672" y="766" type="line"/>
      <point x="622" y="992" type="line"/>
      <point x="668" y="1008"/>
      <point x="722" y="1038"/>
      <point x="732" y="1116" type="curve" smooth="yes"/>
      <point x="742" y="1190"/>
      <point x="700" y="1228"/>
      <point x="616" y="1228" type="curve" smooth="yes"/>
      <point x="432" y="1228" type="line"/>
    </contour>
    <contour>
      <point x="458" y="1044" type="line"/>
      <point x="478" y="1174" type="line"/>
      <point x="590" y="1174" type="line" smooth="yes"/>
      <point x="668" y="1174"/>
      <point x="680" y="1142"/>
      <point x="676" y="1108" type="curve" smooth="yes"/>
      <point x="668" y="1056"/>
      <point x="624" y="1044"/>
      <point x="576" y="1044" type="curve" smooth="yes"/>
    </contour>
  </outline>
</glyph>
<glyph name="degree" format="2">
  <advance width="856"/>
  <unicode hex="00B0"/>
  <outline>
    <contour>
      <point x="507" y="1088" type="curve" smooth="yes"/>
      <point x="663" y="1088"/>
      <point x="793" y="1210"/>
      <point x="817" y="1380" type="curve" smooth="yes"/>
      <point x="841" y="1552"/>
      <point x="745" y="1674"/>
      <point x="591" y="1674" type="curve" smooth="yes"/>
      <point x="433" y="1674"/>
      <point x="305" y="1552"/>
      <point x="281" y="1380" type="curve" smooth="yes"/>
      <point x="257" y="1210"/>
      <point x="351" y="1088"/>
    </contour>
    <contour>
      <point x="515" y="1158" type="curve" smooth="yes"/>
      <point x="397" y="1158"/>
      <point x="335" y="1248"/>
      <point x="351" y="1378" type="curve" smooth="yes"/>
      <point x="369" y="1508"/>
      <point x="459" y="1598"/>
      <point x="575" y="1598" type="curve" smooth="yes"/>
      <point x="697" y="1598"/>
      <point x="759" y="1508"/>
      <point x="739" y="1378" type="curve" smooth="yes"/>
      <point x="721" y="1248"/>
      <point x="635" y="1158"/>
    </contour>
  </outline>
</glyph>
<glyph name="plusminus" format="2">
  <advance width="982"/>
  <unicode hex="00B1"/>
  <outline>
    <contour>
      <point x="453" y="472" type="line"/>
      <point x="519" y="472" type="line"/>
      <point x="629" y="1254" type="line"/>
      <point x="561" y="1254" type="line"/>
    </contour>
    <contour>
      <point x="81" y="162" type="line"/>
      <point x="801" y="164" type="line"/>
      <point x="811" y="238" type="line"/>
      <point x="91" y="236" type="line"/>
    </contour>
    <contour>
      <point x="175" y="824" type="line"/>
      <point x="895" y="826" type="line"/>
      <point x="905" y="900" type="line"/>
      <point x="185" y="898" type="line"/>
    </contour>
  </outline>
</glyph>
<glyph name="micro" format="2">
  <advance width="1071"/>
  <unicode hex="00B5"/>
  <outline>
    <contour>
      <point x="41" y="-330" type="line"/>
      <point x="115" y="-330" type="line"/>
      <point x="171" y="74" type="line"/>
      <point x="227" y="4"/>
      <point x="299" y="-20"/>
      <point x="391" y="-20" type="curve" smooth="yes"/>
      <point x="507" y="-20"/>
      <point x="601" y="30"/>
      <point x="773" y="164" type="curve"/>
      <point x="749" y="0" type="line"/>
      <point x="817" y="0" type="line"/>
      <point x="967" y="1060" type="line"/>
      <point x="893" y="1060" type="line"/>
      <point x="783" y="268" type="line"/>
      <point x="645" y="138"/>
      <point x="517" y="56"/>
      <point x="397" y="56" type="curve" smooth="yes"/>
      <point x="271" y="56"/>
      <point x="183" y="158"/>
      <point x="199" y="274" type="curve" smooth="yes"/>
      <point x="311" y="1060" type="line"/>
      <point x="237" y="1060" type="line"/>
    </contour>
  </outline>
</glyph>
<glyph name="paragraph" format="2">
  <advance width="975"/>
  <unicode hex="00B6"/>
  <outline>
    <contour>
      <point x="409" y="-166" type="line"/>
      <point x="471" y="-166" type="line"/>
      <point x="689" y="1384" type="line"/>
      <point x="767" y="1384" type="line"/>
      <point x="550" y="-166" type="line"/>
      <point x="611" y="-166" type="line"/>
      <point x="829" y="1384" type="line"/>
      <point x="937" y="1384" type="line"/>
      <point x="945" y="1446" type="line"/>
      <point x="655" y="1446" type="line" smooth="yes"/>
      <point x="374" y="1446"/>
      <point x="208" y="1220"/>
      <point x="178" y="1002" type="curve" smooth="yes"/>
      <point x="147" y="796"/>
      <point x="256" y="592"/>
      <point x="515" y="592" type="curve"/>
    </contour>
  </outline>
</glyph>
<glyph name="periodcentered" format="2">
  <advance width="386"/>
  <unicode hex="00B7"/>
  <outline>
    <contour>
      <point x="139" y="652" type="line"/>
      <point x="285" y="652" type="line"/>
      <point x="307" y="806" type="line"/>
      <point x="161" y="806" type="line"/>
    </contour>
  </outline>
</glyph>
<glyph name="ordmasculine" format="2">
  <advance width="770"/>
  <unicode hex="00BA"/>
  <outline>
    <contour>
      <point x="423" y="794" type="curve" smooth="yes"/>
      <point x="602" y="794"/>
      <point x="719" y="932"/>
      <point x="746" y="1126" type="curve" smooth="yes"/>
      <point x="774" y="1328"/>
      <point x="688" y="1464"/>
      <point x="518" y="1464" type="curve" smooth="yes"/>
      <point x="348" y="1464"/>
      <point x="224" y="1328"/>
      <point x="196" y="1126" type="curve" smooth="yes"/>
      <point x="169" y="932"/>
      <point x="244" y="794"/>
    </contour>
    <contour>
      <point x="432" y="858" type="curve" smooth="yes"/>
      <point x="301" y="858"/>
      <point x="246" y="966"/>
      <point x="270" y="1132" type="curve" smooth="yes"/>
      <point x="293" y="1288"/>
      <point x="377" y="1396"/>
      <point x="509" y="1396" type="curve" smooth="yes"/>
      <point x="640" y="1396"/>
      <point x="694" y="1288"/>
      <point x="673" y="1132" type="curve" smooth="yes"/>
      <point x="650" y="966"/>
      <point x="564" y="858"/>
    </contour>
  </outline>
</glyph>
<glyph name="guillemetright" format="2">
  <advance width="763"/>
  <unicode hex="00BB"/>
  <outline>
    <contour>
      <point x="341" y="152" type="line"/>
      <point x="389" y="152" type="line"/>
      <point x="701" y="502" type="line"/>
      <point x="487" y="868" type="line"/>
      <point x="437" y="868" type="line"/>
      <point x="608" y="502" type="line"/>
    </contour>
    <contour>
      <point x="41" y="152" type="line"/>
      <point x="89" y="152" type="line"/>
      <point x="401" y="502" type="line"/>
      <point x="187" y="868" type="line"/>
      <point x="139" y="868" type="line"/>
      <point x="307" y="502" type="line"/>
    </contour>
  </outline>
</glyph>
<glyph name="questiondown" format="2">
  <advance width="923"/>
  <unicode hex="00BF"/>
  <outline>
    <contour>
      <point x="325" y="-342" type="curve" smooth="yes"/>
      <point x="499" y="-342"/>
      <point x="669" y="-244"/>
      <point x="767" y="-92" type="curve"/>
      <point x="695" y="-52" type="line"/>
      <point x="641" y="-164"/>
      <point x="475" y="-260"/>
      <point x="335" y="-260" type="curve" smooth="yes"/>
      <point x="153" y="-260"/>
      <point x="51" y="-154"/>
      <point x="73" y="14" type="curve" smooth="yes"/>
      <point x="113" y="318"/>
      <point x="487" y="330"/>
      <point x="541" y="742" type="curve"/>
      <point x="465" y="742" type="line"/>
      <point x="415" y="358"/>
      <point x="33" y="348"/>
      <point x="-11" y="14" type="curve" smooth="yes"/>
      <point x="-39" y="-202"/>
      <point x="91" y="-342"/>
    </contour>
    <contour>
      <point x="465" y="880" type="line"/>
      <point x="577" y="880" type="line"/>
      <point x="597" y="1034" type="line"/>
      <point x="485" y="1034" type="line"/>
    </contour>
  </outline>
</glyph>
<glyph name="AE" format="2">
  <advance width="1688"/>
  <unicode hex="00C6"/>
  <anchor x="1265" y="1446" name="top"/>
  <outline>
    <contour>
      <point x="-73" y="0" type="line"/>
      <point x="3" y="0" type="line"/>
      <point x="313" y="464" type="line"/>
      <point x="795" y="464" type="line"/>
      <point x="728" y="0" type="line"/>
      <point x="1475" y="0" type="line"/>
      <point x="1485" y="78" type="line"/>
      <point x="821" y="78" type="line"/>
      <point x="907" y="692" type="line"/>
      <point x="1509" y="692" type="line"/>
      <point x="1519" y="770" type="line"/>
      <point x="919" y="770" type="line"/>
      <point x="1003" y="1368" type="line"/>
      <point x="1641" y="1368" type="line"/>
      <point x="1651" y="1446" type="line"/>
      <point x="889" y="1446" type="line"/>
    </contour>
    <contour>
      <point x="359" y="542" type="line"/>
      <point x="921" y="1370" type="line"/>
      <point x="805" y="542" type="line"/>
    </contour>
  </outline>
</glyph>
<glyph name="multiply" format="2">
  <advance width="947"/>
  <unicode hex="00D7"/>
  <outline>
    <contour>
      <point x="158" y="354" type="line"/>
      <point x="890" y="1048" type="line"/>
      <point x="848" y="1100" type="line"/>
      <point x="116" y="408" type="line"/>
    </contour>
    <contour>
      <point x="744" y="354" type="line"/>
      <point x="802" y="408" type="line"/>
      <point x="262" y="1096" type="line"/>
      <point x="204" y="1044" type="line"/>
    </contour>
  </outline>
</glyph>
<glyph name="Oslash" format="2">
  <advance width="1346"/>
  <unicode hex="00D8"/>
  <anchor x="805" y="1446" name="top"/>
  <outline>
    <contour>
      <point x="59" y="-26" type="line"/>
      <point x="233" y="158" type="line"/>
      <point x="307" y="40"/>
      <point x="431" y="-20"/>
      <point x="597" y="-20" type="curve" smooth="yes"/>
      <point x="933" y="-20"/>
      <point x="1175" y="238"/>
      <point x="1241" y="720" type="curve" smooth="yes"/>
      <point x="1269" y="920"/>
      <point x="1257" y="1082"/>
      <point x="1211" y="1204" type="curve"/>
      <point x="1401" y="1408" type="line"/>
      <point x="1343" y="1470" type="line"/>
      <point x="1171" y="1286" type="line"/>
      <point x="1093" y="1404"/>
      <point x="971" y="1466"/>
      <point x="807" y="1466" type="curve" smooth="yes"/>
      <point x="471" y="1466"/>
      <point x="229" y="1204"/>
      <point x="161" y="716" type="curve" smooth="yes"/>
      <point x="133" y="518"/>
      <point x="143" y="358"/>
      <point x="191" y="240" type="curve"/>
      <point x="3" y="38" type="line"/>
    </contour>
    <contour>
      <point x="613" y="64" type="curve" smooth="yes"/>
      <point x="463" y="64"/>
      <point x="359" y="118"/>
      <point x="297" y="228" type="curve"/>
      <point x="1141" y="1132" type="line"/>
      <point x="1171" y="1026"/>
      <point x="1173" y="890"/>
      <point x="1149" y="720" type="curve" smooth="yes"/>
      <point x="1087" y="276"/>
      <point x="909" y="64"/>
    </contour>
    <contour>
      <point x="261" y="314" type="line"/>
      <point x="231" y="418"/>
      <point x="229" y="552"/>
      <point x="251" y="720" type="curve" smooth="yes"/>
      <point x="315" y="1164"/>
      <point x="499" y="1382"/>
      <point x="795" y="1382" type="curve" smooth="yes"/>
      <point x="943" y="1382"/>
      <point x="1045" y="1328"/>
      <point x="1105" y="1218" type="curve"/>
    </contour>
  </outline>
</glyph>
<glyph name="Thorn" format="2">
  <advance width="1173"/>
  <unicode hex="00DE"/>
  <outline>
    <contour>
      <point x="148" y="0" type="line"/>
      <point x="228" y="0" type="line"/>
      <point x="278" y="354" type="line"/>
      <point x="622" y="354" type="line" smooth="yes"/>
      <point x="894" y="354"/>
      <point x="1108" y="466"/>
      <point x="1149" y="760" type="curve" smooth="yes"/>
      <point x="1186" y="1018"/>
      <point x="1003" y="1130"/>
      <point x="720" y="1130" type="curve" smooth="yes"/>
      <point x="387" y="1130" type="line"/>
      <point x="431" y="1446" type="line"/>
      <point x="351" y="1446" type="line"/>
    </contour>
    <contour>
      <point x="289" y="436" type="line"/>
      <point x="375" y="1048" type="line"/>
      <point x="707" y="1048" type="line" smooth="yes"/>
      <point x="951" y="1048"/>
      <point x="1104" y="976"/>
      <point x="1073" y="760" type="curve" smooth="yes"/>
      <point x="1040" y="522"/>
      <point x="865" y="436"/>
      <point x="634" y="436" type="curve" smooth="yes"/>
    </contour>
  </outline>
</glyph>
<glyph name="germandbls" format="2">
  <advance width="1040"/>
  <unicode hex="00DF"/>
  <outline>
    <contour>
      <point x="524" y="-20" type="curve" smooth="yes"/>
      <point x="705" y="-20"/>
      <point x="877" y="94"/>
      <point x="907" y="308" type="curve" smooth="yes"/>
      <point x="942" y="558"/>
      <point x="741" y="618"/>
      <point x="633" y="658" type="curve" smooth="yes"/>
      <point x="531" y="694"/>
      <point x="499" y="710"/>
      <point x="507" y="776" type="curve" smooth="yes"/>
      <point x="516" y="844"/>
      <point x="558" y="866"/>
      <point x="677" y="930" type="curve" smooth="yes"/>
      <point x="781" y="986"/>
      <point x="892" y="1030"/>
      <point x="915" y="1188" type="curve" smooth="yes"/>
      <point x="931" y="1306"/>
      <point x="891" y="1446"/>
      <point x="679" y="1446" type="curve" smooth="yes"/>
      <point x="461" y="1446"/>
      <point x="289" y="1292"/>
      <point x="253" y="1034" type="curve"/>
      <point x="108" y="0" type="line"/>
      <point x="181" y="0" type="line"/>
      <point x="329" y="1044" type="line" smooth="yes"/>
      <point x="358" y="1268"/>
      <point x="493" y="1372"/>
      <point x="652" y="1372" type="curve" smooth="yes"/>
      <point x="789" y="1372"/>
      <point x="854" y="1304"/>
      <point x="841" y="1194" type="curve" smooth="yes"/>
      <point x="823" y="1074"/>
      <point x="730" y="1038"/>
      <point x="646" y="994" type="curve" smooth="yes"/>
      <point x="509" y="924"/>
      <point x="444" y="872"/>
      <point x="431" y="774" type="curve" smooth="yes"/>
      <point x="413" y="636"/>
      <point x="516" y="608"/>
      <point x="599" y="580" type="curve" smooth="yes"/>
      <point x="726" y="534"/>
      <point x="856" y="482"/>
      <point x="831" y="302" type="curve" smooth="yes"/>
      <point x="808" y="146"/>
      <point x="690" y="54"/>
      <point x="522" y="54" type="curve" smooth="yes"/>
      <point x="433" y="54"/>
      <point x="385" y="80"/>
      <point x="329" y="118" type="curve"/>
      <point x="278" y="52" type="line"/>
      <point x="337" y="6"/>
      <point x="442" y="-20"/>
    </contour>
  </outline>
</glyph>
<glyph name="ae" format="2">
  <advance width="1723"/>
  <unicode hex="00E6"/>
  <anchor x="927" y="1034" name="top"/>
  <anchor x="1144" y="0" name="bottom"/>
  <anchor x="1247" y="36" name="ogonek"/>
  <outline>
    <contour>
      <point x="352" y="-20" type="curve" smooth="yes"/>
      <point x="548" y="-20"/>
      <point x="776" y="115"/>
      <point x="804" y="316" type="curve"/>
      <point x="887" y="716" type="line"/>
      <point x="917" y="926"/>
      <point x="796" y="1054"/>
      <point x="593" y="1054" type="curve" smooth="yes"/>
      <point x="370" y="1054"/>
      <point x="232" y="904"/>
      <point x="203" y="758" type="curve"/>
      <point x="281" y="758" type="line"/>
      <point x="321" y="900"/>
      <point x="439" y="978"/>
      <point x="579" y="978" type="curve" smooth="yes"/>
      <point x="741" y="978"/>
      <point x="839" y="880"/>
      <point x="816" y="714" type="curve" smooth="yes"/>
      <point x="802" y="614" type="line"/>
      <point x="579" y="606" type="line" smooth="yes"/>
      <point x="260" y="595"/>
      <point x="118" y="496"/>
      <point x="85" y="264" type="curve" smooth="yes"/>
      <point x="60" y="88"/>
      <point x="164" y="-20"/>
    </contour>
    <contour>
      <point x="375" y="54" type="curve" smooth="yes"/>
      <point x="228" y="54"/>
      <point x="143" y="134"/>
      <point x="162" y="270" type="curve" smooth="yes"/>
      <point x="187" y="450"/>
      <point x="298" y="525"/>
      <point x="604" y="532" type="curve" smooth="yes"/>
      <point x="791" y="536" type="line"/>
      <point x="769" y="383" type="line" smooth="yes"/>
      <point x="749" y="243"/>
      <point x="588" y="54"/>
    </contour>
    <component base="e" xOffset="673"/>
  </outline>
</glyph>
<glyph name="eth" format="2">
  <advance width="1047"/>
  <unicode hex="00F0"/>
  <outline>
    <contour>
      <point x="463" y="-20" type="curve" smooth="yes"/>
      <point x="839" y="-20"/>
      <point x="947" y="366"/>
      <point x="947" y="677" type="curve" smooth="yes"/>
      <point x="947" y="1083"/>
      <point x="784" y="1317"/>
      <point x="599" y="1480" type="curve"/>
      <point x="502" y="1480" type="line"/>
      <point x="614" y="1376"/>
      <point x="812" y="1172"/>
      <point x="856" y="877" type="curve"/>
      <point x="929" y="738" type="line"/>
      <point x="886" y="933"/>
      <point x="792" y="1054"/>
      <point x="592" y="1054" type="curve" smooth="yes"/>
      <point x="229" y="1054"/>
      <point x="103" y="681"/>
      <point x="103" y="404" type="curve" smooth="yes"/>
      <point x="103" y="153"/>
      <point x="227" y="-20"/>
    </contour>
    <contour>
      <point x="473" y="54" type="curve" smooth="yes"/>
      <point x="269" y="54"/>
      <point x="181" y="208"/>
      <point x="181" y="416" type="curve" smooth="yes"/>
      <point x="181" y="648"/>
      <point x="280" y="978"/>
      <point x="581" y="978" type="curve" smooth="yes"/>
      <point x="766" y="978"/>
      <point x="869" y="860"/>
      <point x="869" y="635" type="curve" smooth="yes"/>
      <point x="869" y="402"/>
      <point x="779" y="54"/>
    </contour>
    <contour>
      <point x="421" y="1175" type="line"/>
      <point x="1001" y="1348" type="line"/>
      <point x="992" y="1414" type="line"/>
      <point x="409" y="1240" type="line"/>
    </contour>
  </outline>
</glyph>
<glyph name="divide" format="2">
  <advance width="980"/>
  <unicode hex="00F7"/>
  <outline>
    <contour>
      <point x="154" y="688" type="line"/>
      <point x="874" y="690" type="line"/>
      <point x="884" y="764" type="line"/>
      <point x="164" y="762" type="line"/>
    </contour>
    <contour>
      <point x="392" y="340" type="line"/>
      <point x="540" y="340" type="line"/>
      <point x="560" y="494" type="line"/>
      <point x="414" y="494" type="line"/>
    </contour>
    <contour>
      <point x="480" y="960" type="line"/>
      <point x="626" y="960" type="line"/>
      <point x="648" y="1114" type="line"/>
      <point x="500" y="1114" type="line"/>
    </contour>
  </outline>
</glyph>
<glyph name="oslash" format="2">
  <advance width="989"/>
  <unicode hex="00F8"/>
  <anchor x="496" y="1034" name="top"/>
  <anchor x="350" y="0" name="bottom"/>
  <anchor x="766" y="714" name="horn"/>
  <anchor x="455" y="20" name="ogonek"/>
  <outline>
    <contour>
      <point x="18" y="-8" type="line"/>
      <point x="1024" y="982" type="line"/>
      <point x="970" y="1038" type="line"/>
      <point x="-36" y="48" type="line"/>
    </contour>
    <component base="o" xOffset="-76"/>
  </outline>
</glyph>
<glyph name="thorn" format="2">
  <advance width="1082"/>
  <unicode hex="00FE"/>
  <outline>
    <contour>
      <point x="63" y="-322" type="line"/>
      <point x="136" y="-322" type="line"/>
      <point x="189" y="64" type="line" smooth="yes"/>
      <point x="193" y="90"/>
      <point x="200" y="96"/>
      <point x="216" y="78" type="curve" smooth="yes"/>
      <point x="262" y="32"/>
      <point x="344" y="-20"/>
      <point x="468" y="-20" type="curve" smooth="yes"/>
      <point x="729" y="-20"/>
      <point x="930" y="204"/>
      <point x="975" y="536" type="curve" smooth="yes"/>
      <point x="1023" y="882"/>
      <point x="868" y="1054"/>
      <point x="638" y="1054" type="curve" smooth="yes"/>
      <point x="437" y="1054"/>
      <point x="336" y="918"/>
      <point x="302" y="880" type="curve"/>
      <point x="380" y="1446" type="line"/>
      <point x="311" y="1446" type="line"/>
    </contour>
    <contour>
      <point x="475" y="54" type="curve" smooth="yes"/>
      <point x="366" y="54"/>
      <point x="284" y="112"/>
      <point x="210" y="202" type="curve"/>
      <point x="279" y="710" type="line" smooth="yes"/>
      <point x="298" y="826"/>
      <point x="439" y="978"/>
      <point x="618" y="978" type="curve" smooth="yes"/>
      <point x="798" y="978"/>
      <point x="941" y="838"/>
      <point x="899" y="528" type="curve" smooth="yes"/>
      <point x="857" y="232"/>
      <point x="682" y="54"/>
    </contour>
  </outline>
</glyph>
<glyph name="Hbar" format="2">
  <advance width="1491"/>
  <unicode hex="0126"/>
  <anchor x="696" y="0" name="bottom"/>
  <anchor x="900" y="1446" name="top"/>
  <outline>
    <contour>
      <point x="106" y="1128" type="line"/>
      <point x="1556" y="1128" type="line"/>
      <point x="1568" y="1206" type="line"/>
      <point x="118" y="1206" type="line"/>
    </contour>
    <component base="H" xOffset="40"/>
  </outline>
</glyph>
<glyph name="hbar" format="2">
  <advance width="1180"/>
  <unicode hex="0127"/>
  <anchor x="601" y="0" name="bottom"/>
  <anchor x="464" y="1446" name="top"/>
  <outline>
    <contour>
      <point x="141" y="1222" type="line"/>
      <point x="705" y="1222" type="line"/>
      <point x="713" y="1290" type="line"/>
      <point x="149" y="1290" type="line"/>
    </contour>
    <component base="h" xOffset="100"/>
  </outline>
</glyph>
<glyph name="idotless" format="2">
  <advance width="433"/>
  <unicode hex="0131"/>
  <anchor x="169" y="26" name="ogonek"/>
  <anchor x="288" y="1034" name="top"/>
  <outline>
    <contour>
      <point x="108" y="0" type="line"/>
      <point x="180" y="0" type="line"/>
      <point x="326" y="1034" type="line"/>
      <point x="253" y="1034" type="line"/>
    </contour>
  </outline>
</glyph>
<glyph name="kgreenlandic" format="2">
  <advance width="1022"/>
  <unicode hex="0138"/>
  <outline>
    <contour>
      <point x="107" y="0" type="line"/>
      <point x="180" y="0" type="line"/>
      <point x="223" y="316" type="line"/>
      <point x="514" y="592" type="line"/>
      <point x="767" y="0" type="line"/>
      <point x="859" y="0" type="line"/>
      <point x="578" y="658" type="line"/>
      <point x="970" y="1034" type="line"/>
      <point x="870" y="1034" type="line"/>
      <point x="240" y="428" type="line"/>
      <point x="326" y="1034" type="line"/>
      <point x="254" y="1034" type="line"/>
    </contour>
  </outline>
</glyph>
<glyph name="Lslash" format="2">
  <advance width="1111"/>
  <unicode hex="0141"/>
  <anchor x="533" y="0" name="bottom"/>
  <anchor x="714" y="1446" name="caron"/>
  <anchor x="409" y="1446" name="top"/>
  <outline>
    <contour>
      <point x="87" y="634" type="line"/>
      <point x="661" y="784" type="line"/>
      <point x="661" y="856" type="line"/>
      <point x="87" y="710" type="line"/>
    </contour>
    <component base="L" xOffset="18"/>
  </outline>
</glyph>
<glyph name="lslash" format="2">
  <advance width="622"/>
  <unicode hex="0142"/>
  <anchor x="248" y="2" name="bottom"/>
  <anchor x="456" y="1486" name="caron"/>
  <anchor x="417" y="1524" name="top"/>
  <outline>
    <contour>
      <point x="58" y="340" type="line"/>
      <point x="520" y="776" type="line"/>
      <point x="520" y="862" type="line"/>
      <point x="58" y="430" type="line"/>
    </contour>
    <component base="l" xOffset="66"/>
  </outline>
</glyph>
<glyph name="eng" format="2">
  <advance width="1080"/>
  <unicode hex="014B"/>
  <outline>
    <contour>
      <point x="578" y="-332" type="curve" smooth="yes"/>
      <point x="720" y="-332"/>
      <point x="794" y="-240"/>
      <point x="815" y="-80" type="curve" smooth="yes"/>
      <point x="935" y="766" type="line" smooth="yes"/>
      <point x="960" y="936"/>
      <point x="870" y="1054"/>
      <point x="685" y="1054" type="curve" smooth="yes"/>
      <point x="567" y="1054"/>
      <point x="479" y="1018"/>
      <point x="298" y="878" type="curve"/>
      <point x="319" y="1034" type="line"/>
      <point x="254" y="1034" type="line"/>
      <point x="107" y="0" type="line"/>
      <point x="180" y="0" type="line"/>
      <point x="292" y="796" type="line"/>
      <point x="424" y="908"/>
      <point x="552" y="980"/>
      <point x="666" y="980" type="curve" smooth="yes"/>
      <point x="836" y="980"/>
      <point x="880" y="876"/>
      <point x="857" y="724" type="curve" smooth="yes"/>
      <point x="744" y="-90" type="line" smooth="yes"/>
      <point x="725" y="-214"/>
      <point x="680" y="-262"/>
      <point x="584" y="-264" type="curve" smooth="yes"/>
      <point x="483" y="-266" type="line"/>
      <point x="475" y="-314" type="line" smooth="yes"/>
      <point x="473" y="-330"/>
      <point x="485" y="-332"/>
    </contour>
  </outline>
</glyph>
<glyph name="oe" format="2">
  <advance width="1794"/>
  <unicode hex="0153"/>
  <anchor x="953" y="1034" name="top"/>
  <outline>
    <contour>
      <point x="1355" y="1054" type="curve" smooth="yes"/>
      <point x="1165" y="1054"/>
      <point x="1019" y="948"/>
      <point x="934" y="761" type="curve"/>
      <point x="901" y="959"/>
      <point x="776" y="1054"/>
      <point x="595" y="1054" type="curve" smooth="yes"/>
      <point x="312" y="1054"/>
      <point x="152" y="838"/>
      <point x="110" y="514" type="curve" smooth="yes"/>
      <point x="62" y="151"/>
      <point x="206" y="-20"/>
      <point x="455" y="-20" type="curve" smooth="yes"/>
      <point x="652" y="-20"/>
      <point x="789" y="87"/>
      <point x="867" y="263" type="curve"/>
      <point x="905" y="79"/>
      <point x="1033" y="-20"/>
      <point x="1215" y="-20" type="curve" smooth="yes"/>
      <point x="1387" y="-20"/>
      <point x="1561" y="75"/>
      <point x="1627" y="276" type="curve"/>
      <point x="1549" y="276" type="line"/>
      <point x="1507" y="140"/>
      <point x="1378" y="56"/>
      <point x="1226" y="56" type="curve" smooth="yes"/>
      <point x="983" y="56"/>
      <point x="908" y="264"/>
      <point x="941" y="498" type="curve"/>
      <point x="1670" y="498" type="line"/>
      <point x="1677" y="554" type="line" smooth="yes"/>
      <point x="1717" y="873"/>
      <point x="1602" y="1054"/>
    </contour>
    <contour>
      <point x="465" y="54" type="curve" smooth="yes"/>
      <point x="234" y="54"/>
      <point x="150" y="238"/>
      <point x="186" y="514" type="curve" smooth="yes"/>
      <point x="227" y="830"/>
      <point x="381" y="978"/>
      <point x="585" y="978" type="curve" smooth="yes"/>
      <point x="812" y="978"/>
      <point x="895" y="792"/>
      <point x="859" y="514" type="curve" smooth="yes"/>
      <point x="818" y="201"/>
      <point x="665" y="54"/>
    </contour>
    <contour>
      <point x="953" y="574" type="line"/>
      <point x="979" y="768"/>
      <point x="1107" y="978"/>
      <point x="1343" y="978" type="curve" smooth="yes"/>
      <point x="1559" y="978"/>
      <point x="1636" y="804"/>
      <point x="1603" y="574" type="curve"/>
    </contour>
  </outline>
</glyph>
<glyph name="Scedilla" format="2">
  <advance width="1241"/>
  <unicode hex="015E"/>
  <anchor x="526" y="0" name="_bottom"/>
  <anchor x="526" y="0" name="bottom"/>
  <anchor x="741" y="1446" name="top"/>
  <outline>
    <contour>
      <point x="424" y="-398" type="curve" smooth="yes"/>
      <point x="520" y="-398"/>
      <point x="608" y="-350"/>
      <point x="622" y="-252" type="curve" smooth="yes"/>
      <point x="630" y="-190"/>
      <point x="608" y="-124"/>
      <point x="498" y="-114" type="curve"/>
      <point x="562" y="10" type="line"/>
      <point x="500" y="10" type="line"/>
      <point x="412" y="-154" type="line" smooth="yes"/>
      <point x="408" y="-158"/>
      <point x="408" y="-162"/>
      <point x="418" y="-162" type="curve" smooth="yes"/>
      <point x="510" y="-166"/>
      <point x="552" y="-194"/>
      <point x="542" y="-256" type="curve" smooth="yes"/>
      <point x="534" y="-310"/>
      <point x="500" y="-340"/>
      <point x="424" y="-340" type="curve" smooth="yes"/>
      <point x="368" y="-340"/>
      <point x="342" y="-322"/>
      <point x="320" y="-296" type="curve"/>
      <point x="292" y="-352" type="line"/>
      <point x="326" y="-382"/>
      <point x="368" y="-398"/>
    </contour>
    <component base="S"/>
  </outline>
</glyph>
<glyph name="tcedilla" format="2">
  <advance width="689"/>
  <unicode hex="0163"/>
  <anchor x="350" y="0" name="_bottom"/>
  <anchor x="350" y="0" name="bottom"/>
  <anchor x="500" y="1486" name="caron"/>
  <anchor x="382" y="620" name="center"/>
  <outline>
    <contour>
      <point x="248" y="-398" type="curve" smooth="yes"/>
      <point x="344" y="-398"/>
      <point x="432" y="-350"/>
      <point x="446" y="-252" type="curve" smooth="yes"/>
      <point x="454" y="-190"/>
      <point x="432" y="-124"/>
      <point x="322" y="-114" type="curve"/>
      <point x="386" y="10" type="line"/>
      <point x="324" y="10" type="line"/>
      <point x="236" y="-154" type="line" smooth="yes"/>
      <point x="232" y="-158"/>
      <point x="232" y="-162"/>
      <point x="242" y="-162" type="curve" smooth="yes"/>
      <point x="334" y="-166"/>
      <point x="376" y="-194"/>
      <point x="366" y="-256" type="curve" smooth="yes"/>
      <point x="358" y="-310"/>
      <point x="324" y="-340"/>
      <point x="248" y="-340" type="curve" smooth="yes"/>
      <point x="192" y="-340"/>
      <point x="166" y="-322"/>
      <point x="144" y="-296" type="curve"/>
      <point x="116" y="-352" type="line"/>
      <point x="150" y="-382"/>
      <point x="192" y="-398"/>
    </contour>
    <component base="t"/>
  </outline>
</glyph>
<glyph name="Tbar" format="2">
  <advance width="1066"/>
  <unicode hex="0166"/>
  <guideline x="233" y="175" angle="90"/>
  <anchor x="482" y="4" name="bottom"/>
  <anchor x="684" y="1446" name="top"/>
  <outline>
    <contour>
      <point x="214" y="702" type="line"/>
      <point x="928" y="702" type="line"/>
      <point x="928" y="784" type="line"/>
      <point x="214" y="784" type="line"/>
    </contour>
    <component base="T"/>
  </outline>
</glyph>
<glyph name="tbar" format="2">
  <advance width="684"/>
  <unicode hex="0167"/>
  <anchor x="401" y="0" name="bottom"/>
  <anchor x="711" y="1446" name="caron"/>
  <anchor x="433" y="620" name="center"/>
  <outline>
    <contour>
      <point x="149" y="546" type="line"/>
      <point x="595" y="546" type="line"/>
      <point x="595" y="614" type="line"/>
      <point x="149" y="614" type="line"/>
    </contour>
    <component base="t" xOffset="51"/>
  </outline>
</glyph>
<glyph name="Uogonek" format="2">
  <advance width="1277"/>
  <unicode hex="0172"/>
  <anchor x="719" y="18" name="_ogonek"/>
  <anchor x="585" y="4" name="bottom"/>
  <anchor x="1171" y="1212" name="horn"/>
  <anchor x="719" y="18" name="ogonek"/>
  <anchor x="793" y="1446" name="top"/>
  <outline>
    <contour>
      <point x="584" y="-334" type="curve" smooth="yes"/>
      <point x="647" y="-334"/>
      <point x="707" y="-316"/>
      <point x="737" y="-300" type="curve"/>
      <point x="747" y="-238" type="line"/>
      <point x="729" y="-248"/>
      <point x="673" y="-268"/>
      <point x="611" y="-268" type="curve" smooth="yes"/>
      <point x="537" y="-268"/>
      <point x="513" y="-240"/>
      <point x="519" y="-186" type="curve" smooth="yes"/>
      <point x="531" y="-110"/>
      <point x="599" y="-62"/>
      <point x="727" y="-2" type="curve"/>
      <point x="667" y="16" type="line"/>
      <point x="511" y="-32"/>
      <point x="453" y="-96"/>
      <point x="441" y="-182" type="curve" smooth="yes"/>
      <point x="429" y="-270"/>
      <point x="469" y="-334"/>
    </contour>
    <component base="U"/>
  </outline>
</glyph>
<glyph name="Schwa" format="2">
  <advance width="1336"/>
  <unicode hex="018F"/>
  <outline>
    <contour>
      <point x="597" y="-20" type="curve" smooth="yes"/>
      <point x="935" y="-20"/>
      <point x="1173" y="240"/>
      <point x="1240" y="720" type="curve" smooth="yes"/>
      <point x="1305" y="1185"/>
      <point x="1144" y="1466"/>
      <point x="806" y="1466" type="curve" smooth="yes"/>
      <point x="468" y="1466"/>
      <point x="219" y="1185"/>
      <point x="189" y="972" type="curve"/>
      <point x="278" y="972" type="line"/>
      <point x="303" y="1147"/>
      <point x="493" y="1382"/>
      <point x="794" y="1382" type="curve" smooth="yes"/>
      <point x="1095" y="1382"/>
      <point x="1219" y="1146"/>
      <point x="1162" y="742" type="curve"/>
      <point x="160" y="742" type="line"/>
      <point x="89" y="238"/>
      <point x="259" y="-20"/>
    </contour>
    <contour>
      <point x="609" y="64" type="curve" smooth="yes"/>
      <point x="308" y="64"/>
      <point x="188" y="320"/>
      <point x="235" y="660" type="curve"/>
      <point x="1150" y="660" type="line"/>
      <point x="1097" y="322"/>
      <point x="910" y="64"/>
    </contour>
  </outline>
</glyph>
<glyph name="florin" format="2">
  <advance width="712"/>
  <unicode hex="0192"/>
  <outline>
    <contour>
      <point x="-339" y="-332" type="line"/>
      <point x="-237" y="-332" type="line" smooth="yes"/>
      <point x="-93" y="-332"/>
      <point x="-5" y="-240"/>
      <point x="43" y="-80" type="curve" smooth="yes"/>
      <point x="357" y="966" type="line"/>
      <point x="621" y="966" type="line"/>
      <point x="641" y="1034" type="line"/>
      <point x="377" y="1034" type="line"/>
      <point x="433" y="1214" type="line" smooth="yes"/>
      <point x="463" y="1314"/>
      <point x="529" y="1378"/>
      <point x="607" y="1378" type="curve" smooth="yes"/>
      <point x="753" y="1378" type="line"/>
      <point x="773" y="1446" type="line"/>
      <point x="635" y="1446" type="line" smooth="yes"/>
      <point x="501" y="1446"/>
      <point x="407" y="1366"/>
      <point x="357" y="1206" type="curve" smooth="yes"/>
      <point x="307" y="1034" type="line"/>
      <point x="153" y="1034" type="line"/>
      <point x="133" y="966" type="line"/>
      <point x="285" y="966" type="line"/>
      <point x="-33" y="-90" type="line" smooth="yes"/>
      <point x="-69" y="-214"/>
      <point x="-121" y="-262"/>
      <point x="-217" y="-264" type="curve" smooth="yes"/>
      <point x="-321" y="-266" type="line"/>
    </contour>
  </outline>
</glyph>
<glyph name="oogonek" format="2">
  <advance width="1044"/>
  <unicode hex="01EB"/>
  <anchor x="531" y="20" name="_ogonek"/>
  <anchor x="426" y="0" name="bottom"/>
  <anchor x="842" y="714" name="horn"/>
  <anchor x="531" y="20" name="ogonek"/>
  <anchor x="561" y="1034" name="top"/>
  <outline>
    <contour>
      <point x="396" y="-332" type="curve" smooth="yes"/>
      <point x="459" y="-332"/>
      <point x="519" y="-314"/>
      <point x="549" y="-298" type="curve"/>
      <point x="559" y="-236" type="line"/>
      <point x="541" y="-246"/>
      <point x="485" y="-266"/>
      <point x="423" y="-266" type="curve" smooth="yes"/>
      <point x="349" y="-266"/>
      <point x="325" y="-238"/>
      <point x="331" y="-184" type="curve" smooth="yes"/>
      <point x="343" y="-108"/>
      <point x="411" y="-60"/>
      <point x="539" y="0" type="curve"/>
      <point x="479" y="18" type="line"/>
      <point x="323" y="-30"/>
      <point x="265" y="-94"/>
      <point x="253" y="-180" type="curve" smooth="yes"/>
      <point x="241" y="-268"/>
      <point x="281" y="-332"/>
    </contour>
    <component base="o"/>
  </outline>
</glyph>
<glyph name="jdotless" format="2">
  <advance width="440"/>
  <unicode hex="0237"/>
  <anchor x="297" y="1034" name="top"/>
  <outline>
    <contour>
      <point x="-60" y="-332" type="curve" smooth="yes"/>
      <point x="101" y="-332"/>
      <point x="152" y="-260"/>
      <point x="173" y="-100" type="curve" smooth="yes"/>
      <point x="333" y="1034" type="line"/>
      <point x="261" y="1034" type="line"/>
      <point x="103" y="-90" type="line" smooth="yes"/>
      <point x="85" y="-214"/>
      <point x="41" y="-258"/>
      <point x="-53" y="-260" type="curve" smooth="yes"/>
      <point x="-169" y="-262" type="line"/>
      <point x="-177" y="-314" type="line" smooth="yes"/>
      <point x="-179" y="-330"/>
      <point x="-169" y="-332"/>
    </contour>
  </outline>
</glyph>
<glyph name="schwa" format="2">
  <advance width="1050"/>
  <unicode hex="0259"/>
  <anchor x="441" y="0" name="bottom"/>
  <anchor x="476" y="998" name="ogonek"/>
  <anchor x="579" y="1034" name="top"/>
  <outline>
    <contour>
      <point x="439" y="-20" type="curve" smooth="yes"/>
      <point x="703" y="-20"/>
      <point x="882" y="184"/>
      <point x="930" y="526" type="curve" smooth="yes"/>
      <point x="978" y="864"/>
      <point x="831" y="1054"/>
      <point x="579" y="1054" type="curve" smooth="yes"/>
      <point x="407" y="1054"/>
      <point x="233" y="959"/>
      <point x="167" y="758" type="curve"/>
      <point x="245" y="758" type="line"/>
      <point x="287" y="894"/>
      <point x="416" y="978"/>
      <point x="568" y="978" type="curve" smooth="yes"/>
      <point x="811" y="978"/>
      <point x="886" y="770"/>
      <point x="853" y="536" type="curve"/>
      <point x="124" y="536" type="line"/>
      <point x="117" y="480" type="line"/>
      <point x="72" y="162"/>
      <point x="192" y="-20"/>
    </contour>
    <contour>
      <point x="451" y="56" type="curve" smooth="yes"/>
      <point x="235" y="56"/>
      <point x="158" y="230"/>
      <point x="191" y="460" type="curve"/>
      <point x="841" y="460" type="line"/>
      <point x="815" y="266"/>
      <point x="687" y="56"/>
    </contour>
  </outline>
</glyph>
<glyph name="commaturnedmod" format="2">
  <advance width="353"/>
  <unicode hex="02BB"/>
  <outline>
    <contour>
      <point x="177" y="1068" type="line"/>
      <point x="329" y="1068" type="line"/>
      <point x="351" y="1224" type="line"/>
      <point x="265" y="1224" type="line"/>
      <point x="267" y="1232" type="line"/>
      <point x="275" y="1292"/>
      <point x="319" y="1362"/>
      <point x="361" y="1362" type="curve"/>
      <point x="371" y="1362" type="line"/>
      <point x="379" y="1416" type="line"/>
      <point x="319" y="1432"/>
      <point x="215" y="1338"/>
      <point x="197" y="1206" type="curve"/>
    </contour>
  </outline>
</glyph>
<glyph name="apostrophemod" format="2">
  <advance width="386"/>
  <unicode hex="02BC"/>
  <outline>
    <contour>
      <point x="178" y="1070" type="line"/>
      <point x="231" y="1054"/>
      <point x="340" y="1148"/>
      <point x="375" y="1280" type="curve"/>
      <point x="413" y="1418" type="line"/>
      <point x="273" y="1418" type="line"/>
      <point x="231" y="1262" type="line"/>
      <point x="310" y="1262" type="line"/>
      <point x="307" y="1254" type="line"/>
      <point x="291" y="1194"/>
      <point x="241" y="1124"/>
      <point x="202" y="1124" type="curve"/>
      <point x="193" y="1124" type="line"/>
    </contour>
  </outline>
</glyph>
<glyph name="gravecomb" format="2">
  <unicode hex="0300"/>
  <anchor x="426" y="1034" name="_top"/>
  <outline>
    <contour>
      <point x="421" y="1155" type="line"/>
      <point x="482" y="1155" type="line"/>
      <point x="324" y="1446" type="line"/>
      <point x="221" y="1446" type="line"/>
    </contour>
  </outline>
</glyph>
<glyph name="acutecomb" format="2">
  <unicode hex="0301"/>
  <anchor x="144" y="1034" name="_top"/>
  <outline>
    <contour>
      <point x="100" y="1155" type="line"/>
      <point x="171" y="1155" type="line"/>
      <point x="441" y="1446" type="line"/>
      <point x="328" y="1446" type="line"/>
    </contour>
  </outline>
</glyph>
<glyph name="circumflexcomb" format="2">
  <unicode hex="0302"/>
  <anchor x="322" y="1034" name="_top"/>
  <outline>
    <contour>
      <point x="92" y="1155" type="line"/>
      <point x="196" y="1155" type="line"/>
      <point x="356" y="1275" type="line"/>
      <point x="474" y="1155" type="line"/>
      <point x="586" y="1155" type="line"/>
      <point x="396" y="1345" type="line"/>
      <point x="338" y="1345" type="line"/>
    </contour>
  </outline>
</glyph>
<glyph name="tildecomb" format="2">
  <unicode hex="0303"/>
  <anchor x="324" y="1034" name="_top"/>
  <outline>
    <contour>
      <point x="141" y="1249" type="line"/>
      <point x="171" y="1267"/>
      <point x="203" y="1297"/>
      <point x="263" y="1297" type="curve" smooth="yes"/>
      <point x="337" y="1297"/>
      <point x="367" y="1249"/>
      <point x="459" y="1249" type="curve" smooth="yes"/>
      <point x="531" y="1249"/>
      <point x="571" y="1277"/>
      <point x="599" y="1295" type="curve"/>
      <point x="581" y="1363" type="line"/>
      <point x="543" y="1337"/>
      <point x="517" y="1321"/>
      <point x="471" y="1321" type="curve" smooth="yes"/>
      <point x="391" y="1321"/>
      <point x="343" y="1371"/>
      <point x="265" y="1371" type="curve" smooth="yes"/>
      <point x="207" y="1371"/>
      <point x="169" y="1345"/>
      <point x="127" y="1309" type="curve"/>
    </contour>
  </outline>
</glyph>
<glyph name="macroncomb" format="2">
  <unicode hex="0304"/>
  <anchor x="317" y="1034" name="_top"/>
  <outline>
    <contour>
      <point x="124" y="1265" type="line"/>
      <point x="576" y="1265" type="line"/>
      <point x="586" y="1339" type="line"/>
      <point x="134" y="1339" type="line"/>
    </contour>
  </outline>
</glyph>
<glyph name="brevecomb" format="2">
  <unicode hex="0306"/>
  <anchor x="319" y="1034" name="_top"/>
  <outline>
    <contour>
      <point x="331" y="1155" type="curve" smooth="yes"/>
      <point x="477" y="1155"/>
      <point x="567" y="1265"/>
      <point x="595" y="1333" type="curve"/>
      <point x="505" y="1333" type="line"/>
      <point x="477" y="1295"/>
      <point x="427" y="1235"/>
      <point x="343" y="1235" type="curve" smooth="yes"/>
      <point x="247" y="1235"/>
      <point x="225" y="1305"/>
      <point x="213" y="1333" type="curve"/>
      <point x="125" y="1333" type="line"/>
      <point x="131" y="1253"/>
      <point x="189" y="1155"/>
    </contour>
  </outline>
</glyph>
<glyph name="dotaccentcomb" format="2">
  <unicode hex="0307"/>
  <anchor x="127" y="1034" name="_top"/>
  <outline>
    <contour>
      <point x="125" y="1326" type="line"/>
      <point x="213" y="1326" type="line"/>
      <point x="229" y="1446" type="line"/>
      <point x="141" y="1446" type="line"/>
    </contour>
  </outline>
</glyph>
<glyph name="dieresiscomb" format="2">
  <unicode hex="0308"/>
  <anchor x="238" y="1034" name="_top"/>
  <outline>
    <contour>
      <point x="346" y="1248" type="line"/>
      <point x="434" y="1248" type="line"/>
      <point x="450" y="1368" type="line"/>
      <point x="362" y="1368" type="line"/>
    </contour>
    <contour>
      <point x="114" y="1248" type="line"/>
      <point x="202" y="1248" type="line"/>
      <point x="218" y="1368" type="line"/>
      <point x="130" y="1368" type="line"/>
    </contour>
  </outline>
</glyph>
<glyph name="hookabovecomb" format="2">
  <unicode hex="0309"/>
  <guideline x="393" y="720" angle="302.6992"/>
  <guideline x="309" y="660" angle="302.6992"/>
  <guideline x="363" y="699" angle="302.6992"/>
  <guideline x="284" y="697" angle="32.7"/>
  <guideline x="307" y="663" angle="32.7"/>
  <guideline x="327" y="632" angle="32.7"/>
  <anchor x="677" y="1060" name="_top"/>
  <anchor x="615" y="1168" name="_topviet"/>
  <outline>
    <contour>
      <point x="739" y="1156" type="line"/>
      <point x="843" y="1220"/>
      <point x="897" y="1312"/>
      <point x="855" y="1400" type="curve" smooth="yes"/>
      <point x="820" y="1474"/>
      <point x="725" y="1486"/>
      <point x="619" y="1420" type="curve"/>
      <point x="647" y="1358" type="line"/>
      <point x="709" y="1398"/>
      <point x="773" y="1406"/>
      <point x="793" y="1358" type="curve" smooth="yes"/>
      <point x="812" y="1313"/>
      <point x="773" y="1256"/>
      <point x="711" y="1216" type="curve"/>
    </contour>
  </outline>
</glyph>
<glyph name="ringcomb" format="2">
  <unicode hex="030A"/>
  <anchor x="270" y="1034" name="_top"/>
  <outline>
    <contour>
      <point x="288" y="1172" type="curve" smooth="yes"/>
      <point x="390" y="1172"/>
      <point x="482" y="1256"/>
      <point x="496" y="1366" type="curve" smooth="yes"/>
      <point x="512" y="1474"/>
      <point x="444" y="1558"/>
      <point x="344" y="1558" type="curve" smooth="yes"/>
      <point x="246" y="1558"/>
      <point x="152" y="1474"/>
      <point x="138" y="1370" type="curve" smooth="yes"/>
      <point x="122" y="1258"/>
      <point x="190" y="1172"/>
    </contour>
    <contour>
      <point x="298" y="1250" type="curve" smooth="yes"/>
      <point x="242" y="1250"/>
      <point x="200" y="1304"/>
      <point x="210" y="1366" type="curve" smooth="yes"/>
      <point x="220" y="1434"/>
      <point x="276" y="1480"/>
      <point x="330" y="1480" type="curve" smooth="yes"/>
      <point x="390" y="1480"/>
      <point x="428" y="1434"/>
      <point x="420" y="1366" type="curve" smooth="yes"/>
      <point x="410" y="1304"/>
      <point x="356" y="1250"/>
    </contour>
  </outline>
</glyph>
<glyph name="hungarumlautcomb" format="2">
  <unicode hex="030B"/>
  <anchor x="217" y="1034" name="_top"/>
  <outline>
    <contour>
      <point x="291" y="1155" type="line"/>
      <point x="359" y="1155" type="line"/>
      <point x="572" y="1446" type="line"/>
      <point x="463" y="1446" type="line"/>
    </contour>
    <contour>
      <point x="101" y="1155" type="line"/>
      <point x="169" y="1155" type="line"/>
      <point x="350" y="1446" type="line"/>
      <point x="240" y="1446" type="line"/>
    </contour>
  </outline>
</glyph>
<glyph name="caroncomb" format="2">
  <unicode hex="030C"/>
  <anchor x="323" y="1034" name="_top"/>
  <outline>
    <contour>
      <point x="312" y="1154" type="line"/>
      <point x="372" y="1154" type="line"/>
      <point x="614" y="1344" type="line"/>
      <point x="504" y="1344" type="line"/>
      <point x="350" y="1224" type="line"/>
      <point x="224" y="1344" type="line"/>
      <point x="118" y="1344" type="line"/>
    </contour>
  </outline>
</glyph>
<glyph name="dblgravecomb" format="2">
  <unicode hex="030F"/>
  <anchor x="487" y="1034" name="_top"/>
  <outline>
    <contour>
      <point x="354" y="1155" type="line"/>
      <point x="422" y="1155" type="line"/>
      <point x="250" y="1446" type="line"/>
      <point x="141" y="1446" type="line"/>
    </contour>
    <contour>
      <point x="544" y="1155" type="line"/>
      <point x="612" y="1155" type="line"/>
      <point x="473" y="1446" type="line"/>
      <point x="363" y="1446" type="line"/>
    </contour>
  </outline>
</glyph>
<glyph name="breveinvertedcomb" format="2">
  <unicode hex="0311"/>
  <anchor x="327" y="1034" name="_top"/>
  <outline>
    <contour>
      <point x="91" y="1179" type="curve"/>
      <point x="179" y="1179" type="line"/>
      <point x="199" y="1207"/>
      <point x="241" y="1277"/>
      <point x="337" y="1277" type="curve" smooth="yes"/>
      <point x="421" y="1277"/>
      <point x="454.001" y="1217"/>
      <point x="471" y="1179" type="curve"/>
      <point x="561" y="1179" type="line"/>
      <point x="552" y="1247"/>
      <point x="493" y="1357"/>
      <point x="347" y="1357" type="curve" smooth="yes"/>
      <point x="205" y="1357"/>
      <point x="120" y="1259"/>
    </contour>
  </outline>
</glyph>
<glyph name="commaturnedabovecomb" format="2">
  <unicode hex="0312"/>
  <anchor x="583" y="1034" name="_top"/>
  <outline>
    <contour>
      <point x="541" y="1155" type="line"/>
      <point x="653" y="1155" type="line"/>
      <point x="677" y="1317" type="line"/>
      <point x="631" y="1317" type="line"/>
      <point x="715" y="1455" type="line"/>
      <point x="653" y="1455" type="line"/>
      <point x="565" y="1325" type="line"/>
    </contour>
  </outline>
</glyph>
<glyph name="horncomb" format="2">
  <unicode hex="031B"/>
  <anchor x="65" y="980" name="_horn"/>
  <anchor x="193" y="1060" name="_topright"/>
  <anchor x="193" y="1060" name="topright"/>
  <outline>
    <contour>
      <point x="65" y="980" type="line"/>
      <point x="221" y="962"/>
      <point x="311" y="1048"/>
      <point x="337" y="1238" type="curve"/>
      <point x="243" y="1238" type="line"/>
      <point x="219" y="1092"/>
      <point x="179" y="1060"/>
      <point x="77" y="1062" type="curve"/>
    </contour>
  </outline>
</glyph>
<glyph name="dotbelowcomb" format="2">
  <unicode hex="0323"/>
  <anchor x="-19" y="0" name="_bottom"/>
  <outline>
    <contour>
      <point x="-107" y="-320" type="line"/>
      <point x="-19" y="-320" type="line"/>
      <point x="-3" y="-200" type="line"/>
      <point x="-91" y="-200" type="line"/>
    </contour>
  </outline>
</glyph>
<glyph name="commaaccentcomb" format="2">
  <unicode hex="0326"/>
  <anchor x="4" y="0" name="_bottom"/>
  <outline>
    <contour>
      <point x="-123" y="-320" type="line"/>
      <point x="-78" y="-320" type="line"/>
      <point x="34" y="-203" type="line"/>
      <point x="49" y="-100" type="line"/>
      <point x="-67" y="-100" type="line"/>
      <point x="-84" y="-221" type="line"/>
      <point x="-43" y="-221" type="line"/>
    </contour>
  </outline>
</glyph>
<glyph name="cedillacomb" format="2">
  <unicode hex="0327"/>
  <anchor x="128" y="0" name="_bottom"/>
  <outline>
    <contour>
      <point x="26" y="-398" type="curve" smooth="yes"/>
      <point x="122" y="-398"/>
      <point x="210" y="-350"/>
      <point x="224" y="-252" type="curve" smooth="yes"/>
      <point x="232" y="-190"/>
      <point x="210" y="-124"/>
      <point x="100" y="-114" type="curve"/>
      <point x="164" y="10" type="line"/>
      <point x="102" y="10" type="line"/>
      <point x="14" y="-154" type="line" smooth="yes"/>
      <point x="10" y="-158"/>
      <point x="10" y="-162"/>
      <point x="20" y="-162" type="curve" smooth="yes"/>
      <point x="112" y="-166"/>
      <point x="154" y="-194"/>
      <point x="144" y="-256" type="curve" smooth="yes"/>
      <point x="136" y="-310"/>
      <point x="102" y="-340"/>
      <point x="26" y="-340" type="curve" smooth="yes"/>
      <point x="-30" y="-340"/>
      <point x="-56" y="-322"/>
      <point x="-78" y="-296" type="curve"/>
      <point x="-106" y="-352" type="line"/>
      <point x="-72" y="-382"/>
      <point x="-30" y="-398"/>
    </contour>
  </outline>
</glyph>
<glyph name="ogonekcomb" format="2">
  <unicode hex="0328"/>
  <anchor x="199" y="24" name="_ogonek"/>
  <outline>
    <contour>
      <point x="64" y="-328" type="curve" smooth="yes"/>
      <point x="127" y="-328"/>
      <point x="187" y="-310"/>
      <point x="217" y="-294" type="curve"/>
      <point x="227" y="-232" type="line"/>
      <point x="209" y="-242"/>
      <point x="153" y="-262"/>
      <point x="91" y="-262" type="curve" smooth="yes"/>
      <point x="17" y="-262"/>
      <point x="-7" y="-234"/>
      <point x="-1" y="-180" type="curve" smooth="yes"/>
      <point x="11" y="-104"/>
      <point x="79" y="-56"/>
      <point x="207" y="4" type="curve"/>
      <point x="147" y="22" type="line"/>
      <point x="-9" y="-26"/>
      <point x="-67" y="-90"/>
      <point x="-79" y="-176" type="curve" smooth="yes"/>
      <point x="-91" y="-264"/>
      <point x="-51" y="-328"/>
    </contour>
  </outline>
</glyph>
<glyph name="pi" format="2">
  <advance width="1296"/>
  <unicode hex="03C0"/>
  <outline>
    <contour>
      <point x="239" y="0" type="curve"/>
      <point x="305" y="0" type="line"/>
      <point x="369" y="190"/>
      <point x="423" y="568"/>
      <point x="423" y="966" type="curve"/>
      <point x="957" y="966" type="line"/>
      <point x="959" y="0" type="line"/>
      <point x="1037" y="0" type="line"/>
      <point x="1037" y="966" type="line"/>
      <point x="1299" y="966" type="line"/>
      <point x="1299" y="1034" type="line"/>
      <point x="133" y="1034" type="line"/>
      <point x="133" y="966" type="line"/>
      <point x="335" y="966" type="line" smooth="yes"/>
      <point x="345" y="966"/>
      <point x="351" y="958"/>
      <point x="351" y="946" type="curve" smooth="yes"/>
      <point x="351" y="566"/>
      <point x="297" y="220"/>
    </contour>
  </outline>
</glyph>
<glyph name="endash" format="2">
  <advance width="975"/>
  <unicode hex="2013"/>
  <outline>
    <contour>
      <point x="121" y="466" type="line"/>
      <point x="841" y="468" type="line"/>
      <point x="851" y="546" type="line"/>
      <point x="131" y="544" type="line"/>
    </contour>
  </outline>
</glyph>
<glyph name="quoteright" format="2">
  <advance width="402"/>
  <unicode hex="2019"/>
  <outline>
    <contour>
      <point x="177" y="1064" type="line"/>
      <point x="240" y="1064" type="line"/>
      <point x="413" y="1310" type="line"/>
      <point x="432" y="1446" type="line"/>
      <point x="266" y="1446" type="line"/>
      <point x="244" y="1288" type="line"/>
      <point x="313" y="1288" type="line"/>
    </contour>
  </outline>
</glyph>
<glyph name="quotesinglbase" format="2">
  <advance width="395"/>
  <unicode hex="201A"/>
  <outline>
    <contour>
      <point x="-24" y="-222" type="line"/>
      <point x="36" y="-222" type="line"/>
      <point x="196" y="24" type="line"/>
      <point x="214" y="160" type="line"/>
      <point x="60" y="160" type="line"/>
      <point x="38" y="0" type="line"/>
      <point x="103" y="0" type="line"/>
    </contour>
  </outline>
</glyph>
<glyph name="dagger" format="2">
  <advance width="726"/>
  <unicode hex="2020"/>
  <outline>
    <contour>
      <point x="199" y="-322" type="line"/>
      <point x="295" y="-322" type="line"/>
      <point x="437" y="828" type="line"/>
      <point x="767" y="816" type="line"/>
      <point x="781" y="908" type="line"/>
      <point x="453" y="898" type="line"/>
      <point x="543" y="1446" type="line"/>
      <point x="447" y="1446" type="line"/>
      <point x="381" y="898" type="line"/>
      <point x="55" y="908" type="line"/>
      <point x="43" y="816" type="line"/>
      <point x="377" y="828" type="line"/>
    </contour>
  </outline>
</glyph>
<glyph name="daggerdbl" format="2">
  <advance width="727"/>
  <unicode hex="2021"/>
  <outline>
    <contour>
      <point x="200" y="-322" type="line"/>
      <point x="296" y="-322" type="line"/>
      <point x="360" y="226" type="line"/>
      <point x="684" y="216" type="line"/>
      <point x="698" y="310" type="line"/>
      <point x="364" y="296" type="line"/>
      <point x="438" y="828" type="line"/>
      <point x="768" y="816" type="line"/>
      <point x="782" y="908" type="line"/>
      <point x="454" y="898" type="line"/>
      <point x="544" y="1446" type="line"/>
      <point x="448" y="1446" type="line"/>
      <point x="382" y="898" type="line"/>
      <point x="56" y="908" type="line"/>
      <point x="44" y="816" type="line"/>
      <point x="378" y="828" type="line"/>
      <point x="304" y="296" type="line"/>
      <point x="-28" y="310" type="line"/>
      <point x="-42" y="216" type="line"/>
      <point x="288" y="226" type="line"/>
    </contour>
  </outline>
</glyph>
<glyph name="bullet" format="2">
  <advance width="563"/>
  <unicode hex="2022"/>
  <outline>
    <contour>
      <point x="312" y="594" type="curve" smooth="yes"/>
      <point x="390" y="594"/>
      <point x="452" y="658"/>
      <point x="452" y="736" type="curve" smooth="yes"/>
      <point x="452" y="814"/>
      <point x="390" y="876"/>
      <point x="312" y="876" type="curve" smooth="yes"/>
      <point x="234" y="876"/>
      <point x="172" y="814"/>
      <point x="172" y="736" type="curve" smooth="yes"/>
      <point x="172" y="658"/>
      <point x="234" y="594"/>
    </contour>
  </outline>
</glyph>
<glyph name="perthousand" format="2">
  <advance width="2332"/>
  <unicode hex="2030"/>
  <outline>
    <contour>
      <point x="314" y="-8" type="line"/>
      <point x="1417" y="1462" type="line"/>
      <point x="1348" y="1462" type="line"/>
      <point x="243" y="-8" type="line"/>
    </contour>
    <contour>
      <point x="431" y="638" type="curve" smooth="yes"/>
      <point x="683" y="638"/>
      <point x="789" y="932"/>
      <point x="789" y="1162" type="curve" smooth="yes"/>
      <point x="789" y="1359"/>
      <point x="694" y="1468"/>
      <point x="547" y="1468" type="curve" smooth="yes"/>
      <point x="301" y="1468"/>
      <point x="187" y="1187"/>
      <point x="187" y="947" type="curve" smooth="yes"/>
      <point x="187" y="748"/>
      <point x="285" y="638"/>
    </contour>
    <contour>
      <point x="437" y="696" type="curve" smooth="yes"/>
      <point x="304" y="696"/>
      <point x="251" y="806"/>
      <point x="251" y="966" type="curve" smooth="yes"/>
      <point x="251" y="1134"/>
      <point x="341" y="1410"/>
      <point x="537" y="1410" type="curve" smooth="yes"/>
      <point x="670" y="1410"/>
      <point x="724" y="1303"/>
      <point x="724" y="1145" type="curve" smooth="yes"/>
      <point x="724" y="972"/>
      <point x="637" y="696"/>
    </contour>
    <contour>
      <point x="1130" y="-20" type="curve" smooth="yes"/>
      <point x="1382" y="-20"/>
      <point x="1488" y="274"/>
      <point x="1488" y="504" type="curve" smooth="yes"/>
      <point x="1488" y="701"/>
      <point x="1393" y="810"/>
      <point x="1246" y="810" type="curve" smooth="yes"/>
      <point x="1000" y="810"/>
      <point x="886" y="529"/>
      <point x="886" y="289" type="curve" smooth="yes"/>
      <point x="886" y="90"/>
      <point x="984" y="-20"/>
    </contour>
    <contour>
      <point x="1136" y="38" type="curve" smooth="yes"/>
      <point x="1003" y="38"/>
      <point x="950" y="148"/>
      <point x="950" y="308" type="curve" smooth="yes"/>
      <point x="950" y="476"/>
      <point x="1040" y="752"/>
      <point x="1236" y="752" type="curve" smooth="yes"/>
      <point x="1369" y="752"/>
      <point x="1423" y="645"/>
      <point x="1423" y="487" type="curve" smooth="yes"/>
      <point x="1423" y="314"/>
      <point x="1336" y="38"/>
    </contour>
    <contour>
      <point x="1844" y="-20" type="curve" smooth="yes"/>
      <point x="2096" y="-20"/>
      <point x="2202" y="274"/>
      <point x="2202" y="504" type="curve" smooth="yes"/>
      <point x="2202" y="701"/>
      <point x="2107" y="810"/>
      <point x="1960" y="810" type="curve" smooth="yes"/>
      <point x="1714" y="810"/>
      <point x="1600" y="529"/>
      <point x="1600" y="289" type="curve" smooth="yes"/>
      <point x="1600" y="90"/>
      <point x="1698" y="-20"/>
    </contour>
    <contour>
      <point x="1850" y="38" type="curve" smooth="yes"/>
      <point x="1717" y="38"/>
      <point x="1664" y="148"/>
      <point x="1664" y="308" type="curve" smooth="yes"/>
      <point x="1664" y="476"/>
      <point x="1754" y="752"/>
      <point x="1950" y="752" type="curve" smooth="yes"/>
      <point x="2083" y="752"/>
      <point x="2137" y="645"/>
      <point x="2137" y="487" type="curve" smooth="yes"/>
      <point x="2137" y="314"/>
      <point x="2050" y="38"/>
    </contour>
  </outline>
</glyph>
<glyph name="guilsinglleft" format="2">
  <advance width="467"/>
  <unicode hex="2039"/>
  <outline>
    <contour>
      <point x="272" y="152" type="line"/>
      <point x="322" y="152" type="line"/>
      <point x="154" y="502" type="line"/>
      <point x="426" y="868" type="line"/>
      <point x="376" y="868" type="line"/>
      <point x="58" y="502" type="line"/>
    </contour>
  </outline>
</glyph>
<glyph name="guilsinglright" format="2">
  <advance width="465"/>
  <unicode hex="203A"/>
  <outline>
    <contour>
      <point x="43" y="152" type="line"/>
      <point x="89" y="152" type="line"/>
      <point x="403" y="502" type="line"/>
      <point x="189" y="868" type="line"/>
      <point x="139" y="868" type="line"/>
      <point x="309" y="502" type="line"/>
    </contour>
  </outline>
</glyph>
<glyph name="fraction" format="2">
  <advance width="371"/>
  <unicode hex="2044"/>
  <outline>
    <contour>
      <point x="-296" y="-8" type="line"/>
      <point x="807" y="1462" type="line"/>
      <point x="738" y="1462" type="line"/>
      <point x="-367" y="-8" type="line"/>
    </contour>
  </outline>
</glyph>
<glyph name="franc" format="2">
  <advance width="1100"/>
  <unicode hex="20A3"/>
  <outline>
    <contour>
      <point x="117" y="0" type="line"/>
      <point x="199" y="0" type="line"/>
      <point x="293" y="666" type="line"/>
      <point x="947" y="666" type="line"/>
      <point x="959" y="744" type="line"/>
      <point x="303" y="744" type="line"/>
      <point x="391" y="1368" type="line"/>
      <point x="1099" y="1368" type="line"/>
      <point x="1111" y="1446" type="line"/>
      <point x="319" y="1446" type="line"/>
    </contour>
    <contour>
      <point x="-21" y="294" type="line"/>
      <point x="567" y="296" type="line"/>
      <point x="577" y="370" type="line"/>
      <point x="-11" y="368" type="line"/>
    </contour>
  </outline>
</glyph>
<glyph name="lira" format="2">
  <advance width="1075"/>
  <unicode hex="20A4"/>
  <outline>
    <contour>
      <point x="-52" y="0" type="line"/>
      <point x="560" y="0" type="line" smooth="yes"/>
      <point x="720" y="0"/>
      <point x="846" y="70"/>
      <point x="922" y="214" type="curve"/>
      <point x="860" y="244" type="line"/>
      <point x="798" y="120"/>
      <point x="704" y="78"/>
      <point x="572" y="78" type="curve"/>
      <point x="180" y="78" type="line"/>
      <point x="282" y="186"/>
      <point x="336" y="372"/>
      <point x="342" y="514" type="curve"/>
      <point x="632" y="514" type="line"/>
      <point x="644" y="588" type="line"/>
      <point x="342" y="586" type="line"/>
      <point x="338" y="806" type="line"/>
      <point x="674" y="808" type="line"/>
      <point x="684" y="882" type="line"/>
      <point x="354" y="880" type="line" smooth="yes"/>
      <point x="344" y="880"/>
      <point x="338" y="886"/>
      <point x="338" y="896" type="curve" smooth="yes"/>
      <point x="336" y="988"/>
      <point x="336" y="1066"/>
      <point x="340" y="1106" type="curve" smooth="yes"/>
      <point x="366" y="1282"/>
      <point x="508" y="1382"/>
      <point x="664" y="1382" type="curve" smooth="yes"/>
      <point x="798" y="1382"/>
      <point x="864" y="1330"/>
      <point x="896" y="1240" type="curve"/>
      <point x="968" y="1278" type="line"/>
      <point x="946" y="1370"/>
      <point x="824" y="1466"/>
      <point x="672" y="1466" type="curve" smooth="yes"/>
      <point x="444" y="1466"/>
      <point x="252" y="1332"/>
      <point x="258" y="922" type="curve" smooth="yes"/>
      <point x="260" y="880" type="line"/>
      <point x="102" y="880" type="line"/>
      <point x="92" y="806" type="line"/>
      <point x="262" y="806" type="line"/>
      <point x="266" y="586" type="line"/>
      <point x="62" y="586" type="line"/>
      <point x="52" y="512" type="line"/>
      <point x="252" y="512" type="line" smooth="yes"/>
      <point x="262" y="512"/>
      <point x="264" y="510"/>
      <point x="266" y="502" type="curve" smooth="yes"/>
      <point x="262" y="466"/>
      <point x="260" y="440"/>
      <point x="258" y="418" type="curve" smooth="yes"/>
      <point x="224" y="182"/>
      <point x="128" y="74"/>
      <point x="34" y="76" type="curve" smooth="yes"/>
      <point x="-42" y="76" type="line"/>
    </contour>
  </outline>
</glyph>
<glyph name="naira" format="2">
  <advance width="1271"/>
  <unicode hex="20A6"/>
  <anchor x="451" y="0" name="bottom"/>
  <anchor x="883" y="1446" name="top"/>
  <outline>
    <contour>
      <point x="63" y="0" type="line"/>
      <point x="129" y="0" type="line"/>
      <point x="478" y="1286" type="line"/>
      <point x="864" y="0" type="line"/>
      <point x="921" y="0" type="line"/>
      <point x="1312" y="1446" type="line"/>
      <point x="1245" y="1446" type="line"/>
      <point x="897" y="156" type="line"/>
      <point x="508" y="1446" type="line"/>
      <point x="454" y="1446" type="line"/>
    </contour>
    <contour>
      <point x="16" y="554" type="line"/>
      <point x="1266" y="556" type="line"/>
      <point x="1276" y="630" type="line"/>
      <point x="26" y="628" type="line"/>
    </contour>
    <contour>
      <point x="60" y="866" type="line"/>
      <point x="1310" y="868" type="line"/>
      <point x="1320" y="942" type="line"/>
      <point x="70" y="940" type="line"/>
    </contour>
  </outline>
</glyph>
<glyph name="won" format="2">
  <advance width="1779"/>
  <unicode hex="20A9"/>
  <anchor x="1099" y="1446" name="top"/>
  <outline>
    <contour>
      <point x="304" y="0" type="line"/>
      <point x="393" y="0" type="line"/>
      <point x="1056" y="1296" type="line"/>
      <point x="1014" y="0" type="line"/>
      <point x="1105" y="0" type="line"/>
      <point x="1847" y="1446" type="line"/>
      <point x="1775" y="1446" type="line"/>
      <point x="1087" y="98" type="line"/>
      <point x="1129" y="1446" type="line"/>
      <point x="1064" y="1446" type="line"/>
      <point x="376" y="98" type="line"/>
      <point x="427" y="1446" type="line"/>
      <point x="351" y="1446" type="line"/>
    </contour>
    <contour>
      <point x="36" y="554" type="line"/>
      <point x="1764" y="556" type="line"/>
      <point x="1774" y="630" type="line"/>
      <point x="46" y="628" type="line"/>
    </contour>
    <contour>
      <point x="80" y="866" type="line"/>
      <point x="1808" y="868" type="line"/>
      <point x="1818" y="942" type="line"/>
      <point x="90" y="940" type="line"/>
    </contour>
  </outline>
</glyph>
<glyph name="dong" format="2">
  <advance width="894"/>
  <unicode hex="20AB"/>
  <outline>
    <contour>
      <point x="391" y="246" type="curve" smooth="yes"/>
      <point x="555" y="246"/>
      <point x="637" y="356"/>
      <point x="669" y="390" type="curve"/>
      <point x="651" y="262" type="line"/>
      <point x="715" y="262" type="line"/>
      <point x="881" y="1444" type="line"/>
      <point x="813" y="1444" type="line"/>
      <point x="755" y="1040" type="line" smooth="yes"/>
      <point x="753" y="1020"/>
      <point x="751" y="1014"/>
      <point x="735" y="1030" type="curve" smooth="yes"/>
      <point x="695" y="1072"/>
      <point x="647" y="1124"/>
      <point x="531" y="1124" type="curve" smooth="yes"/>
      <point x="317" y="1124"/>
      <point x="149" y="940"/>
      <point x="111" y="668" type="curve" smooth="yes"/>
      <point x="71" y="388"/>
      <point x="205" y="246"/>
    </contour>
    <contour>
      <point x="53" y="0" type="line"/>
      <point x="687" y="0" type="line"/>
      <point x="697" y="68" type="line"/>
      <point x="61" y="68" type="line"/>
    </contour>
    <contour>
      <point x="415" y="322" type="curve" smooth="yes"/>
      <point x="273" y="322"/>
      <point x="161" y="432"/>
      <point x="195" y="674" type="curve" smooth="yes"/>
      <point x="227" y="908"/>
      <point x="363" y="1044"/>
      <point x="525" y="1044" type="curve" smooth="yes"/>
      <point x="613" y="1044"/>
      <point x="679" y="1004"/>
      <point x="735" y="932" type="curve"/>
      <point x="679" y="532" type="line" smooth="yes"/>
      <point x="667" y="440"/>
      <point x="553" y="322"/>
    </contour>
    <contour>
      <point x="503" y="1238" type="line"/>
      <point x="965" y="1238" type="line"/>
      <point x="975" y="1306" type="line"/>
      <point x="513" y="1306" type="line"/>
    </contour>
  </outline>
</glyph>
<glyph name="euro" format="2">
  <advance width="1010"/>
  <unicode hex="20AC"/>
  <outline>
    <contour>
      <point x="587" y="-20" type="curve" smooth="yes"/>
      <point x="689" y="-20"/>
      <point x="789" y="14"/>
      <point x="877" y="70" type="curve"/>
      <point x="843" y="138" type="line"/>
      <point x="773" y="92"/>
      <point x="691" y="64"/>
      <point x="605" y="64" type="curve" smooth="yes"/>
      <point x="295" y="64"/>
      <point x="175" y="298"/>
      <point x="233" y="718" type="curve" smooth="yes"/>
      <point x="295" y="1152"/>
      <point x="483" y="1382"/>
      <point x="775" y="1382" type="curve" smooth="yes"/>
      <point x="863" y="1382"/>
      <point x="931" y="1346"/>
      <point x="987" y="1292" type="curve"/>
      <point x="1049" y="1368" type="line"/>
      <point x="975" y="1430"/>
      <point x="881" y="1466"/>
      <point x="783" y="1466" type="curve" smooth="yes"/>
      <point x="447" y="1466"/>
      <point x="211" y="1190"/>
      <point x="145" y="718" type="curve" smooth="yes"/>
      <point x="79" y="248"/>
      <point x="239" y="-20"/>
    </contour>
    <contour>
      <point x="-37" y="534" type="line"/>
      <point x="641" y="536" type="line"/>
      <point x="651" y="610" type="line"/>
      <point x="-27" y="608" type="line"/>
    </contour>
    <contour>
      <point x="7" y="846" type="line"/>
      <point x="685" y="848" type="line"/>
      <point x="695" y="922" type="line"/>
      <point x="17" y="920" type="line"/>
    </contour>
  </outline>
</glyph>
<glyph name="rupeeIndian" format="2">
  <advance width="972"/>
  <unicode hex="20B9"/>
  <outline>
    <contour>
      <point x="593" y="0" type="line"/>
      <point x="683" y="0" type="line"/>
      <point x="543" y="718" type="line" smooth="yes"/>
      <point x="541" y="724"/>
      <point x="545" y="730"/>
      <point x="551" y="732" type="curve" smooth="yes"/>
      <point x="681" y="772"/>
      <point x="843" y="864"/>
      <point x="877" y="1102" type="curve" smooth="yes"/>
      <point x="909" y="1330"/>
      <point x="773" y="1446"/>
      <point x="515" y="1446" type="curve" smooth="yes"/>
      <point x="131" y="1446" type="line"/>
      <point x="121" y="1368" type="line"/>
      <point x="503" y="1368" type="line" smooth="yes"/>
      <point x="721" y="1368"/>
      <point x="813" y="1278"/>
      <point x="787" y="1100" type="curve" smooth="yes"/>
      <point x="755" y="874"/>
      <point x="617" y="790"/>
      <point x="359" y="790" type="curve" smooth="yes"/>
      <point x="39" y="790" type="line"/>
      <point x="29" y="712" type="line"/>
      <point x="451" y="712" type="line"/>
    </contour>
    <contour>
      <point x="81" y="1060" type="line"/>
      <point x="1017" y="1062" type="line"/>
      <point x="1029" y="1136" type="line"/>
      <point x="91" y="1134" type="line"/>
    </contour>
    <contour>
      <point x="125" y="1372" type="line"/>
      <point x="1061" y="1374" type="line"/>
      <point x="1071" y="1448" type="line"/>
      <point x="135" y="1446" type="line"/>
    </contour>
  </outline>
</glyph>
<glyph name="liraTurkish" format="2">
  <advance width="886"/>
  <unicode hex="20BA"/>
  <outline>
    <contour>
      <point x="115" y="0" type="line"/>
      <point x="313" y="0" type="line" smooth="yes"/>
      <point x="531" y="0"/>
      <point x="733" y="142"/>
      <point x="853" y="424" type="curve"/>
      <point x="779" y="446" type="line"/>
      <point x="651" y="180"/>
      <point x="509" y="78"/>
      <point x="321" y="78" type="curve" smooth="yes"/>
      <point x="209" y="78" type="line"/>
      <point x="401" y="1446" type="line"/>
      <point x="319" y="1446" type="line"/>
    </contour>
    <contour>
      <point x="39" y="400" type="line"/>
      <point x="587" y="604" type="line"/>
      <point x="569" y="688" type="line"/>
      <point x="25" y="484" type="line"/>
    </contour>
    <contour>
      <point x="85" y="726" type="line"/>
      <point x="633" y="930" type="line"/>
      <point x="615" y="1014" type="line"/>
      <point x="71" y="810" type="line"/>
    </contour>
  </outline>
</glyph>
<glyph name="literSign" format="2">
  <advance width="826"/>
  <unicode hex="2113"/>
  <outline>
    <contour>
      <point x="368" y="-12" type="curve"/>
      <point x="481" y="-12"/>
      <point x="568" y="44"/>
      <point x="660" y="191" type="curve"/>
      <point x="616" y="224" type="line"/>
      <point x="522" y="89"/>
      <point x="458" y="58"/>
      <point x="370" y="58" type="curve" smooth="yes"/>
      <point x="258" y="58"/>
      <point x="211" y="156"/>
      <point x="251" y="432" type="curve"/>
      <point x="464" y="628"/>
      <point x="736" y="880"/>
      <point x="776" y="1168" type="curve" smooth="yes"/>
      <point x="801" y="1342"/>
      <point x="735" y="1466"/>
      <point x="592" y="1466" type="curve" smooth="yes"/>
      <point x="448" y="1466"/>
      <point x="305" y="1336"/>
      <point x="263" y="1040" type="curve" smooth="yes"/>
      <point x="184" y="480" type="line"/>
      <point x="30" y="372" type="line"/>
      <point x="60" y="306" type="line"/>
      <point x="169" y="382" type="line"/>
      <point x="140" y="119"/>
      <point x="207" y="-12"/>
    </contour>
    <contour>
      <point x="263" y="539" type="curve"/>
      <point x="326" y="972" type="line" smooth="yes"/>
      <point x="369" y="1280"/>
      <point x="457" y="1384"/>
      <point x="586" y="1384" type="curve" smooth="yes"/>
      <point x="683" y="1384"/>
      <point x="728" y="1320"/>
      <point x="711" y="1198" type="curve" smooth="yes"/>
      <point x="670" y="912"/>
      <point x="411" y="661"/>
    </contour>
  </outline>
</glyph>
<glyph name="published" format="2">
  <advance width="1486"/>
  <unicode hex="2117"/>
  <outline>
    <contour>
      <point x="669" y="-20" type="curve" smooth="yes"/>
      <point x="1043" y="-20"/>
      <point x="1397" y="310"/>
      <point x="1455" y="724" type="curve" smooth="yes"/>
      <point x="1513" y="1132"/>
      <point x="1253" y="1466"/>
      <point x="877" y="1466" type="curve" smooth="yes"/>
      <point x="499" y="1466"/>
      <point x="145" y="1132"/>
      <point x="89" y="724" type="curve" smooth="yes"/>
      <point x="31" y="310"/>
      <point x="289" y="-20"/>
    </contour>
    <contour>
      <point x="681" y="66" type="curve" smooth="yes"/>
      <point x="355" y="66"/>
      <point x="113" y="324"/>
      <point x="169" y="724" type="curve" smooth="yes"/>
      <point x="225" y="1118"/>
      <point x="539" y="1382"/>
      <point x="865" y="1382" type="curve" smooth="yes"/>
      <point x="1183" y="1382"/>
      <point x="1431" y="1118"/>
      <point x="1375" y="724" type="curve" smooth="yes"/>
      <point x="1319" y="324"/>
      <point x="997" y="66"/>
    </contour>
    <contour>
      <point x="491" y="328" type="line"/>
      <point x="563" y="328" type="line"/>
      <point x="609" y="662" type="line"/>
      <point x="793" y="662" type="line" smooth="yes"/>
      <point x="939" y="662"/>
      <point x="1057" y="742"/>
      <point x="1081" y="908" type="curve" smooth="yes"/>
      <point x="1101" y="1048"/>
      <point x="1001" y="1108"/>
      <point x="851" y="1108" type="curve" smooth="yes"/>
      <point x="601" y="1108" type="line"/>
    </contour>
    <contour>
      <point x="619" y="732" type="line"/>
      <point x="663" y="1038" type="line"/>
      <point x="839" y="1038" type="line" smooth="yes"/>
      <point x="945" y="1038"/>
      <point x="1021" y="1006"/>
      <point x="1005" y="888" type="curve" smooth="yes"/>
      <point x="989" y="780"/>
      <point x="901" y="732"/>
      <point x="803" y="732" type="curve" smooth="yes"/>
    </contour>
  </outline>
</glyph>
<glyph name="servicemark" format="2">
  <advance width="1847"/>
  <unicode hex="2120"/>
  <anchor x="294" y="0" name="bottom"/>
  <anchor x="428" y="904" name="top"/>
  <outline>
    <contour>
      <point x="912" y="0" type="line"/>
      <point x="961" y="0" type="line"/>
      <point x="1068" y="760" type="line"/>
      <point x="1241" y="0" type="line"/>
      <point x="1307" y="0" type="line"/>
      <point x="1698" y="770" type="line"/>
      <point x="1590" y="0" type="line"/>
      <point x="1640" y="0" type="line"/>
      <point x="1766" y="904" type="line"/>
      <point x="1717" y="904" type="line"/>
      <point x="1281" y="55" type="line"/>
      <point x="1090" y="904" type="line"/>
      <point x="1038" y="904" type="line"/>
    </contour>
    <contour>
      <point x="311" y="-13" type="curve" smooth="yes"/>
      <point x="506" y="-13"/>
      <point x="616" y="94"/>
      <point x="633" y="221" type="curve" smooth="yes"/>
      <point x="646" y="324"/>
      <point x="613" y="420"/>
      <point x="488" y="457" type="curve" smooth="yes"/>
      <point x="319" y="507" type="line" smooth="yes"/>
      <point x="196" y="544"/>
      <point x="159" y="589"/>
      <point x="169" y="666" type="curve" smooth="yes"/>
      <point x="187" y="804"/>
      <point x="321" y="864"/>
      <point x="419" y="864" type="curve" smooth="yes"/>
      <point x="529" y="864"/>
      <point x="630" y="815"/>
      <point x="624" y="665" type="curve"/>
      <point x="675" y="665" type="line"/>
      <point x="691" y="786"/>
      <point x="613" y="915"/>
      <point x="428" y="915" type="curve" smooth="yes"/>
      <point x="262" y="915"/>
      <point x="139" y="808"/>
      <point x="121" y="665" type="curve" smooth="yes"/>
      <point x="106" y="558"/>
      <point x="166" y="492"/>
      <point x="283" y="459" type="curve" smooth="yes"/>
      <point x="459" y="409" type="line" smooth="yes"/>
      <point x="560" y="380"/>
      <point x="596" y="315"/>
      <point x="584" y="219" type="curve" smooth="yes"/>
      <point x="570" y="113"/>
      <point x="461" y="36"/>
      <point x="318" y="36" type="curve" smooth="yes"/>
      <point x="198" y="36"/>
      <point x="97" y="99"/>
      <point x="88" y="221" type="curve"/>
      <point x="37" y="221" type="line"/>
      <point x="42" y="70"/>
      <point x="161" y="-13"/>
    </contour>
  </outline>
</glyph>
<glyph name="Ohm" format="2">
  <advance width="1430"/>
  <unicode hex="2126"/>
  <outline>
    <contour>
      <point x="136" y="0" type="line"/>
      <point x="566" y="0" type="line"/>
      <point x="580" y="90" type="line"/>
      <point x="326" y="316"/>
      <point x="230" y="512"/>
      <point x="272" y="806" type="curve" smooth="yes"/>
      <point x="314" y="1106"/>
      <point x="508" y="1418"/>
      <point x="842" y="1418" type="curve"/>
      <point x="1174" y="1418"/>
      <point x="1282" y="1106"/>
      <point x="1240" y="806" type="curve" smooth="yes"/>
      <point x="1184" y="408"/>
      <point x="884" y="196"/>
      <point x="730" y="90" type="curve"/>
      <point x="718" y="0" type="line"/>
      <point x="1148" y="0" type="line"/>
      <point x="1160" y="84" type="line"/>
      <point x="834" y="84" type="line"/>
      <point x="1162" y="344"/>
      <point x="1288" y="508"/>
      <point x="1332" y="818" type="curve" smooth="yes"/>
      <point x="1382" y="1174"/>
      <point x="1226" y="1504"/>
      <point x="854" y="1504" type="curve"/>
      <point x="482" y="1504"/>
      <point x="234" y="1176"/>
      <point x="182" y="816" type="curve" smooth="yes"/>
      <point x="116" y="342"/>
      <point x="434" y="122"/>
      <point x="470" y="84" type="curve"/>
      <point x="148" y="84" type="line"/>
    </contour>
  </outline>
</glyph>
<glyph name="partialdiff" format="2">
  <advance width="1076"/>
  <unicode hex="2202"/>
  <outline>
    <contour>
      <point x="446" y="-20" type="curve" smooth="yes"/>
      <point x="724" y="-20"/>
      <point x="928" y="250"/>
      <point x="996" y="734" type="curve" smooth="yes"/>
      <point x="1064" y="1222"/>
      <point x="930" y="1466"/>
      <point x="644" y="1466" type="curve" smooth="yes"/>
      <point x="522" y="1466"/>
      <point x="374" y="1418"/>
      <point x="296" y="1336" type="curve"/>
      <point x="318" y="1278" type="line"/>
      <point x="400" y="1332"/>
      <point x="476" y="1380"/>
      <point x="600" y="1380" type="curve" smooth="yes"/>
      <point x="850" y="1380"/>
      <point x="968" y="1182"/>
      <point x="906" y="752" type="curve" smooth="yes"/>
      <point x="906" y="744"/>
      <point x="902" y="740"/>
      <point x="884" y="750" type="curve" smooth="yes"/>
      <point x="796" y="814"/>
      <point x="736" y="850"/>
      <point x="602" y="850" type="curve" smooth="yes"/>
      <point x="322" y="850"/>
      <point x="134" y="690"/>
      <point x="98" y="434" type="curve" smooth="yes"/>
      <point x="62" y="176"/>
      <point x="206" y="-20"/>
    </contour>
    <contour>
      <point x="440" y="64" type="line" smooth="yes"/>
      <point x="272" y="64"/>
      <point x="156" y="230"/>
      <point x="184" y="428" type="curve" smooth="yes"/>
      <point x="212" y="624"/>
      <point x="370" y="766"/>
      <point x="564" y="766" type="curve" smooth="yes"/>
      <point x="692" y="766"/>
      <point x="828" y="704"/>
      <point x="880" y="626" type="curve" smooth="yes"/>
      <point x="890" y="612"/>
      <point x="890" y="598"/>
      <point x="882" y="556" type="curve" smooth="yes"/>
      <point x="814" y="260"/>
      <point x="630" y="64"/>
      <point x="442" y="64" type="curve" smooth="yes"/>
    </contour>
  </outline>
</glyph>
<glyph name="emptyset" format="2">
  <advance width="1053"/>
  <unicode hex="2205"/>
  <outline>
    <contour>
      <point x="151" y="314" type="line"/>
      <point x="999" y="1058" type="line"/>
      <point x="961" y="1112" type="line"/>
      <point x="109" y="368" type="line"/>
    </contour>
    <contour>
      <point x="503" y="340" type="curve" smooth="yes"/>
      <point x="697" y="340"/>
      <point x="883" y="514"/>
      <point x="913" y="728" type="curve" smooth="yes"/>
      <point x="943" y="940"/>
      <point x="807" y="1114"/>
      <point x="611" y="1114" type="curve" smooth="yes"/>
      <point x="415" y="1114"/>
      <point x="231" y="940"/>
      <point x="201" y="728" type="curve" smooth="yes"/>
      <point x="171" y="514"/>
      <point x="305" y="340"/>
    </contour>
    <contour>
      <point x="513" y="410" type="curve" smooth="yes"/>
      <point x="351" y="410"/>
      <point x="241" y="552"/>
      <point x="267" y="728" type="curve" smooth="yes"/>
      <point x="291" y="900"/>
      <point x="439" y="1044"/>
      <point x="601" y="1044" type="curve" smooth="yes"/>
      <point x="763" y="1044"/>
      <point x="873" y="900"/>
      <point x="849" y="728" type="curve" smooth="yes"/>
      <point x="825" y="552"/>
      <point x="675" y="410"/>
    </contour>
  </outline>
</glyph>
<glyph name="increment" format="2">
  <advance width="1176"/>
  <unicode hex="2206"/>
  <outline>
    <contour>
      <point x="-33" y="0" type="line"/>
      <point x="1063" y="0" type="line"/>
      <point x="717" y="1446" type="line"/>
    </contour>
    <contour>
      <point x="91" y="84" type="line"/>
      <point x="683" y="1210" type="line"/>
      <point x="959" y="84" type="line"/>
    </contour>
  </outline>
</glyph>
<glyph name="product" format="2">
  <advance width="1136"/>
  <unicode hex="220F"/>
  <outline>
    <contour>
      <point x="157" y="0" type="line"/>
      <point x="239" y="0" type="line"/>
      <point x="431" y="1366" type="line"/>
      <point x="943" y="1366" type="line"/>
      <point x="751" y="0" type="line"/>
      <point x="833" y="0" type="line"/>
      <point x="1025" y="1366" type="line"/>
      <point x="1225" y="1366" type="line"/>
      <point x="1235" y="1446" type="line"/>
      <point x="161" y="1446" type="line"/>
      <point x="151" y="1366" type="line"/>
      <point x="349" y="1366" type="line"/>
    </contour>
  </outline>
</glyph>
<glyph name="summation" format="2">
  <advance width="902"/>
  <unicode hex="2211"/>
  <outline>
    <contour>
      <point x="-21" y="0" type="line"/>
      <point x="789" y="0" type="line"/>
      <point x="799" y="78" type="line"/>
      <point x="93" y="78" type="line"/>
      <point x="581" y="726" type="line"/>
      <point x="301" y="1368" type="line"/>
      <point x="947" y="1368" type="line"/>
      <point x="959" y="1446" type="line"/>
      <point x="209" y="1446" type="line"/>
      <point x="199" y="1376" type="line"/>
      <point x="487" y="724" type="line"/>
      <point x="-13" y="66" type="line"/>
    </contour>
  </outline>
</glyph>
<glyph name="minus" format="2">
  <advance width="980"/>
  <unicode hex="2212"/>
  <outline>
    <contour>
      <point x="154" y="688" type="line"/>
      <point x="874" y="690" type="line"/>
      <point x="884" y="764" type="line"/>
      <point x="164" y="762" type="line"/>
    </contour>
  </outline>
</glyph>
<glyph name="divisionslash" format="2">
  <advance width="1089"/>
  <unicode hex="2215"/>
  <outline>
    <contour>
      <point x="103" y="-8" type="line"/>
      <point x="1117" y="1462" type="line"/>
      <point x="1050" y="1462" type="line"/>
      <point x="31" y="-8" type="line"/>
    </contour>
  </outline>
</glyph>
<glyph name="bulletoperator" format="2">
  <advance width="548"/>
  <unicode hex="2219"/>
  <outline>
    <contour>
      <point x="291" y="642" type="curve" smooth="yes"/>
      <point x="339" y="642"/>
      <point x="383" y="684"/>
      <point x="389" y="736" type="curve" smooth="yes"/>
      <point x="397" y="788"/>
      <point x="365" y="828"/>
      <point x="319" y="828" type="curve" smooth="yes"/>
      <point x="271" y="828"/>
      <point x="227" y="788"/>
      <point x="221" y="736" type="curve" smooth="yes"/>
      <point x="213" y="684"/>
      <point x="245" y="642"/>
    </contour>
  </outline>
</glyph>
<glyph name="radical" format="2">
  <advance width="1069"/>
  <unicode hex="221A"/>
  <outline>
    <contour>
      <point x="398" y="-322" type="line"/>
      <point x="488" y="-322" type="line"/>
      <point x="1238" y="1650" type="line"/>
      <point x="1166" y="1650" type="line"/>
      <point x="454" y="-210" type="line"/>
      <point x="278" y="748" type="line"/>
      <point x="50" y="658" type="line"/>
      <point x="64" y="586" type="line"/>
      <point x="206" y="644" type="line"/>
    </contour>
  </outline>
</glyph>
<glyph name="infinity" format="2">
  <advance width="1255"/>
  <unicode hex="221E"/>
  <outline>
    <contour>
      <point x="317" y="242" type="curve" smooth="yes"/>
      <point x="465" y="242"/>
      <point x="565" y="372"/>
      <point x="597" y="404" type="curve" smooth="yes"/>
      <point x="613" y="422"/>
      <point x="617" y="418"/>
      <point x="625" y="404" type="curve" smooth="yes"/>
      <point x="683" y="316"/>
      <point x="733" y="242"/>
      <point x="851" y="242" type="curve" smooth="yes"/>
      <point x="995" y="242"/>
      <point x="1131" y="352"/>
      <point x="1159" y="544" type="curve" smooth="yes"/>
      <point x="1159" y="546" type="line" smooth="yes"/>
      <point x="1183" y="722"/>
      <point x="1091" y="830"/>
      <point x="949" y="830" type="curve" smooth="yes"/>
      <point x="823" y="830"/>
      <point x="741" y="746"/>
      <point x="679" y="682" type="curve" smooth="yes"/>
      <point x="661" y="664"/>
      <point x="657" y="664"/>
      <point x="641" y="682" type="curve" smooth="yes"/>
      <point x="583" y="766"/>
      <point x="537" y="830"/>
      <point x="419" y="830" type="curve" smooth="yes"/>
      <point x="259" y="830"/>
      <point x="127" y="714"/>
      <point x="103" y="536" type="curve" smooth="yes"/>
      <point x="77" y="358"/>
      <point x="179" y="242"/>
    </contour>
    <contour>
      <point x="331" y="330" type="line" smooth="yes"/>
      <point x="233" y="330"/>
      <point x="163" y="416"/>
      <point x="181" y="542" type="curve" smooth="yes"/>
      <point x="199" y="664"/>
      <point x="283" y="748"/>
      <point x="389" y="748" type="curve" smooth="yes"/>
      <point x="481" y="748"/>
      <point x="537" y="682"/>
      <point x="587" y="576" type="curve" smooth="yes"/>
      <point x="609" y="532"/>
      <point x="609" y="524"/>
      <point x="577" y="486" type="curve" smooth="yes"/>
      <point x="525" y="420"/>
      <point x="429" y="330"/>
      <point x="337" y="330" type="curve" smooth="yes"/>
    </contour>
    <contour>
      <point x="883" y="330" type="curve" smooth="yes"/>
      <point x="837" y="330"/>
      <point x="751" y="350"/>
      <point x="675" y="500" type="curve" smooth="yes"/>
      <point x="661" y="520"/>
      <point x="657" y="550"/>
      <point x="687" y="584" type="curve" smooth="yes"/>
      <point x="757" y="660"/>
      <point x="839" y="748"/>
      <point x="935" y="748" type="curve" smooth="yes"/>
      <point x="937" y="748" type="line" smooth="yes"/>
      <point x="1041" y="748"/>
      <point x="1095" y="650"/>
      <point x="1079" y="540" type="curve" smooth="yes"/>
      <point x="1065" y="438"/>
      <point x="993" y="330"/>
    </contour>
  </outline>
</glyph>
<glyph name="integral" format="2">
  <advance width="759"/>
  <unicode hex="222B"/>
  <outline>
    <contour>
      <point x="99" y="-342" type="curve" smooth="yes"/>
      <point x="225" y="-342"/>
      <point x="359" y="-230"/>
      <point x="389" y="-14" type="curve" smooth="yes"/>
      <point x="451" y="434"/>
      <point x="423" y="904"/>
      <point x="487" y="1354" type="curve" smooth="yes"/>
      <point x="509" y="1510"/>
      <point x="605" y="1580"/>
      <point x="701" y="1580" type="curve" smooth="yes"/>
      <point x="763" y="1580"/>
      <point x="801" y="1566"/>
      <point x="863" y="1526" type="curve"/>
      <point x="903" y="1612" type="line"/>
      <point x="837" y="1660"/>
      <point x="801" y="1670"/>
      <point x="701" y="1670" type="curve" smooth="yes"/>
      <point x="569" y="1670"/>
      <point x="435" y="1558"/>
      <point x="405" y="1342" type="curve" smooth="yes"/>
      <point x="341" y="886"/>
      <point x="371" y="430"/>
      <point x="307" y="-26" type="curve" smooth="yes"/>
      <point x="285" y="-182"/>
      <point x="189" y="-252"/>
      <point x="99" y="-252" type="curve" smooth="yes"/>
      <point x="37" y="-252"/>
      <point x="-1" y="-238"/>
      <point x="-63" y="-198" type="curve"/>
      <point x="-103" y="-284" type="line"/>
      <point x="-35" y="-332"/>
      <point x="-1" y="-342"/>
    </contour>
  </outline>
</glyph>
